  0
SECTION
  2
HEADER
  9
$ACADVER
  1
AC1009
  9
$EXTMAX
 10
190.0
 20
190.0
 30
0.0
  9
$EXTMIN
 10
-190.0
 20
-190.0
 30
0.0
  9
$INSUNITS
 70
     4
  9
$LUNITS
 70
     2
  9
$LUPREC
 70
     4
  9
$MEASUREMENT
 70
     1
  0
ENDSEC
  0
SECTION
  2
TABLES
  0
TABLE
  2
LAYER
 70
     1
  0
LAYER
  2
0
 70
     0
 62
     7
  6
Continuous
  0
LAYER
  2
Default
 70
     0
 62
    70
  6
Continuous
  0
ENDTAB
  0
TABLE
  2
APPID
 70
     1
  0
APPID
  2
ACAD
 70
     0
  0
ENDTAB
  0
ENDSEC
  0
SECTION
  2
ENTITIES
  0
CIRCLE
  8
Default
 10
0.0
 20
0.0
 30
0.0
 40
10.0
  0
CIRCLE
  8
Default
 10
0.0
 20
0.0
 30
0.0
 40
190.0
  0
CIRCLE
  8
Default
 10
68.8830178257163
 20
166.298315852032
 30
0.0
 40
3.0
  0
CIRCLE
  8
Default
 10
127.279220613579
 20
127.279220613579
 30
0.0
 40
3.0
  0
CIRCLE
  8
Default
 10
166.298315852032
 20
68.8830178257162
 30
0.0
 40
3.0
  0
CIRCLE
  8
Default
 10
180.0
 20
0.0
 30
0.0
 40
3.0
  0
CIRCLE
  8
Default
 10
166.298315852032
 20
-68.8830178257163
 30
0.0
 40
3.0
  0
CIRCLE
  8
Default
 10
127.279220613579
 20
-127.279220613579
 30
0.0
 40
3.0
  0
CIRCLE
  8
Default
 10
68.8830178257161
 20
-166.298315852032
 30
0.0
 40
3.0
  0
CIRCLE
  8
Default
 10
0.0
 20
-180.0
 30
0.0
 40
3.0
  0
CIRCLE
  8
Default
 10
-68.8830178257162
 20
-166.298315852032
 30
0.0
 40
3.0
  0
CIRCLE
  8
Default
 10
-127.279220613579
 20
-127.279220613579
 30
0.0
 40
3.0
  0
CIRCLE
  8
Default
 10
-166.298315852032
 20
-68.8830178257162
 30
0.0
 40
3.0
  0
CIRCLE
  8
Default
 10
-180.0
 20
0.0
 30
0.0
 40
3.0
  0
CIRCLE
  8
Default
 10
-166.298315852032
 20
68.8830178257162
 30
0.0
 40
3.0
  0
CIRCLE
  8
Default
 10
-127.279220613579
 20
127.279220613579
 30
0.0
 40
3.0
  0
CIRCLE
  8
Default
 10
-68.8830178257162
 20
166.298315852032
 30
0.0
 40
3.0
  0
CIRCLE
  8
Default
 10
0.0
 20
180.0
 30
0.0
 40
3.0
  0
CIRCLE
  8
Default
 10
0.0
 20
45.0
 30
0.0
 40
4.0
  0
CIRCLE
  8
Default
 10
-45.0
 20
0.0
 30
0.0
 40
4.0
  0
CIRCLE
  8
Default
 10
45.0
 20
0.0
 30
0.0
 40
4.0
  0
CIRCLE
  8
Default
 10
0.0
 20
-45.0
 30
0.0
 40
4.0
  0
CIRCLE
  8
Default
 10
0.0
 20
45.0
 30
0.0
 40
4.0
  0
POLYLINE
  8
Default
 66
     1
 10
0.0
 20
0.0
 30
0.0
 70
     1
  0
VERTEX
  8
Default
 10
-82.2908113340855
 20
-130.026986007361
 42
0.0
  0
VERTEX
  8
Default
 10
-47.9807126176867
 20
-102.480350530937
 42
0.4142135623731
  0
VERTEX
  8
Default
 10
-47.5195673967793
 20
-98.2628459268811
 42
0.0
  0
VERTEX
  8
Default
 10
-109.499497218733
 20
-21.0651238149839
 42
0.4142135623731
  0
VERTEX
  8
Default
 10
-113.717001822789
 20
-20.6039785940765
 42
0.0
  0
VERTEX
  8
Default
 10
-148.027100539188
 20
-48.1506140705003
 42
0.4142135623731
  0
VERTEX
  8
Default
 10
-148.488245760095
 20
-52.3681186745564
 42
0.0
  0
VERTEX
  8
Default
 10
-86.5083159381416
 20
-129.565840786454
 42
0.4142135623731
  0
SEQEND
  0
CIRCLE
  8
Default
 10
-140.196171744426
 20
-16.2149513372586
 30
0.0
 40
3.25
  0
CIRCLE
  8
Default
 10
-95.8593543485928
 20
-9.3829221212368
 30
0.0
 40
3.25
  0
CIRCLE
  8
Default
 10
-123.944473906982
 20
25.5978734584954
 30
0.0
 40
3.25
  0
CIRCLE
  8
Default
 10
-120.0
 20
0.0
 30
0.0
 40
19.0
  0
CIRCLE
  8
Default
 10
1.0
 20
-135.0
 30
0.0
 40
10.0
  0
CIRCLE
  8
Default
 10
80.1600260538588
 20
-108.629508988325
 30
0.0
 40
10.0
  0
CIRCLE
  8
Default
 10
128.701646694221
 20
-40.7662377243228
 30
0.0
 40
10.0
  0
CIRCLE
  8
Default
 10
128.083612705471
 20
42.668350756913
 30
0.0
 40
10.0
  0
CIRCLE
  8
Default
 10
78.5419920651089
 20
109.80507949291
 30
0.0
 40
10.0
  0
CIRCLE
  8
Default
 10
-1.0
 20
135.0
 30
0.0
 40
10.0
  0
CIRCLE
  8
Default
 10
-80.1600260538588
 20
108.629508988325
 30
0.0
 40
10.0
  0
ENDSEC
  0
EOF
