  0
SECTION
  2
HEADER
  9
$ACADVER
  1
AC1009
  9
$EXTMAX
 10
200.0
 20
200.0
 30
0.0
  9
$EXTMIN
 10
-200.0
 20
-200.0
 30
0.0
  9
$INSUNITS
 70
     4
  9
$LUNITS
 70
     2
  9
$LUPREC
 70
     4
  9
$MEASUREMENT
 70
     1
  0
ENDSEC
  0
SECTION
  2
TABLES
  0
TABLE
  2
LAYER
 70
     1
  0
LAYER
  2
0
 70
     0
 62
     7
  6
Continuous
  0
LAYER
  2
Default
 70
     0
 62
    70
  6
Continuous
  0
LAYER
  2
BoltHoles
 70
     0
 62
    70
  6
Continuous
  0
LAYER
  2
Hub
 70
     0
 62
    70
  6
Continuous
  0
LAYER
  2
PSU
 70
     0
 62
    70
  6
Continuous
  0
LAYER
  2
Motor
 70
     0
 62
    70
  6
Continuous
  0
LAYER
  2
Gears
 70
     0
 62
    70
  6
Continuous
  0
LAYER
  2
CogClamp
 70
     0
 62
    70
  6
Continuous
  0
LAYER
  2
Hub_bit
 70
     0
 62
    70
  6
Continuous
  0
LAYER
  2
BottomGuard
 70
     0
 62
    70
  6
Continuous
  0
ENDTAB
  0
TABLE
  2
APPID
 70
     1
  0
APPID
  2
ACAD
 70
     0
  0
ENDTAB
  0
ENDSEC
  0
SECTION
  2
ENTITIES
  0
CIRCLE
  8
BottomGuard
 10
0.0
 20
0.0
 30
0.0
 40
10.0
  0
POLYLINE
  8
BottomGuard
 66
     1
 10
0.0
 20
0.0
 30
0.0
 70
     1
  0
VERTEX
  8
BottomGuard
 10
57.1336882487534
 20
49.1597401446982
 42
0.0
  0
VERTEX
  8
BottomGuard
 10
58.7102324089891
 20
50.5162515763844
 42
0.0
  0
VERTEX
  8
BottomGuard
 10
58.785678656153
 20
50.5769117823409
 42
0.0
  0
VERTEX
  8
BottomGuard
 10
59.0198720185246
 20
50.748651217461
 42
0.0
  0
VERTEX
  8
BottomGuard
 10
59.4237149246261
 20
51.0154661481875
 42
0.0
  0
VERTEX
  8
BottomGuard
 10
60.0068930114335
 20
51.3605605155773
 42
0.0
  0
VERTEX
  8
BottomGuard
 10
60.777824183313
 20
51.7664282312025
 42
0.0
  0
VERTEX
  8
BottomGuard
 10
61.7436128879226
 20
52.2149385334176
 42
0.0
  0
VERTEX
  8
BottomGuard
 10
62.9100097850611
 20
52.6874240866664
 42
0.0
  0
VERTEX
  8
BottomGuard
 10
64.2813769656941
 20
53.1647714966947
 42
0.0
  0
VERTEX
  8
BottomGuard
 10
64.888765910808
 20
53.3427413859876
 42
-0.0111967302195
  0
VERTEX
  8
BottomGuard
 10
67.211861867045
 20
50.384180298634
 42
0.0
  0
VERTEX
  8
BottomGuard
 10
67.211861867045
 20
50.384180298634
 42
0.0
  0
VERTEX
  8
BottomGuard
 10
66.8948999282835
 20
49.8363393166711
 42
0.0
  0
VERTEX
  8
BottomGuard
 10
66.1058906486279
 20
48.617334455895
 42
0.0
  0
VERTEX
  8
BottomGuard
 10
65.3702228827846
 20
47.5962971118266
 42
0.0
  0
VERTEX
  8
BottomGuard
 10
64.7054298807432
 20
46.7644560347084
 42
0.0
  0
VERTEX
  8
BottomGuard
 10
64.1282821988059
 20
46.1117968375797
 42
0.0
  0
VERTEX
  8
BottomGuard
 10
63.6547080174995
 20
45.6271172546215
 42
0.0
  0
VERTEX
  8
BottomGuard
 10
63.2997171229336
 20
45.2980872182382
 42
0.0
  0
VERTEX
  8
BottomGuard
 10
63.0773288321089
 20
45.1113135245383
 42
0.0
  0
VERTEX
  8
BottomGuard
 10
63.000504128704
 20
45.0524088409845
 42
0.0
  0
VERTEX
  8
BottomGuard
 10
61.3087534269847
 20
43.8426178190718
 42
-0.0168405422819
  0
VERTEX
  8
BottomGuard
 10
64.1205553895438
 20
39.6168242106361
 42
0.0
  0
VERTEX
  8
BottomGuard
 10
65.8898948151787
 20
40.7100088932777
 42
0.0
  0
VERTEX
  8
BottomGuard
 10
65.9739015407122
 20
40.7581198781248
 42
0.0
  0
VERTEX
  8
BottomGuard
 10
66.2320775608307
 20
40.8911090024547
 42
0.0
  0
VERTEX
  8
BottomGuard
 10
66.6726875415722
 20
41.0914640496537
 42
0.0
  0
VERTEX
  8
BottomGuard
 10
67.3026703911535
 20
41.3410805806967
 42
0.0
  0
VERTEX
  8
BottomGuard
 10
68.1276018199911
 20
41.6213511857879
 42
0.0
  0
VERTEX
  8
BottomGuard
 10
69.1516625322045
 20
41.913256942575
 42
0.0
  0
VERTEX
  8
BottomGuard
 10
70.3776121727763
 20
42.19746073999
 42
0.0
  0
VERTEX
  8
BottomGuard
 10
71.8067691344885
 20
42.4544021200123
 42
0.0
  0
VERTEX
  8
BottomGuard
 10
72.4345207382087
 20
42.5351643399436
 42
-0.0111967302195
  0
VERTEX
  8
BottomGuard
 10
74.2661946072787
 20
39.2496157758749
 42
0.0
  0
VERTEX
  8
BottomGuard
 10
74.2661946072787
 20
39.2496157758749
 42
0.0
  0
VERTEX
  8
BottomGuard
 10
73.8674337850109
 20
38.7581033968183
 42
0.0
  0
VERTEX
  8
BottomGuard
 10
72.8974441455969
 20
37.6775347532757
 42
0.0
  0
VERTEX
  8
BottomGuard
 10
72.0111082400163
 20
36.7841518666241
 42
0.0
  0
VERTEX
  8
BottomGuard
 10
71.2243713290933
 20
36.0665486711632
 42
0.0
  0
VERTEX
  8
BottomGuard
 10
70.5522309004859
 20
35.5122105806501
 42
0.0
  0
VERTEX
  8
BottomGuard
 10
70.0086666119267
 20
35.1075815313473
 42
0.0
  0
VERTEX
  8
BottomGuard
 10
69.6065746066227
 20
34.8381352113915
 42
0.0
  0
VERTEX
  8
BottomGuard
 10
69.3577064418327
 20
34.6884502051005
 42
0.0
  0
VERTEX
  8
BottomGuard
 10
69.2726128553499
 20
34.6422887673271
 42
0.0
  0
VERTEX
  8
BottomGuard
 10
67.4124374007447
 20
33.7120403964321
 42
-0.0168405422819
  0
VERTEX
  8
BottomGuard
 10
69.5285616527209
 20
29.0984105838066
 42
0.0
  0
VERTEX
  8
BottomGuard
 10
71.447129334995
 20
29.9013506824452
 42
0.0
  0
VERTEX
  8
BottomGuard
 10
71.5376280145131
 20
29.9357277940646
 42
0.0
  0
VERTEX
  8
BottomGuard
 10
71.8134295419261
 20
30.0266919739977
 42
0.0
  0
VERTEX
  8
BottomGuard
 10
72.2799573172811
 20
30.1556537314669
 42
0.0
  0
VERTEX
  8
BottomGuard
 10
72.9412326610863
 20
30.3036460387391
 42
0.0
  0
VERTEX
  8
BottomGuard
 10
73.7998517973136
 20
30.4514183408342
 42
0.0
  0
VERTEX
  8
BottomGuard
 10
74.8569687437335
 20
30.5795318636816
 42
0.0
  0
VERTEX
  8
BottomGuard
 10
76.1122841788941
 20
30.6684558645522
 42
0.0
  0
VERTEX
  8
BottomGuard
 10
77.5640403341881
 20
30.6986644650526
 42
0.0
  0
VERTEX
  8
BottomGuard
 10
78.1966972686428
 20
30.6802303817332
 42
-0.0111967302195
  0
VERTEX
  8
BottomGuard
 10
79.4918471609122
 20
27.1485954507073
 42
0.0
  0
VERTEX
  8
BottomGuard
 10
79.4918471609122
 20
27.1485954507073
 42
0.0
  0
VERTEX
  8
BottomGuard
 10
79.0211062699939
 20
26.7255143405654
 42
0.0
  0
VERTEX
  8
BottomGuard
 10
77.8940206349547
 20
25.8099891004619
 42
0.0
  0
VERTEX
  8
BottomGuard
 10
76.8788411212125
 20
25.0662587228644
 42
0.0
  0
VERTEX
  8
BottomGuard
 10
75.9895323751849
 20
24.4805631813215
 42
0.0
  0
VERTEX
  8
BottomGuard
 10
75.2389495279659
 20
24.038195840955
 42
0.0
  0
VERTEX
  8
BottomGuard
 10
74.6387794889248
 20
23.7235806353883
 42
0.0
  0
VERTEX
  8
BottomGuard
 10
74.1994872125201
 20
23.5203526944983
 42
0.0
  0
VERTEX
  8
BottomGuard
 10
73.930267133928
 20
23.4114421172473
 42
0.0
  0
VERTEX
  8
BottomGuard
 10
73.838999950876
 20
23.3791605730532
 42
0.0
  0
VERTEX
  8
BottomGuard
 10
71.8562034366457
 20
22.7513606553847
 42
-0.0168405422819
  0
VERTEX
  8
BottomGuard
 10
73.2245439759414
 20
17.8634975163159
 42
0.0
  0
VERTEX
  8
BottomGuard
 10
75.245098411156
 20
18.3564219809175
 42
0.0
  0
VERTEX
  8
BottomGuard
 10
75.3398606668212
 20
18.37621874073
 42
0.0
  0
VERTEX
  8
BottomGuard
 10
75.626496552591
 20
18.4229181362636
 42
0.0
  0
VERTEX
  8
BottomGuard
 10
76.1074546604132
 20
18.4773111375345
 42
0.0
  0
VERTEX
  8
BottomGuard
 10
76.7837397048308
 20
18.5200351592726
 42
0.0
  0
VERTEX
  8
BottomGuard
 10
77.6549044957205
 20
18.5316705138658
 42
0.0
  0
VERTEX
  8
BottomGuard
 10
78.719047948756
 20
18.4928372226566
 42
0.0
  0
VERTEX
  8
BottomGuard
 10
79.9728191463386
 20
18.3842918229594
 42
0.0
  0
VERTEX
  8
BottomGuard
 10
81.4114274405686
 20
18.1870238079371
 42
0.0
  0
VERTEX
  8
BottomGuard
 10
82.0334115923636
 20
18.0698473296776
 42
-0.0111967302195
  0
VERTEX
  8
BottomGuard
 10
82.7601466191288
 20
14.3790866045207
 42
0.0
  0
VERTEX
  8
BottomGuard
 10
82.7601466191288
 20
14.3790866045207
 42
0.0
  0
VERTEX
  8
BottomGuard
 10
82.2290168625937
 20
14.0348544243508
 42
0.0
  0
VERTEX
  8
BottomGuard
 10
80.9725878208468
 20
13.306915857552
 42
0.0
  0
VERTEX
  8
BottomGuard
 10
79.8535617877589
 20
12.7311510992046
 42
0.0
  0
VERTEX
  8
BottomGuard
 10
78.8835789394005
 20
12.2917849796245
 42
0.0
  0
VERTEX
  8
BottomGuard
 10
78.0730355143101
 20
11.9722809414575
 42
0.0
  0
VERTEX
  8
BottomGuard
 10
77.4310379029982
 20
11.7554264501359
 42
0.0
  0
VERTEX
  8
BottomGuard
 10
76.9653621892655
 20
11.6234210346914
 42
0.0
  0
VERTEX
  8
BottomGuard
 10
76.6824192886966
 20
11.5579666263457
 42
0.0
  0
VERTEX
  8
BottomGuard
 10
76.5872258100204
 20
11.5403598544852
 42
0.0
  0
VERTEX
  8
BottomGuard
 10
74.5306312668697
 20
11.2304669075648
 42
-0.0168405422819
  0
VERTEX
  8
BottomGuard
 10
75.1174950081456
 20
6.1887258544241
 42
0.0
  0
VERTEX
  8
BottomGuard
 10
77.1902834402701
 20
6.3594972487478
 42
0.0
  0
VERTEX
  8
BottomGuard
 10
77.2869759108498
 20
6.3642261948252
 42
0.0
  0
VERTEX
  8
BottomGuard
 10
77.5773882281789
 20
6.3655109118548
 42
0.0
  0
VERTEX
  8
BottomGuard
 10
78.0609338836453
 20
6.3439958207161
 42
0.0
  0
VERTEX
  8
BottomGuard
 10
78.7355762464204
 20
6.280399549712
 42
0.0
  0
VERTEX
  8
BottomGuard
 10
79.5978357235905
 20
6.1556114557577
 42
0.0
  0
VERTEX
  8
BottomGuard
 10
80.6428029397382
 20
5.9507875550017
 42
0.0
  0
VERTEX
  8
BottomGuard
 10
81.8641578918304
 20
5.6474455027189
 42
0.0
  0
VERTEX
  8
BottomGuard
 10
83.2541950143252
 20
5.2275582653987
 42
0.0
  0
VERTEX
  8
BottomGuard
 10
83.8501910693963
 20
5.0145246659802
 42
-0.0111967302195
  0
VERTEX
  8
BottomGuard
 10
83.9906166024029
 20
1.2555169246784
 42
0.0
  0
VERTEX
  8
BottomGuard
 10
83.9906166024029
 20
1.2555169246784
 42
0.0
  0
VERTEX
  8
BottomGuard
 10
83.4121761575756
 20
0.9986098131974
 42
0.0
  0
VERTEX
  8
BottomGuard
 10
82.0573411619777
 20
0.4761821831074
 42
0.0
  0
VERTEX
  8
BottomGuard
 10
80.8620227443134
 20
0.0825602832142
 42
0.0
  0
VERTEX
  8
BottomGuard
 10
79.8352499905391
 20
-0.1996577623664
 42
0.0
  0
VERTEX
  8
BottomGuard
 10
78.9847042567424
 20
-0.3884312485411
 42
0.0
  0
VERTEX
  8
BottomGuard
 10
78.3166871850183
 20
-0.5021853483425
 42
0.0
  0
VERTEX
  8
BottomGuard
 10
77.8360945155187
 20
-0.5597178269124
 42
0.0
  0
VERTEX
  8
BottomGuard
 10
77.5463957862185
 20
-0.5801043615886
 42
0.0
  0
VERTEX
  8
BottomGuard
 10
77.4496199912923
 20
-0.5826028239587
 42
0.0
  0
VERTEX
  8
BottomGuard
 10
75.3698676023195
 20
-0.5669582073022
 42
-0.0168405422819
  0
VERTEX
  8
BottomGuard
 10
75.1608040125763
 20
-5.6384327772071
 42
0.0
  0
VERTEX
  8
BottomGuard
 10
77.2347875112214
 20
-5.7940194116474
 42
0.0
  0
VERTEX
  8
BottomGuard
 10
77.3310293071862
 20
-5.8044747216521
 42
0.0
  0
VERTEX
  8
BottomGuard
 10
77.6180671409985
 20
-5.8486363171233
 42
0.0
  0
VERTEX
  8
BottomGuard
 10
78.0922938452755
 20
-5.9455297277233
 42
0.0
  0
VERTEX
  8
BottomGuard
 10
78.748681592427
 20
-6.1138803402136
 42
0.0
  0
VERTEX
  8
BottomGuard
 10
79.5808040658744
 20
-6.3720191856944
 42
0.0
  0
VERTEX
  8
BottomGuard
 10
80.5808644842255
 20
-6.7377902517888
 42
0.0
  0
VERTEX
  8
BottomGuard
 10
81.739729378462
 20
-7.2284596685955
 42
0.0
  0
VERTEX
  8
BottomGuard
 10
83.0469680019972
 20
-7.8606271109049
 42
0.0
  0
VERTEX
  8
BottomGuard
 10
83.602300559471
 20
-8.1642722372468
 42
-0.0111967302195
  0
VERTEX
  8
BottomGuard
 10
83.1529588560508
 20
-11.8989677486714
 42
0.0
  0
VERTEX
  8
BottomGuard
 10
83.1529588560508
 20
-11.8989677486714
 42
0.0
  0
VERTEX
  8
BottomGuard
 10
82.5414508464166
 20
-12.0622238857528
 42
0.0
  0
VERTEX
  8
BottomGuard
 10
81.1215704309989
 20
-12.3662766770434
 42
0.0
  0
VERTEX
  8
BottomGuard
 10
79.8793923352353
 20
-12.5680634409507
 42
0.0
  0
VERTEX
  8
BottomGuard
 10
78.8211122289066
 20
-12.6861842676217
 42
0.0
  0
VERTEX
  8
BottomGuard
 10
77.9515074451692
 20
-12.7395789720712
 42
0.0
  0
VERTEX
  8
BottomGuard
 10
77.2739197103602
 20
-12.747431676887
 42
0.0
  0
VERTEX
  8
BottomGuard
 10
76.7902438716125
 20
-12.7290745780206
 42
0.0
  0
VERTEX
  8
BottomGuard
 10
76.5009226577513
 20
-12.7038912548845
 42
0.0
  0
VERTEX
  8
BottomGuard
 10
76.4049474878266
 20
-12.6912198873287
 42
0.0
  0
VERTEX
  8
BottomGuard
 10
74.3532476591507
 20
-12.350422929479
 42
-0.0168405422819
  0
VERTEX
  8
BottomGuard
 10
73.3534045778102
 20
-17.3267544809779
 42
0.0
  0
VERTEX
  8
BottomGuard
 10
75.3775147860825
 20
-17.8048680848799
 42
0.0
  0
VERTEX
  8
BottomGuard
 10
75.4709361150075
 20
-17.830250206535
 42
0.0
  0
VERTEX
  8
BottomGuard
 10
75.7475316412108
 20
-17.9187707094628
 42
0.0
  0
VERTEX
  8
BottomGuard
 10
76.2007623589709
 20
-18.0886566021843
 42
0.0
  0
VERTEX
  8
BottomGuard
 10
76.8227330457378
 20
-18.3576162053576
 42
0.0
  0
VERTEX
  8
BottomGuard
 10
77.6042288985101
 20
-18.7427495672753
 42
0.0
  0
VERTEX
  8
BottomGuard
 10
78.5347577125545
 20
-19.2604613011366
 42
0.0
  0
VERTEX
  8
BottomGuard
 10
79.6025974491871
 20
-19.9263761729869
 42
0.0
  0
VERTEX
  8
BottomGuard
 10
80.7948490203749
 20
-20.7552577598125
 42
0.0
  0
VERTEX
  8
BottomGuard
 10
81.2958439496433
 20
-21.1420376623266
 42
-0.0111967302195
  0
VERTEX
  8
BottomGuard
 10
80.2677992938142
 20
-24.7604603456389
 42
0.0
  0
VERTEX
  8
BottomGuard
 10
80.2677992938142
 20
-24.7604603456389
 42
0.0
  0
VERTEX
  8
BottomGuard
 10
79.6382810760491
 20
-24.8260456004099
 42
0.0
  0
VERTEX
  8
BottomGuard
 10
78.1883174089522
 20
-24.9042367640861
 42
0.0
  0
VERTEX
  8
BottomGuard
 10
76.9298661823597
 20
-24.9092197321883
 42
0.0
  0
VERTEX
  8
BottomGuard
 10
75.8661370919247
 20
-24.8603348131764
 42
0.0
  0
VERTEX
  8
BottomGuard
 10
74.998885814075
 20
-24.7770359810703
 42
0.0
  0
VERTEX
  8
BottomGuard
 10
74.3284118749969
 20
-24.6787939312464
 42
0.0
  0
VERTEX
  8
BottomGuard
 10
73.853562571379
 20
-24.5849992676415
 42
0.0
  0
VERTEX
  8
BottomGuard
 10
73.5717429214443
 20
-24.5148661836874
 42
0.0
  0
VERTEX
  8
BottomGuard
 10
73.4789316037279
 20
-24.4873369973288
 42
0.0
  0
VERTEX
  8
BottomGuard
 10
71.5058039943322
 20
-23.8297792504283
 42
-0.0168405422819
  0
VERTEX
  8
BottomGuard
 10
69.7398008763459
 20
-28.5884339852258
 42
0.0
  0
VERTEX
  8
BottomGuard
 10
71.6641974832813
 20
-29.3773018148932
 42
0.0
  0
VERTEX
  8
BottomGuard
 10
71.7524980020006
 20
-29.4169857561253
 42
0.0
  0
VERTEX
  8
BottomGuard
 10
72.0118405207718
 20
-29.5476854979449
 42
0.0
  0
VERTEX
  8
BottomGuard
 10
72.4329152075573
 20
-29.78638071829
 42
0.0
  0
VERTEX
  8
BottomGuard
 10
73.0051538514291
 20
-30.1493266340905
 42
0.0
  0
VERTEX
  8
BottomGuard
 10
73.7167800619949
 20
-30.6519712508904
 42
0.0
  0
VERTEX
  8
BottomGuard
 10
74.5548645640827
 20
-31.308875871444
 42
0.0
  0
VERTEX
  8
BottomGuard
 10
75.5053853848387
 20
-32.1336391641484
 42
0.0
  0
VERTEX
  8
BottomGuard
 10
76.5532927131405
 20
-33.1388250799221
 42
0.0
  0
VERTEX
  8
BottomGuard
 10
76.987613856338
 20
-33.5992159537598
 42
-0.0111967302195
  0
VERTEX
  8
BottomGuard
 10
75.406180119411
 20
-37.0122682336402
 42
0.0
  0
VERTEX
  8
BottomGuard
 10
75.406180119411
 20
-37.0122682336402
 42
0.0
  0
VERTEX
  8
BottomGuard
 10
74.7741525212876
 20
-36.9785676794634
 42
0.0
  0
VERTEX
  8
BottomGuard
 10
73.3298085201488
 20
-36.8289718895738
 42
0.0
  0
VERTEX
  8
BottomGuard
 10
72.0860714084864
 20
-36.6370283646587
 42
0.0
  0
VERTEX
  8
BottomGuard
 10
71.0430858744661
 20
-36.4223414089098
 42
0.0
  0
VERTEX
  8
BottomGuard
 10
70.1995427072066
 20
-36.2044001339475
 42
0.0
  0
VERTEX
  8
BottomGuard
 10
69.552691857415
 20
-36.0024823747972
 42
0.0
  0
VERTEX
  8
BottomGuard
 10
69.0983614547165
 20
-35.8355596823584
 42
0.0
  0
VERTEX
  8
BottomGuard
 10
68.8309827037954
 20
-35.7222037468716
 42
0.0
  0
VERTEX
  8
BottomGuard
 10
68.7436205609526
 20
-35.6804946016425
 42
0.0
  0
VERTEX
  8
BottomGuard
 10
66.8976501210156
 20
-34.7223673197289
 42
-0.0168405422819
  0
VERTEX
  8
BottomGuard
 10
64.4089718241767
 20
-39.1461713651847
 42
0.0
  0
VERTEX
  8
BottomGuard
 10
66.1862697986061
 20
-40.226368876549
 42
0.0
  0
VERTEX
  8
BottomGuard
 10
66.2672752552964
 20
-40.2793774870214
 42
0.0
  0
VERTEX
  8
BottomGuard
 10
66.5029788931148
 20
-40.4490382063215
 42
0.0
  0
VERTEX
  8
BottomGuard
 10
66.8815292926702
 20
-40.7506652857815
 42
0.0
  0
VERTEX
  8
BottomGuard
 10
67.3899454790836
 20
-41.1986605812137
 42
0.0
  0
VERTEX
  8
BottomGuard
 10
68.0141794483869
 20
-41.8064396742484
 42
0.0
  0
VERTEX
  8
BottomGuard
 10
68.7391832166338
 20
-42.5863620095949
 42
0.0
  0
VERTEX
  8
BottomGuard
 10
69.5489801443084
 20
-43.5496653136544
 42
0.0
  0
VERTEX
  8
BottomGuard
 10
70.4267402734962
 20
-44.7064045451091
 42
0.0
  0
VERTEX
  8
BottomGuard
 10
70.7836932026481
 20
-45.2290700390068
 42
-0.0111967302195
  0
VERTEX
  8
BottomGuard
 10
68.6878105317041
 20
-48.3527112410536
 42
0.0
  0
VERTEX
  8
BottomGuard
 10
68.6878105317041
 20
-48.3527112410536
 42
0.0
  0
VERTEX
  8
BottomGuard
 10
68.0688361702675
 20
-48.2205546974185
 42
0.0
  0
VERTEX
  8
BottomGuard
 10
66.6656763778978
 20
-47.8468554987902
 42
0.0
  0
VERTEX
  8
BottomGuard
 10
65.4672783165814
 20
-47.4627117674652
 42
0.0
  0
VERTEX
  8
BottomGuard
 10
64.4707181042938
 20
-47.087509080335
 42
0.0
  0
VERTEX
  8
BottomGuard
 10
63.6716538799619
 20
-46.7402918000117
 42
0.0
  0
VERTEX
  8
BottomGuard
 10
63.0643537341534
 20
-46.4396702168919
 42
0.0
  0
VERTEX
  8
BottomGuard
 10
62.641729354725
 20
-46.2037296862917
 42
0.0
  0
VERTEX
  8
BottomGuard
 10
62.3953752550443
 20
-46.0499420986106
 42
0.0
  0
VERTEX
  8
BottomGuard
 10
62.3156134329703
 20
-45.9950800120913
 42
0.0
  0
VERTEX
  8
BottomGuard
 10
60.6422540811478
 20
-44.7599754686875
 42
-0.0168405422819
  0
VERTEX
  8
BottomGuard
 10
57.4921801245742
 20
-48.7400000874386
 42
0.0
  0
VERTEX
  8
BottomGuard
 10
59.0786164918534
 20
-50.0849292327999
 42
0.0
  0
VERTEX
  8
BottomGuard
 10
59.1503322633292
 20
-50.1499572645973
 42
0.0
  0
VERTEX
  8
BottomGuard
 10
59.3565932143762
 20
-50.3544013513972
 42
0.0
  0
VERTEX
  8
BottomGuard
 10
59.6832981595278
 20
-50.7115332302328
 42
0.0
  0
VERTEX
  8
BottomGuard
 10
60.1153729946366
 20
-51.233546774312
 42
0.0
  0
VERTEX
  8
BottomGuard
 10
60.6368440106395
 20
-51.9314948052078
 42
0.0
  0
VERTEX
  8
BottomGuard
 10
61.2309150461216
 20
-52.8152305790371
 42
0.0
  0
VERTEX
  8
BottomGuard
 10
61.8800481927935
 20
-53.8933541700854
 42
0.0
  0
VERTEX
  8
BottomGuard
 10
62.5660477553679
 20
-55.1731639583454
 42
0.0
  0
VERTEX
  8
BottomGuard
 10
62.8368431046997
 20
-55.745234313216
 42
-0.0111967302195
  0
VERTEX
  8
BottomGuard
 10
60.2781190869331
 20
-58.502550024264
 42
0.0
  0
VERTEX
  8
BottomGuard
 10
60.2781190869331
 20
-58.502550024264
 42
0.0
  0
VERTEX
  8
BottomGuard
 10
59.6874391652199
 20
-58.2751916238772
 42
0.0
  0
VERTEX
  8
BottomGuard
 10
58.3600140325279
 20
-57.686590731017
 42
0.0
  0
VERTEX
  8
BottomGuard
 10
57.2364635590823
 20
-57.1197056868473
 42
0.0
  0
VERTEX
  8
BottomGuard
 10
56.3108672883477
 20
-56.5932260037192
 42
0.0
  0
VERTEX
  8
BottomGuard
 10
55.5759576200884
 20
-56.1252823598247
 42
0.0
  0
VERTEX
  8
BottomGuard
 10
55.0231619233665
 20
-55.7333592538175
 42
0.0
  0
VERTEX
  8
BottomGuard
 10
54.6426499820396
 20
-55.4342105239611
 42
0.0
  0
VERTEX
  8
BottomGuard
 10
54.4233865891359
 20
-55.2437780448862
 42
0.0
  0
VERTEX
  8
BottomGuard
 10
54.3531890886044
 20
-55.1771139037236
 42
0.0
  0
VERTEX
  8
BottomGuard
 10
52.8936444856996
 20
-53.6954444717652
 42
-0.0168405422819
  0
VERTEX
  8
BottomGuard
 10
49.1597401446982
 20
-57.1336882487534
 42
0.0
  0
VERTEX
  8
BottomGuard
 10
50.5162515763843
 20
-58.7102324089891
 42
0.0
  0
VERTEX
  8
BottomGuard
 10
50.5769117823409
 20
-58.785678656153
 42
0.0
  0
VERTEX
  8
BottomGuard
 10
50.748651217461
 20
-59.0198720185246
 42
0.0
  0
VERTEX
  8
BottomGuard
 10
51.0154661481875
 20
-59.4237149246262
 42
0.0
  0
VERTEX
  8
BottomGuard
 10
51.3605605155773
 20
-60.0068930114336
 42
0.0
  0
VERTEX
  8
BottomGuard
 10
51.7664282312025
 20
-60.777824183313
 42
0.0
  0
VERTEX
  8
BottomGuard
 10
52.2149385334176
 20
-61.7436128879226
 42
0.0
  0
VERTEX
  8
BottomGuard
 10
52.6874240866663
 20
-62.9100097850611
 42
0.0
  0
VERTEX
  8
BottomGuard
 10
53.1647714966947
 20
-64.2813769656941
 42
0.0
  0
VERTEX
  8
BottomGuard
 10
53.3427413859876
 20
-64.8887659108081
 42
-0.0111967302195
  0
VERTEX
  8
BottomGuard
 10
50.384180298634
 20
-67.211861867045
 42
0.0
  0
VERTEX
  8
BottomGuard
 10
50.384180298634
 20
-67.211861867045
 42
0.0
  0
VERTEX
  8
BottomGuard
 10
49.8363393166711
 20
-66.8948999282835
 42
0.0
  0
VERTEX
  8
BottomGuard
 10
48.617334455895
 20
-66.1058906486279
 42
0.0
  0
VERTEX
  8
BottomGuard
 10
47.5962971118266
 20
-65.3702228827846
 42
0.0
  0
VERTEX
  8
BottomGuard
 10
46.7644560347084
 20
-64.7054298807432
 42
0.0
  0
VERTEX
  8
BottomGuard
 10
46.1117968375797
 20
-64.1282821988059
 42
0.0
  0
VERTEX
  8
BottomGuard
 10
45.6271172546215
 20
-63.6547080174996
 42
0.0
  0
VERTEX
  8
BottomGuard
 10
45.2980872182382
 20
-63.2997171229336
 42
0.0
  0
VERTEX
  8
BottomGuard
 10
45.1113135245383
 20
-63.0773288321089
 42
0.0
  0
VERTEX
  8
BottomGuard
 10
45.0524088409845
 20
-63.000504128704
 42
0.0
  0
VERTEX
  8
BottomGuard
 10
43.8426178190718
 20
-61.3087534269847
 42
-0.0168405422819
  0
VERTEX
  8
BottomGuard
 10
39.6168242106361
 20
-64.1205553895438
 42
0.0
  0
VERTEX
  8
BottomGuard
 10
40.7100088932777
 20
-65.8898948151787
 42
0.0
  0
VERTEX
  8
BottomGuard
 10
40.7581198781248
 20
-65.9739015407122
 42
0.0
  0
VERTEX
  8
BottomGuard
 10
40.8911090024547
 20
-66.2320775608307
 42
0.0
  0
VERTEX
  8
BottomGuard
 10
41.0914640496537
 20
-66.6726875415722
 42
0.0
  0
VERTEX
  8
BottomGuard
 10
41.3410805806967
 20
-67.3026703911535
 42
0.0
  0
VERTEX
  8
BottomGuard
 10
41.6213511857879
 20
-68.1276018199911
 42
0.0
  0
VERTEX
  8
BottomGuard
 10
41.913256942575
 20
-69.1516625322045
 42
0.0
  0
VERTEX
  8
BottomGuard
 10
42.19746073999
 20
-70.3776121727763
 42
0.0
  0
VERTEX
  8
BottomGuard
 10
42.4544021200123
 20
-71.8067691344885
 42
0.0
  0
VERTEX
  8
BottomGuard
 10
42.5351643399436
 20
-72.4345207382087
 42
-0.0111967302195
  0
VERTEX
  8
BottomGuard
 10
39.2496157758749
 20
-74.2661946072787
 42
0.0
  0
VERTEX
  8
BottomGuard
 10
39.2496157758749
 20
-74.2661946072787
 42
0.0
  0
VERTEX
  8
BottomGuard
 10
38.7581033968183
 20
-73.8674337850109
 42
0.0
  0
VERTEX
  8
BottomGuard
 10
37.6775347532757
 20
-72.8974441455969
 42
0.0
  0
VERTEX
  8
BottomGuard
 10
36.7841518666241
 20
-72.0111082400163
 42
0.0
  0
VERTEX
  8
BottomGuard
 10
36.0665486711632
 20
-71.2243713290933
 42
0.0
  0
VERTEX
  8
BottomGuard
 10
35.5122105806501
 20
-70.5522309004859
 42
0.0
  0
VERTEX
  8
BottomGuard
 10
35.1075815313473
 20
-70.0086666119267
 42
0.0
  0
VERTEX
  8
BottomGuard
 10
34.8381352113915
 20
-69.6065746066227
 42
0.0
  0
VERTEX
  8
BottomGuard
 10
34.6884502051005
 20
-69.3577064418327
 42
0.0
  0
VERTEX
  8
BottomGuard
 10
34.6422887673271
 20
-69.2726128553499
 42
0.0
  0
VERTEX
  8
BottomGuard
 10
33.7120403964321
 20
-67.4124374007447
 42
-0.0168405422819
  0
VERTEX
  8
BottomGuard
 10
29.0984105838066
 20
-69.5285616527209
 42
0.0
  0
VERTEX
  8
BottomGuard
 10
29.9013506824452
 20
-71.447129334995
 42
0.0
  0
VERTEX
  8
BottomGuard
 10
29.9357277940646
 20
-71.5376280145131
 42
0.0
  0
VERTEX
  8
BottomGuard
 10
30.0266919739977
 20
-71.8134295419261
 42
0.0
  0
VERTEX
  8
BottomGuard
 10
30.1556537314669
 20
-72.279957317281
 42
0.0
  0
VERTEX
  8
BottomGuard
 10
30.3036460387391
 20
-72.9412326610863
 42
0.0
  0
VERTEX
  8
BottomGuard
 10
30.4514183408342
 20
-73.7998517973136
 42
0.0
  0
VERTEX
  8
BottomGuard
 10
30.5795318636816
 20
-74.8569687437335
 42
0.0
  0
VERTEX
  8
BottomGuard
 10
30.6684558645522
 20
-76.1122841788941
 42
0.0
  0
VERTEX
  8
BottomGuard
 10
30.6986644650526
 20
-77.5640403341881
 42
0.0
  0
VERTEX
  8
BottomGuard
 10
30.6802303817332
 20
-78.1966972686428
 42
-0.0111967302195
  0
VERTEX
  8
BottomGuard
 10
27.1485954507073
 20
-79.4918471609122
 42
0.0
  0
VERTEX
  8
BottomGuard
 10
27.1485954507073
 20
-79.4918471609122
 42
0.0
  0
VERTEX
  8
BottomGuard
 10
26.7255143405654
 20
-79.0211062699939
 42
0.0
  0
VERTEX
  8
BottomGuard
 10
25.8099891004619
 20
-77.8940206349547
 42
0.0
  0
VERTEX
  8
BottomGuard
 10
25.0662587228644
 20
-76.8788411212125
 42
0.0
  0
VERTEX
  8
BottomGuard
 10
24.4805631813215
 20
-75.9895323751849
 42
0.0
  0
VERTEX
  8
BottomGuard
 10
24.038195840955
 20
-75.2389495279659
 42
0.0
  0
VERTEX
  8
BottomGuard
 10
23.7235806353883
 20
-74.6387794889248
 42
0.0
  0
VERTEX
  8
BottomGuard
 10
23.5203526944983
 20
-74.1994872125201
 42
0.0
  0
VERTEX
  8
BottomGuard
 10
23.4114421172473
 20
-73.930267133928
 42
0.0
  0
VERTEX
  8
BottomGuard
 10
23.3791605730532
 20
-73.838999950876
 42
0.0
  0
VERTEX
  8
BottomGuard
 10
22.7513606553847
 20
-71.8562034366457
 42
-0.0168405422819
  0
VERTEX
  8
BottomGuard
 10
17.8634975163159
 20
-73.2245439759414
 42
0.0
  0
VERTEX
  8
BottomGuard
 10
18.3564219809175
 20
-75.245098411156
 42
0.0
  0
VERTEX
  8
BottomGuard
 10
18.37621874073
 20
-75.3398606668212
 42
0.0
  0
VERTEX
  8
BottomGuard
 10
18.4229181362636
 20
-75.626496552591
 42
0.0
  0
VERTEX
  8
BottomGuard
 10
18.4773111375345
 20
-76.1074546604132
 42
0.0
  0
VERTEX
  8
BottomGuard
 10
18.5200351592726
 20
-76.7837397048308
 42
0.0
  0
VERTEX
  8
BottomGuard
 10
18.5316705138658
 20
-77.6549044957205
 42
0.0
  0
VERTEX
  8
BottomGuard
 10
18.4928372226566
 20
-78.719047948756
 42
0.0
  0
VERTEX
  8
BottomGuard
 10
18.3842918229594
 20
-79.9728191463386
 42
0.0
  0
VERTEX
  8
BottomGuard
 10
18.1870238079371
 20
-81.4114274405686
 42
0.0
  0
VERTEX
  8
BottomGuard
 10
18.0698473296776
 20
-82.0334115923636
 42
-0.0111967302195
  0
VERTEX
  8
BottomGuard
 10
14.3790866045207
 20
-82.7601466191288
 42
0.0
  0
VERTEX
  8
BottomGuard
 10
14.3790866045207
 20
-82.7601466191288
 42
0.0
  0
VERTEX
  8
BottomGuard
 10
14.0348544243508
 20
-82.2290168625937
 42
0.0
  0
VERTEX
  8
BottomGuard
 10
13.306915857552
 20
-80.9725878208468
 42
0.0
  0
VERTEX
  8
BottomGuard
 10
12.7311510992046
 20
-79.8535617877589
 42
0.0
  0
VERTEX
  8
BottomGuard
 10
12.2917849796245
 20
-78.8835789394005
 42
0.0
  0
VERTEX
  8
BottomGuard
 10
11.9722809414575
 20
-78.0730355143101
 42
0.0
  0
VERTEX
  8
BottomGuard
 10
11.7554264501359
 20
-77.4310379029982
 42
0.0
  0
VERTEX
  8
BottomGuard
 10
11.6234210346914
 20
-76.9653621892655
 42
0.0
  0
VERTEX
  8
BottomGuard
 10
11.5579666263457
 20
-76.6824192886966
 42
0.0
  0
VERTEX
  8
BottomGuard
 10
11.5403598544852
 20
-76.5872258100204
 42
0.0
  0
VERTEX
  8
BottomGuard
 10
11.2304669075648
 20
-74.5306312668697
 42
-0.0168405422819
  0
VERTEX
  8
BottomGuard
 10
6.1887258544241
 20
-75.1174950081456
 42
0.0
  0
VERTEX
  8
BottomGuard
 10
6.3594972487478
 20
-77.1902834402701
 42
0.0
  0
VERTEX
  8
BottomGuard
 10
6.3642261948252
 20
-77.2869759108498
 42
0.0
  0
VERTEX
  8
BottomGuard
 10
6.3655109118548
 20
-77.5773882281789
 42
0.0
  0
VERTEX
  8
BottomGuard
 10
6.3439958207161
 20
-78.0609338836453
 42
0.0
  0
VERTEX
  8
BottomGuard
 10
6.280399549712
 20
-78.7355762464204
 42
0.0
  0
VERTEX
  8
BottomGuard
 10
6.1556114557577
 20
-79.5978357235905
 42
0.0
  0
VERTEX
  8
BottomGuard
 10
5.9507875550017
 20
-80.6428029397382
 42
0.0
  0
VERTEX
  8
BottomGuard
 10
5.6474455027189
 20
-81.8641578918303
 42
0.0
  0
VERTEX
  8
BottomGuard
 10
5.2275582653988
 20
-83.2541950143252
 42
0.0
  0
VERTEX
  8
BottomGuard
 10
5.0145246659802
 20
-83.8501910693963
 42
-0.0111967302195
  0
VERTEX
  8
BottomGuard
 10
1.2555169246784
 20
-83.9906166024029
 42
0.0
  0
VERTEX
  8
BottomGuard
 10
1.2555169246784
 20
-83.9906166024029
 42
0.0
  0
VERTEX
  8
BottomGuard
 10
0.9986098131974
 20
-83.4121761575756
 42
0.0
  0
VERTEX
  8
BottomGuard
 10
0.4761821831074
 20
-82.0573411619777
 42
0.0
  0
VERTEX
  8
BottomGuard
 10
0.0825602832142
 20
-80.8620227443134
 42
0.0
  0
VERTEX
  8
BottomGuard
 10
-0.1996577623664
 20
-79.8352499905391
 42
0.0
  0
VERTEX
  8
BottomGuard
 10
-0.3884312485411
 20
-78.9847042567424
 42
0.0
  0
VERTEX
  8
BottomGuard
 10
-0.5021853483425
 20
-78.3166871850183
 42
0.0
  0
VERTEX
  8
BottomGuard
 10
-0.5597178269124
 20
-77.8360945155187
 42
0.0
  0
VERTEX
  8
BottomGuard
 10
-0.5801043615885
 20
-77.5463957862185
 42
0.0
  0
VERTEX
  8
BottomGuard
 10
-0.5826028239586
 20
-77.4496199912923
 42
0.0
  0
VERTEX
  8
BottomGuard
 10
-0.5669582073022
 20
-75.3698676023195
 42
-0.0168405422819
  0
VERTEX
  8
BottomGuard
 10
-5.6384327772071
 20
-75.1608040125764
 42
0.0
  0
VERTEX
  8
BottomGuard
 10
-5.7940194116474
 20
-77.2347875112214
 42
0.0
  0
VERTEX
  8
BottomGuard
 10
-5.804474721652
 20
-77.3310293071862
 42
0.0
  0
VERTEX
  8
BottomGuard
 10
-5.8486363171233
 20
-77.6180671409985
 42
0.0
  0
VERTEX
  8
BottomGuard
 10
-5.9455297277233
 20
-78.0922938452755
 42
0.0
  0
VERTEX
  8
BottomGuard
 10
-6.1138803402136
 20
-78.7486815924271
 42
0.0
  0
VERTEX
  8
BottomGuard
 10
-6.3720191856943
 20
-79.5808040658744
 42
0.0
  0
VERTEX
  8
BottomGuard
 10
-6.7377902517888
 20
-80.5808644842255
 42
0.0
  0
VERTEX
  8
BottomGuard
 10
-7.2284596685955
 20
-81.739729378462
 42
0.0
  0
VERTEX
  8
BottomGuard
 10
-7.8606271109049
 20
-83.0469680019972
 42
0.0
  0
VERTEX
  8
BottomGuard
 10
-8.1642722372468
 20
-83.602300559471
 42
-0.0111967302195
  0
VERTEX
  8
BottomGuard
 10
-11.8989677486714
 20
-83.1529588560508
 42
0.0
  0
VERTEX
  8
BottomGuard
 10
-11.8989677486714
 20
-83.1529588560508
 42
0.0
  0
VERTEX
  8
BottomGuard
 10
-12.0622238857528
 20
-82.5414508464166
 42
0.0
  0
VERTEX
  8
BottomGuard
 10
-12.3662766770434
 20
-81.121570430999
 42
0.0
  0
VERTEX
  8
BottomGuard
 10
-12.5680634409507
 20
-79.8793923352353
 42
0.0
  0
VERTEX
  8
BottomGuard
 10
-12.6861842676217
 20
-78.8211122289066
 42
0.0
  0
VERTEX
  8
BottomGuard
 10
-12.7395789720712
 20
-77.9515074451692
 42
0.0
  0
VERTEX
  8
BottomGuard
 10
-12.747431676887
 20
-77.2739197103602
 42
0.0
  0
VERTEX
  8
BottomGuard
 10
-12.7290745780206
 20
-76.7902438716125
 42
0.0
  0
VERTEX
  8
BottomGuard
 10
-12.7038912548845
 20
-76.5009226577513
 42
0.0
  0
VERTEX
  8
BottomGuard
 10
-12.6912198873287
 20
-76.4049474878266
 42
0.0
  0
VERTEX
  8
BottomGuard
 10
-12.350422929479
 20
-74.3532476591507
 42
-0.0168405422819
  0
VERTEX
  8
BottomGuard
 10
-17.3267544809779
 20
-73.3534045778102
 42
0.0
  0
VERTEX
  8
BottomGuard
 10
-17.8048680848799
 20
-75.3775147860826
 42
0.0
  0
VERTEX
  8
BottomGuard
 10
-17.830250206535
 20
-75.4709361150075
 42
0.0
  0
VERTEX
  8
BottomGuard
 10
-17.9187707094628
 20
-75.7475316412108
 42
0.0
  0
VERTEX
  8
BottomGuard
 10
-18.0886566021843
 20
-76.2007623589709
 42
0.0
  0
VERTEX
  8
BottomGuard
 10
-18.3576162053576
 20
-76.8227330457378
 42
0.0
  0
VERTEX
  8
BottomGuard
 10
-18.7427495672753
 20
-77.6042288985101
 42
0.0
  0
VERTEX
  8
BottomGuard
 10
-19.2604613011366
 20
-78.5347577125545
 42
0.0
  0
VERTEX
  8
BottomGuard
 10
-19.9263761729869
 20
-79.6025974491871
 42
0.0
  0
VERTEX
  8
BottomGuard
 10
-20.7552577598124
 20
-80.794849020375
 42
0.0
  0
VERTEX
  8
BottomGuard
 10
-21.1420376623266
 20
-81.2958439496433
 42
-0.0111967302195
  0
VERTEX
  8
BottomGuard
 10
-24.7604603456389
 20
-80.2677992938142
 42
0.0
  0
VERTEX
  8
BottomGuard
 10
-24.7604603456389
 20
-80.2677992938142
 42
0.0
  0
VERTEX
  8
BottomGuard
 10
-24.8260456004099
 20
-79.6382810760491
 42
0.0
  0
VERTEX
  8
BottomGuard
 10
-24.9042367640861
 20
-78.1883174089522
 42
0.0
  0
VERTEX
  8
BottomGuard
 10
-24.9092197321883
 20
-76.9298661823597
 42
0.0
  0
VERTEX
  8
BottomGuard
 10
-24.8603348131764
 20
-75.8661370919247
 42
0.0
  0
VERTEX
  8
BottomGuard
 10
-24.7770359810703
 20
-74.998885814075
 42
0.0
  0
VERTEX
  8
BottomGuard
 10
-24.6787939312464
 20
-74.3284118749969
 42
0.0
  0
VERTEX
  8
BottomGuard
 10
-24.5849992676415
 20
-73.853562571379
 42
0.0
  0
VERTEX
  8
BottomGuard
 10
-24.5148661836874
 20
-73.5717429214443
 42
0.0
  0
VERTEX
  8
BottomGuard
 10
-24.4873369973288
 20
-73.4789316037279
 42
0.0
  0
VERTEX
  8
BottomGuard
 10
-23.8297792504283
 20
-71.5058039943322
 42
-0.0168405422819
  0
VERTEX
  8
BottomGuard
 10
-28.5884339852258
 20
-69.739800876346
 42
0.0
  0
VERTEX
  8
BottomGuard
 10
-29.3773018148932
 20
-71.6641974832813
 42
0.0
  0
VERTEX
  8
BottomGuard
 10
-29.4169857561253
 20
-71.7524980020006
 42
0.0
  0
VERTEX
  8
BottomGuard
 10
-29.5476854979449
 20
-72.0118405207718
 42
0.0
  0
VERTEX
  8
BottomGuard
 10
-29.78638071829
 20
-72.4329152075573
 42
0.0
  0
VERTEX
  8
BottomGuard
 10
-30.1493266340905
 20
-73.0051538514291
 42
0.0
  0
VERTEX
  8
BottomGuard
 10
-30.6519712508904
 20
-73.7167800619949
 42
0.0
  0
VERTEX
  8
BottomGuard
 10
-31.308875871444
 20
-74.5548645640828
 42
0.0
  0
VERTEX
  8
BottomGuard
 10
-32.1336391641484
 20
-75.5053853848387
 42
0.0
  0
VERTEX
  8
BottomGuard
 10
-33.1388250799221
 20
-76.5532927131405
 42
0.0
  0
VERTEX
  8
BottomGuard
 10
-33.5992159537598
 20
-76.987613856338
 42
-0.0111967302195
  0
VERTEX
  8
BottomGuard
 10
-37.0122682336402
 20
-75.4061801194111
 42
0.0
  0
VERTEX
  8
BottomGuard
 10
-37.0122682336402
 20
-75.4061801194111
 42
0.0
  0
VERTEX
  8
BottomGuard
 10
-36.9785676794634
 20
-74.7741525212876
 42
0.0
  0
VERTEX
  8
BottomGuard
 10
-36.8289718895738
 20
-73.3298085201488
 42
0.0
  0
VERTEX
  8
BottomGuard
 10
-36.6370283646587
 20
-72.0860714084864
 42
0.0
  0
VERTEX
  8
BottomGuard
 10
-36.4223414089098
 20
-71.0430858744661
 42
0.0
  0
VERTEX
  8
BottomGuard
 10
-36.2044001339475
 20
-70.1995427072066
 42
0.0
  0
VERTEX
  8
BottomGuard
 10
-36.0024823747972
 20
-69.552691857415
 42
0.0
  0
VERTEX
  8
BottomGuard
 10
-35.8355596823584
 20
-69.0983614547165
 42
0.0
  0
VERTEX
  8
BottomGuard
 10
-35.7222037468715
 20
-68.8309827037954
 42
0.0
  0
VERTEX
  8
BottomGuard
 10
-35.6804946016425
 20
-68.7436205609526
 42
0.0
  0
VERTEX
  8
BottomGuard
 10
-34.7223673197289
 20
-66.8976501210156
 42
-0.0168405422819
  0
VERTEX
  8
BottomGuard
 10
-39.1461713651847
 20
-64.4089718241767
 42
0.0
  0
VERTEX
  8
BottomGuard
 10
-40.226368876549
 20
-66.1862697986061
 42
0.0
  0
VERTEX
  8
BottomGuard
 10
-40.2793774870214
 20
-66.2672752552964
 42
0.0
  0
VERTEX
  8
BottomGuard
 10
-40.4490382063215
 20
-66.5029788931148
 42
0.0
  0
VERTEX
  8
BottomGuard
 10
-40.7506652857815
 20
-66.8815292926702
 42
0.0
  0
VERTEX
  8
BottomGuard
 10
-41.1986605812137
 20
-67.3899454790836
 42
0.0
  0
VERTEX
  8
BottomGuard
 10
-41.8064396742484
 20
-68.0141794483869
 42
0.0
  0
VERTEX
  8
BottomGuard
 10
-42.5863620095949
 20
-68.7391832166338
 42
0.0
  0
VERTEX
  8
BottomGuard
 10
-43.5496653136544
 20
-69.5489801443084
 42
0.0
  0
VERTEX
  8
BottomGuard
 10
-44.7064045451091
 20
-70.4267402734962
 42
0.0
  0
VERTEX
  8
BottomGuard
 10
-45.2290700390068
 20
-70.7836932026481
 42
-0.0111967302195
  0
VERTEX
  8
BottomGuard
 10
-48.3527112410536
 20
-68.6878105317041
 42
0.0
  0
VERTEX
  8
BottomGuard
 10
-48.3527112410536
 20
-68.6878105317041
 42
0.0
  0
VERTEX
  8
BottomGuard
 10
-48.2205546974185
 20
-68.0688361702675
 42
0.0
  0
VERTEX
  8
BottomGuard
 10
-47.8468554987902
 20
-66.6656763778978
 42
0.0
  0
VERTEX
  8
BottomGuard
 10
-47.4627117674652
 20
-65.4672783165814
 42
0.0
  0
VERTEX
  8
BottomGuard
 10
-47.087509080335
 20
-64.4707181042938
 42
0.0
  0
VERTEX
  8
BottomGuard
 10
-46.7402918000117
 20
-63.6716538799619
 42
0.0
  0
VERTEX
  8
BottomGuard
 10
-46.4396702168919
 20
-63.0643537341534
 42
0.0
  0
VERTEX
  8
BottomGuard
 10
-46.2037296862917
 20
-62.641729354725
 42
0.0
  0
VERTEX
  8
BottomGuard
 10
-46.0499420986106
 20
-62.3953752550443
 42
0.0
  0
VERTEX
  8
BottomGuard
 10
-45.9950800120913
 20
-62.3156134329703
 42
0.0
  0
VERTEX
  8
BottomGuard
 10
-44.7599754686875
 20
-60.6422540811478
 42
-0.0168405422819
  0
VERTEX
  8
BottomGuard
 10
-48.7400000874386
 20
-57.4921801245742
 42
0.0
  0
VERTEX
  8
BottomGuard
 10
-50.0849292327999
 20
-59.0786164918534
 42
0.0
  0
VERTEX
  8
BottomGuard
 10
-50.1499572645973
 20
-59.1503322633292
 42
0.0
  0
VERTEX
  8
BottomGuard
 10
-50.3544013513972
 20
-59.3565932143762
 42
0.0
  0
VERTEX
  8
BottomGuard
 10
-50.7115332302328
 20
-59.6832981595278
 42
0.0
  0
VERTEX
  8
BottomGuard
 10
-51.233546774312
 20
-60.1153729946366
 42
0.0
  0
VERTEX
  8
BottomGuard
 10
-51.9314948052078
 20
-60.6368440106395
 42
0.0
  0
VERTEX
  8
BottomGuard
 10
-52.8152305790371
 20
-61.2309150461216
 42
0.0
  0
VERTEX
  8
BottomGuard
 10
-53.8933541700854
 20
-61.8800481927935
 42
0.0
  0
VERTEX
  8
BottomGuard
 10
-55.1731639583454
 20
-62.5660477553679
 42
0.0
  0
VERTEX
  8
BottomGuard
 10
-55.745234313216
 20
-62.8368431046997
 42
-0.0111967302195
  0
VERTEX
  8
BottomGuard
 10
-58.502550024264
 20
-60.2781190869331
 42
0.0
  0
VERTEX
  8
BottomGuard
 10
-58.502550024264
 20
-60.2781190869331
 42
0.0
  0
VERTEX
  8
BottomGuard
 10
-58.2751916238772
 20
-59.6874391652199
 42
0.0
  0
VERTEX
  8
BottomGuard
 10
-57.686590731017
 20
-58.3600140325279
 42
0.0
  0
VERTEX
  8
BottomGuard
 10
-57.1197056868473
 20
-57.2364635590823
 42
0.0
  0
VERTEX
  8
BottomGuard
 10
-56.5932260037192
 20
-56.3108672883477
 42
0.0
  0
VERTEX
  8
BottomGuard
 10
-56.1252823598247
 20
-55.5759576200884
 42
0.0
  0
VERTEX
  8
BottomGuard
 10
-55.7333592538175
 20
-55.0231619233665
 42
0.0
  0
VERTEX
  8
BottomGuard
 10
-55.4342105239611
 20
-54.6426499820396
 42
0.0
  0
VERTEX
  8
BottomGuard
 10
-55.2437780448862
 20
-54.4233865891359
 42
0.0
  0
VERTEX
  8
BottomGuard
 10
-55.1771139037236
 20
-54.3531890886044
 42
0.0
  0
VERTEX
  8
BottomGuard
 10
-53.6954444717652
 20
-52.8936444856996
 42
-0.0168405422819
  0
VERTEX
  8
BottomGuard
 10
-57.1336882487534
 20
-49.1597401446982
 42
0.0
  0
VERTEX
  8
BottomGuard
 10
-58.7102324089891
 20
-50.5162515763844
 42
0.0
  0
VERTEX
  8
BottomGuard
 10
-58.785678656153
 20
-50.5769117823409
 42
0.0
  0
VERTEX
  8
BottomGuard
 10
-59.0198720185246
 20
-50.748651217461
 42
0.0
  0
VERTEX
  8
BottomGuard
 10
-59.4237149246262
 20
-51.0154661481875
 42
0.0
  0
VERTEX
  8
BottomGuard
 10
-60.0068930114336
 20
-51.3605605155773
 42
0.0
  0
VERTEX
  8
BottomGuard
 10
-60.777824183313
 20
-51.7664282312025
 42
0.0
  0
VERTEX
  8
BottomGuard
 10
-61.7436128879226
 20
-52.2149385334176
 42
0.0
  0
VERTEX
  8
BottomGuard
 10
-62.9100097850611
 20
-52.6874240866663
 42
0.0
  0
VERTEX
  8
BottomGuard
 10
-64.2813769656941
 20
-53.1647714966947
 42
0.0
  0
VERTEX
  8
BottomGuard
 10
-64.888765910808
 20
-53.3427413859876
 42
-0.0111967302195
  0
VERTEX
  8
BottomGuard
 10
-67.211861867045
 20
-50.384180298634
 42
0.0
  0
VERTEX
  8
BottomGuard
 10
-67.211861867045
 20
-50.384180298634
 42
0.0
  0
VERTEX
  8
BottomGuard
 10
-66.8948999282835
 20
-49.8363393166711
 42
0.0
  0
VERTEX
  8
BottomGuard
 10
-66.1058906486279
 20
-48.617334455895
 42
0.0
  0
VERTEX
  8
BottomGuard
 10
-65.3702228827846
 20
-47.5962971118266
 42
0.0
  0
VERTEX
  8
BottomGuard
 10
-64.7054298807432
 20
-46.7644560347084
 42
0.0
  0
VERTEX
  8
BottomGuard
 10
-64.1282821988059
 20
-46.1117968375797
 42
0.0
  0
VERTEX
  8
BottomGuard
 10
-63.6547080174996
 20
-45.6271172546215
 42
0.0
  0
VERTEX
  8
BottomGuard
 10
-63.2997171229336
 20
-45.2980872182382
 42
0.0
  0
VERTEX
  8
BottomGuard
 10
-63.0773288321089
 20
-45.1113135245383
 42
0.0
  0
VERTEX
  8
BottomGuard
 10
-63.000504128704
 20
-45.0524088409845
 42
0.0
  0
VERTEX
  8
BottomGuard
 10
-61.3087534269847
 20
-43.8426178190718
 42
-0.0168405422819
  0
VERTEX
  8
BottomGuard
 10
-64.1205553895438
 20
-39.6168242106361
 42
0.0
  0
VERTEX
  8
BottomGuard
 10
-65.8898948151787
 20
-40.7100088932777
 42
0.0
  0
VERTEX
  8
BottomGuard
 10
-65.9739015407122
 20
-40.7581198781248
 42
0.0
  0
VERTEX
  8
BottomGuard
 10
-66.2320775608307
 20
-40.8911090024547
 42
0.0
  0
VERTEX
  8
BottomGuard
 10
-66.6726875415722
 20
-41.0914640496537
 42
0.0
  0
VERTEX
  8
BottomGuard
 10
-67.3026703911535
 20
-41.3410805806967
 42
0.0
  0
VERTEX
  8
BottomGuard
 10
-68.1276018199911
 20
-41.6213511857879
 42
0.0
  0
VERTEX
  8
BottomGuard
 10
-69.1516625322045
 20
-41.913256942575
 42
0.0
  0
VERTEX
  8
BottomGuard
 10
-70.3776121727763
 20
-42.1974607399901
 42
0.0
  0
VERTEX
  8
BottomGuard
 10
-71.8067691344885
 20
-42.4544021200123
 42
0.0
  0
VERTEX
  8
BottomGuard
 10
-72.4345207382087
 20
-42.5351643399436
 42
-0.0111967302195
  0
VERTEX
  8
BottomGuard
 10
-74.2661946072787
 20
-39.2496157758749
 42
0.0
  0
VERTEX
  8
BottomGuard
 10
-74.2661946072787
 20
-39.2496157758749
 42
0.0
  0
VERTEX
  8
BottomGuard
 10
-73.8674337850109
 20
-38.7581033968183
 42
0.0
  0
VERTEX
  8
BottomGuard
 10
-72.8974441455969
 20
-37.6775347532757
 42
0.0
  0
VERTEX
  8
BottomGuard
 10
-72.0111082400163
 20
-36.7841518666241
 42
0.0
  0
VERTEX
  8
BottomGuard
 10
-71.2243713290933
 20
-36.0665486711632
 42
0.0
  0
VERTEX
  8
BottomGuard
 10
-70.5522309004859
 20
-35.5122105806501
 42
0.0
  0
VERTEX
  8
BottomGuard
 10
-70.0086666119267
 20
-35.1075815313473
 42
0.0
  0
VERTEX
  8
BottomGuard
 10
-69.6065746066227
 20
-34.8381352113915
 42
0.0
  0
VERTEX
  8
BottomGuard
 10
-69.3577064418327
 20
-34.6884502051005
 42
0.0
  0
VERTEX
  8
BottomGuard
 10
-69.2726128553499
 20
-34.6422887673271
 42
0.0
  0
VERTEX
  8
BottomGuard
 10
-67.4124374007447
 20
-33.7120403964321
 42
-0.0168405422819
  0
VERTEX
  8
BottomGuard
 10
-69.5285616527209
 20
-29.0984105838066
 42
0.0
  0
VERTEX
  8
BottomGuard
 10
-71.447129334995
 20
-29.9013506824452
 42
0.0
  0
VERTEX
  8
BottomGuard
 10
-71.5376280145131
 20
-29.9357277940646
 42
0.0
  0
VERTEX
  8
BottomGuard
 10
-71.8134295419261
 20
-30.0266919739977
 42
0.0
  0
VERTEX
  8
BottomGuard
 10
-72.279957317281
 20
-30.1556537314669
 42
0.0
  0
VERTEX
  8
BottomGuard
 10
-72.9412326610863
 20
-30.3036460387391
 42
0.0
  0
VERTEX
  8
BottomGuard
 10
-73.7998517973136
 20
-30.4514183408342
 42
0.0
  0
VERTEX
  8
BottomGuard
 10
-74.8569687437335
 20
-30.5795318636816
 42
0.0
  0
VERTEX
  8
BottomGuard
 10
-76.112284178894
 20
-30.6684558645522
 42
0.0
  0
VERTEX
  8
BottomGuard
 10
-77.5640403341881
 20
-30.6986644650526
 42
0.0
  0
VERTEX
  8
BottomGuard
 10
-78.1966972686428
 20
-30.6802303817332
 42
-0.0111967302195
  0
VERTEX
  8
BottomGuard
 10
-79.4918471609122
 20
-27.1485954507073
 42
0.0
  0
VERTEX
  8
BottomGuard
 10
-79.4918471609122
 20
-27.1485954507073
 42
0.0
  0
VERTEX
  8
BottomGuard
 10
-79.0211062699939
 20
-26.7255143405654
 42
0.0
  0
VERTEX
  8
BottomGuard
 10
-77.8940206349547
 20
-25.8099891004619
 42
0.0
  0
VERTEX
  8
BottomGuard
 10
-76.8788411212125
 20
-25.0662587228644
 42
0.0
  0
VERTEX
  8
BottomGuard
 10
-75.9895323751849
 20
-24.4805631813215
 42
0.0
  0
VERTEX
  8
BottomGuard
 10
-75.2389495279659
 20
-24.038195840955
 42
0.0
  0
VERTEX
  8
BottomGuard
 10
-74.6387794889248
 20
-23.7235806353883
 42
0.0
  0
VERTEX
  8
BottomGuard
 10
-74.1994872125201
 20
-23.5203526944983
 42
0.0
  0
VERTEX
  8
BottomGuard
 10
-73.930267133928
 20
-23.4114421172473
 42
0.0
  0
VERTEX
  8
BottomGuard
 10
-73.838999950876
 20
-23.3791605730532
 42
0.0
  0
VERTEX
  8
BottomGuard
 10
-71.8562034366457
 20
-22.7513606553847
 42
-0.0168405422819
  0
VERTEX
  8
BottomGuard
 10
-73.2245439759414
 20
-17.8634975163159
 42
0.0
  0
VERTEX
  8
BottomGuard
 10
-75.245098411156
 20
-18.3564219809175
 42
0.0
  0
VERTEX
  8
BottomGuard
 10
-75.3398606668212
 20
-18.37621874073
 42
0.0
  0
VERTEX
  8
BottomGuard
 10
-75.626496552591
 20
-18.4229181362636
 42
0.0
  0
VERTEX
  8
BottomGuard
 10
-76.1074546604132
 20
-18.4773111375345
 42
0.0
  0
VERTEX
  8
BottomGuard
 10
-76.7837397048308
 20
-18.5200351592726
 42
0.0
  0
VERTEX
  8
BottomGuard
 10
-77.6549044957205
 20
-18.5316705138658
 42
0.0
  0
VERTEX
  8
BottomGuard
 10
-78.719047948756
 20
-18.4928372226566
 42
0.0
  0
VERTEX
  8
BottomGuard
 10
-79.9728191463386
 20
-18.3842918229594
 42
0.0
  0
VERTEX
  8
BottomGuard
 10
-81.4114274405686
 20
-18.1870238079371
 42
0.0
  0
VERTEX
  8
BottomGuard
 10
-82.0334115923636
 20
-18.0698473296776
 42
-0.0111967302195
  0
VERTEX
  8
BottomGuard
 10
-82.7601466191288
 20
-14.3790866045207
 42
0.0
  0
VERTEX
  8
BottomGuard
 10
-82.7601466191288
 20
-14.3790866045207
 42
0.0
  0
VERTEX
  8
BottomGuard
 10
-82.2290168625937
 20
-14.0348544243508
 42
0.0
  0
VERTEX
  8
BottomGuard
 10
-80.9725878208468
 20
-13.306915857552
 42
0.0
  0
VERTEX
  8
BottomGuard
 10
-79.8535617877589
 20
-12.7311510992046
 42
0.0
  0
VERTEX
  8
BottomGuard
 10
-78.8835789394005
 20
-12.2917849796245
 42
0.0
  0
VERTEX
  8
BottomGuard
 10
-78.0730355143101
 20
-11.9722809414575
 42
0.0
  0
VERTEX
  8
BottomGuard
 10
-77.4310379029982
 20
-11.7554264501359
 42
0.0
  0
VERTEX
  8
BottomGuard
 10
-76.9653621892655
 20
-11.6234210346914
 42
0.0
  0
VERTEX
  8
BottomGuard
 10
-76.6824192886966
 20
-11.5579666263457
 42
0.0
  0
VERTEX
  8
BottomGuard
 10
-76.5872258100204
 20
-11.5403598544852
 42
0.0
  0
VERTEX
  8
BottomGuard
 10
-74.5306312668696
 20
-11.2304669075648
 42
-0.0168405422819
  0
VERTEX
  8
BottomGuard
 10
-75.1174950081456
 20
-6.1887258544241
 42
0.0
  0
VERTEX
  8
BottomGuard
 10
-77.1902834402701
 20
-6.3594972487478
 42
0.0
  0
VERTEX
  8
BottomGuard
 10
-77.2869759108498
 20
-6.3642261948252
 42
0.0
  0
VERTEX
  8
BottomGuard
 10
-77.5773882281789
 20
-6.3655109118548
 42
0.0
  0
VERTEX
  8
BottomGuard
 10
-78.0609338836453
 20
-6.3439958207161
 42
0.0
  0
VERTEX
  8
BottomGuard
 10
-78.7355762464204
 20
-6.280399549712
 42
0.0
  0
VERTEX
  8
BottomGuard
 10
-79.5978357235905
 20
-6.1556114557577
 42
0.0
  0
VERTEX
  8
BottomGuard
 10
-80.6428029397382
 20
-5.9507875550017
 42
0.0
  0
VERTEX
  8
BottomGuard
 10
-81.8641578918303
 20
-5.6474455027189
 42
0.0
  0
VERTEX
  8
BottomGuard
 10
-83.2541950143252
 20
-5.2275582653988
 42
0.0
  0
VERTEX
  8
BottomGuard
 10
-83.8501910693963
 20
-5.0145246659802
 42
-0.0111967302195
  0
VERTEX
  8
BottomGuard
 10
-83.9906166024029
 20
-1.2555169246784
 42
0.0
  0
VERTEX
  8
BottomGuard
 10
-83.9906166024029
 20
-1.2555169246784
 42
0.0
  0
VERTEX
  8
BottomGuard
 10
-83.4121761575756
 20
-0.9986098131974
 42
0.0
  0
VERTEX
  8
BottomGuard
 10
-82.0573411619777
 20
-0.4761821831074
 42
0.0
  0
VERTEX
  8
BottomGuard
 10
-80.8620227443134
 20
-0.0825602832142
 42
0.0
  0
VERTEX
  8
BottomGuard
 10
-79.8352499905391
 20
0.1996577623664
 42
0.0
  0
VERTEX
  8
BottomGuard
 10
-78.9847042567424
 20
0.3884312485411
 42
0.0
  0
VERTEX
  8
BottomGuard
 10
-78.3166871850183
 20
0.5021853483425
 42
0.0
  0
VERTEX
  8
BottomGuard
 10
-77.8360945155187
 20
0.5597178269124
 42
0.0
  0
VERTEX
  8
BottomGuard
 10
-77.5463957862185
 20
0.5801043615885
 42
0.0
  0
VERTEX
  8
BottomGuard
 10
-77.4496199912923
 20
0.5826028239586
 42
0.0
  0
VERTEX
  8
BottomGuard
 10
-75.3698676023195
 20
0.5669582073022
 42
-0.0168405422819
  0
VERTEX
  8
BottomGuard
 10
-75.1608040125763
 20
5.6384327772071
 42
0.0
  0
VERTEX
  8
BottomGuard
 10
-77.2347875112214
 20
5.7940194116474
 42
0.0
  0
VERTEX
  8
BottomGuard
 10
-77.3310293071862
 20
5.804474721652
 42
0.0
  0
VERTEX
  8
BottomGuard
 10
-77.6180671409985
 20
5.8486363171233
 42
0.0
  0
VERTEX
  8
BottomGuard
 10
-78.0922938452755
 20
5.9455297277233
 42
0.0
  0
VERTEX
  8
BottomGuard
 10
-78.748681592427
 20
6.1138803402136
 42
0.0
  0
VERTEX
  8
BottomGuard
 10
-79.5808040658744
 20
6.3720191856943
 42
0.0
  0
VERTEX
  8
BottomGuard
 10
-80.5808644842255
 20
6.7377902517888
 42
0.0
  0
VERTEX
  8
BottomGuard
 10
-81.739729378462
 20
7.2284596685955
 42
0.0
  0
VERTEX
  8
BottomGuard
 10
-83.0469680019972
 20
7.8606271109049
 42
0.0
  0
VERTEX
  8
BottomGuard
 10
-83.602300559471
 20
8.1642722372468
 42
-0.0111967302195
  0
VERTEX
  8
BottomGuard
 10
-83.1529588560508
 20
11.8989677486713
 42
0.0
  0
VERTEX
  8
BottomGuard
 10
-83.1529588560508
 20
11.8989677486713
 42
0.0
  0
VERTEX
  8
BottomGuard
 10
-82.5414508464166
 20
12.0622238857528
 42
0.0
  0
VERTEX
  8
BottomGuard
 10
-81.1215704309989
 20
12.3662766770434
 42
0.0
  0
VERTEX
  8
BottomGuard
 10
-79.8793923352353
 20
12.5680634409507
 42
0.0
  0
VERTEX
  8
BottomGuard
 10
-78.8211122289066
 20
12.6861842676217
 42
0.0
  0
VERTEX
  8
BottomGuard
 10
-77.9515074451692
 20
12.7395789720712
 42
0.0
  0
VERTEX
  8
BottomGuard
 10
-77.2739197103602
 20
12.747431676887
 42
0.0
  0
VERTEX
  8
BottomGuard
 10
-76.7902438716125
 20
12.7290745780206
 42
0.0
  0
VERTEX
  8
BottomGuard
 10
-76.5009226577513
 20
12.7038912548845
 42
0.0
  0
VERTEX
  8
BottomGuard
 10
-76.4049474878266
 20
12.6912198873287
 42
0.0
  0
VERTEX
  8
BottomGuard
 10
-74.3532476591507
 20
12.350422929479
 42
-0.0168405422819
  0
VERTEX
  8
BottomGuard
 10
-73.3534045778102
 20
17.3267544809779
 42
0.0
  0
VERTEX
  8
BottomGuard
 10
-75.3775147860825
 20
17.8048680848799
 42
0.0
  0
VERTEX
  8
BottomGuard
 10
-75.4709361150075
 20
17.830250206535
 42
0.0
  0
VERTEX
  8
BottomGuard
 10
-75.7475316412108
 20
17.9187707094628
 42
0.0
  0
VERTEX
  8
BottomGuard
 10
-76.2007623589709
 20
18.0886566021842
 42
0.0
  0
VERTEX
  8
BottomGuard
 10
-76.8227330457378
 20
18.3576162053576
 42
0.0
  0
VERTEX
  8
BottomGuard
 10
-77.6042288985101
 20
18.7427495672753
 42
0.0
  0
VERTEX
  8
BottomGuard
 10
-78.5347577125545
 20
19.2604613011366
 42
0.0
  0
VERTEX
  8
BottomGuard
 10
-79.6025974491871
 20
19.9263761729869
 42
0.0
  0
VERTEX
  8
BottomGuard
 10
-80.7948490203749
 20
20.7552577598124
 42
0.0
  0
VERTEX
  8
BottomGuard
 10
-81.2958439496433
 20
21.1420376623266
 42
-0.0111967302195
  0
VERTEX
  8
BottomGuard
 10
-80.2677992938142
 20
24.7604603456389
 42
0.0
  0
VERTEX
  8
BottomGuard
 10
-80.2677992938142
 20
24.7604603456389
 42
0.0
  0
VERTEX
  8
BottomGuard
 10
-79.6382810760491
 20
24.8260456004099
 42
0.0
  0
VERTEX
  8
BottomGuard
 10
-78.1883174089522
 20
24.9042367640861
 42
0.0
  0
VERTEX
  8
BottomGuard
 10
-76.9298661823597
 20
24.9092197321883
 42
0.0
  0
VERTEX
  8
BottomGuard
 10
-75.8661370919247
 20
24.8603348131764
 42
0.0
  0
VERTEX
  8
BottomGuard
 10
-74.998885814075
 20
24.7770359810703
 42
0.0
  0
VERTEX
  8
BottomGuard
 10
-74.3284118749969
 20
24.6787939312464
 42
0.0
  0
VERTEX
  8
BottomGuard
 10
-73.853562571379
 20
24.5849992676415
 42
0.0
  0
VERTEX
  8
BottomGuard
 10
-73.5717429214443
 20
24.5148661836874
 42
0.0
  0
VERTEX
  8
BottomGuard
 10
-73.4789316037279
 20
24.4873369973288
 42
0.0
  0
VERTEX
  8
BottomGuard
 10
-71.5058039943322
 20
23.8297792504283
 42
-0.0168405422819
  0
VERTEX
  8
BottomGuard
 10
-69.739800876346
 20
28.5884339852258
 42
0.0
  0
VERTEX
  8
BottomGuard
 10
-71.6641974832813
 20
29.3773018148932
 42
0.0
  0
VERTEX
  8
BottomGuard
 10
-71.7524980020006
 20
29.4169857561253
 42
0.0
  0
VERTEX
  8
BottomGuard
 10
-72.0118405207718
 20
29.5476854979449
 42
0.0
  0
VERTEX
  8
BottomGuard
 10
-72.4329152075573
 20
29.78638071829
 42
0.0
  0
VERTEX
  8
BottomGuard
 10
-73.0051538514291
 20
30.1493266340905
 42
0.0
  0
VERTEX
  8
BottomGuard
 10
-73.7167800619949
 20
30.6519712508904
 42
0.0
  0
VERTEX
  8
BottomGuard
 10
-74.5548645640828
 20
31.308875871444
 42
0.0
  0
VERTEX
  8
BottomGuard
 10
-75.5053853848387
 20
32.1336391641484
 42
0.0
  0
VERTEX
  8
BottomGuard
 10
-76.5532927131405
 20
33.1388250799221
 42
0.0
  0
VERTEX
  8
BottomGuard
 10
-76.987613856338
 20
33.5992159537598
 42
-0.0111967302195
  0
VERTEX
  8
BottomGuard
 10
-75.4061801194111
 20
37.0122682336402
 42
0.0
  0
VERTEX
  8
BottomGuard
 10
-75.4061801194111
 20
37.0122682336402
 42
0.0
  0
VERTEX
  8
BottomGuard
 10
-74.7741525212876
 20
36.9785676794634
 42
0.0
  0
VERTEX
  8
BottomGuard
 10
-73.3298085201488
 20
36.8289718895738
 42
0.0
  0
VERTEX
  8
BottomGuard
 10
-72.0860714084864
 20
36.6370283646587
 42
0.0
  0
VERTEX
  8
BottomGuard
 10
-71.0430858744661
 20
36.4223414089098
 42
0.0
  0
VERTEX
  8
BottomGuard
 10
-70.1995427072066
 20
36.2044001339475
 42
0.0
  0
VERTEX
  8
BottomGuard
 10
-69.552691857415
 20
36.0024823747972
 42
0.0
  0
VERTEX
  8
BottomGuard
 10
-69.0983614547165
 20
35.8355596823584
 42
0.0
  0
VERTEX
  8
BottomGuard
 10
-68.8309827037954
 20
35.7222037468715
 42
0.0
  0
VERTEX
  8
BottomGuard
 10
-68.7436205609526
 20
35.6804946016425
 42
0.0
  0
VERTEX
  8
BottomGuard
 10
-66.8976501210156
 20
34.7223673197289
 42
-0.0168405422819
  0
VERTEX
  8
BottomGuard
 10
-64.4089718241767
 20
39.1461713651847
 42
0.0
  0
VERTEX
  8
BottomGuard
 10
-66.1862697986061
 20
40.226368876549
 42
0.0
  0
VERTEX
  8
BottomGuard
 10
-66.2672752552964
 20
40.2793774870214
 42
0.0
  0
VERTEX
  8
BottomGuard
 10
-66.5029788931148
 20
40.4490382063215
 42
0.0
  0
VERTEX
  8
BottomGuard
 10
-66.8815292926702
 20
40.7506652857815
 42
0.0
  0
VERTEX
  8
BottomGuard
 10
-67.3899454790836
 20
41.1986605812137
 42
0.0
  0
VERTEX
  8
BottomGuard
 10
-68.0141794483869
 20
41.8064396742484
 42
0.0
  0
VERTEX
  8
BottomGuard
 10
-68.7391832166338
 20
42.5863620095949
 42
0.0
  0
VERTEX
  8
BottomGuard
 10
-69.5489801443084
 20
43.5496653136544
 42
0.0
  0
VERTEX
  8
BottomGuard
 10
-70.4267402734962
 20
44.7064045451091
 42
0.0
  0
VERTEX
  8
BottomGuard
 10
-70.7836932026481
 20
45.2290700390068
 42
-0.0111967302195
  0
VERTEX
  8
BottomGuard
 10
-68.6878105317041
 20
48.3527112410536
 42
0.0
  0
VERTEX
  8
BottomGuard
 10
-68.6878105317041
 20
48.3527112410536
 42
0.0
  0
VERTEX
  8
BottomGuard
 10
-68.0688361702675
 20
48.2205546974185
 42
0.0
  0
VERTEX
  8
BottomGuard
 10
-66.6656763778978
 20
47.8468554987902
 42
0.0
  0
VERTEX
  8
BottomGuard
 10
-65.4672783165814
 20
47.4627117674652
 42
0.0
  0
VERTEX
  8
BottomGuard
 10
-64.4707181042938
 20
47.087509080335
 42
0.0
  0
VERTEX
  8
BottomGuard
 10
-63.6716538799619
 20
46.7402918000117
 42
0.0
  0
VERTEX
  8
BottomGuard
 10
-63.0643537341534
 20
46.4396702168919
 42
0.0
  0
VERTEX
  8
BottomGuard
 10
-62.641729354725
 20
46.2037296862917
 42
0.0
  0
VERTEX
  8
BottomGuard
 10
-62.3953752550443
 20
46.0499420986106
 42
0.0
  0
VERTEX
  8
BottomGuard
 10
-62.3156134329703
 20
45.9950800120913
 42
0.0
  0
VERTEX
  8
BottomGuard
 10
-60.6422540811478
 20
44.7599754686875
 42
-0.0168405422819
  0
VERTEX
  8
BottomGuard
 10
-57.4921801245742
 20
48.7400000874386
 42
0.0
  0
VERTEX
  8
BottomGuard
 10
-59.0786164918534
 20
50.0849292327999
 42
0.0
  0
VERTEX
  8
BottomGuard
 10
-59.1503322633292
 20
50.1499572645973
 42
0.0
  0
VERTEX
  8
BottomGuard
 10
-59.3565932143762
 20
50.3544013513972
 42
0.0
  0
VERTEX
  8
BottomGuard
 10
-59.6832981595278
 20
50.7115332302328
 42
0.0
  0
VERTEX
  8
BottomGuard
 10
-60.1153729946367
 20
51.233546774312
 42
0.0
  0
VERTEX
  8
BottomGuard
 10
-60.6368440106395
 20
51.9314948052078
 42
0.0
  0
VERTEX
  8
BottomGuard
 10
-61.2309150461216
 20
52.8152305790371
 42
0.0
  0
VERTEX
  8
BottomGuard
 10
-61.8800481927935
 20
53.8933541700854
 42
0.0
  0
VERTEX
  8
BottomGuard
 10
-62.5660477553679
 20
55.1731639583454
 42
0.0
  0
VERTEX
  8
BottomGuard
 10
-62.8368431046997
 20
55.745234313216
 42
-0.0111967302195
  0
VERTEX
  8
BottomGuard
 10
-60.2781190869331
 20
58.502550024264
 42
0.0
  0
VERTEX
  8
BottomGuard
 10
-60.2781190869331
 20
58.502550024264
 42
0.0
  0
VERTEX
  8
BottomGuard
 10
-59.6874391652199
 20
58.2751916238772
 42
0.0
  0
VERTEX
  8
BottomGuard
 10
-58.3600140325279
 20
57.686590731017
 42
0.0
  0
VERTEX
  8
BottomGuard
 10
-57.2364635590823
 20
57.1197056868473
 42
0.0
  0
VERTEX
  8
BottomGuard
 10
-56.3108672883477
 20
56.5932260037192
 42
0.0
  0
VERTEX
  8
BottomGuard
 10
-55.5759576200884
 20
56.1252823598247
 42
0.0
  0
VERTEX
  8
BottomGuard
 10
-55.0231619233666
 20
55.7333592538175
 42
0.0
  0
VERTEX
  8
BottomGuard
 10
-54.6426499820396
 20
55.4342105239611
 42
0.0
  0
VERTEX
  8
BottomGuard
 10
-54.4233865891359
 20
55.2437780448862
 42
0.0
  0
VERTEX
  8
BottomGuard
 10
-54.3531890886044
 20
55.1771139037236
 42
0.0
  0
VERTEX
  8
BottomGuard
 10
-52.8936444856996
 20
53.6954444717652
 42
-0.0168405422819
  0
VERTEX
  8
BottomGuard
 10
-49.1597401446982
 20
57.1336882487534
 42
0.0
  0
VERTEX
  8
BottomGuard
 10
-50.5162515763844
 20
58.7102324089891
 42
0.0
  0
VERTEX
  8
BottomGuard
 10
-50.5769117823409
 20
58.785678656153
 42
0.0
  0
VERTEX
  8
BottomGuard
 10
-50.748651217461
 20
59.0198720185246
 42
0.0
  0
VERTEX
  8
BottomGuard
 10
-51.0154661481875
 20
59.4237149246261
 42
0.0
  0
VERTEX
  8
BottomGuard
 10
-51.3605605155773
 20
60.0068930114335
 42
0.0
  0
VERTEX
  8
BottomGuard
 10
-51.7664282312025
 20
60.777824183313
 42
0.0
  0
VERTEX
  8
BottomGuard
 10
-52.2149385334176
 20
61.7436128879226
 42
0.0
  0
VERTEX
  8
BottomGuard
 10
-52.6874240866663
 20
62.9100097850611
 42
0.0
  0
VERTEX
  8
BottomGuard
 10
-53.1647714966947
 20
64.2813769656941
 42
0.0
  0
VERTEX
  8
BottomGuard
 10
-53.3427413859876
 20
64.888765910808
 42
-0.0111967302195
  0
VERTEX
  8
BottomGuard
 10
-50.384180298634
 20
67.211861867045
 42
0.0
  0
VERTEX
  8
BottomGuard
 10
-50.384180298634
 20
67.211861867045
 42
0.0
  0
VERTEX
  8
BottomGuard
 10
-49.8363393166711
 20
66.8948999282835
 42
0.0
  0
VERTEX
  8
BottomGuard
 10
-48.617334455895
 20
66.1058906486279
 42
0.0
  0
VERTEX
  8
BottomGuard
 10
-47.5962971118266
 20
65.3702228827846
 42
0.0
  0
VERTEX
  8
BottomGuard
 10
-46.7644560347084
 20
64.7054298807432
 42
0.0
  0
VERTEX
  8
BottomGuard
 10
-46.1117968375797
 20
64.1282821988059
 42
0.0
  0
VERTEX
  8
BottomGuard
 10
-45.6271172546215
 20
63.6547080174995
 42
0.0
  0
VERTEX
  8
BottomGuard
 10
-45.2980872182382
 20
63.2997171229336
 42
0.0
  0
VERTEX
  8
BottomGuard
 10
-45.1113135245383
 20
63.0773288321089
 42
0.0
  0
VERTEX
  8
BottomGuard
 10
-45.0524088409845
 20
63.000504128704
 42
0.0
  0
VERTEX
  8
BottomGuard
 10
-43.8426178190718
 20
61.3087534269847
 42
-0.0168405422819
  0
VERTEX
  8
BottomGuard
 10
-39.6168242106361
 20
64.1205553895438
 42
0.0
  0
VERTEX
  8
BottomGuard
 10
-40.7100088932778
 20
65.8898948151787
 42
0.0
  0
VERTEX
  8
BottomGuard
 10
-40.7581198781248
 20
65.9739015407122
 42
0.0
  0
VERTEX
  8
BottomGuard
 10
-40.8911090024547
 20
66.2320775608307
 42
0.0
  0
VERTEX
  8
BottomGuard
 10
-41.0914640496537
 20
66.6726875415722
 42
0.0
  0
VERTEX
  8
BottomGuard
 10
-41.3410805806967
 20
67.3026703911535
 42
0.0
  0
VERTEX
  8
BottomGuard
 10
-41.6213511857879
 20
68.1276018199911
 42
0.0
  0
VERTEX
  8
BottomGuard
 10
-41.9132569425751
 20
69.1516625322045
 42
0.0
  0
VERTEX
  8
BottomGuard
 10
-42.1974607399901
 20
70.3776121727763
 42
0.0
  0
VERTEX
  8
BottomGuard
 10
-42.4544021200123
 20
71.8067691344885
 42
0.0
  0
VERTEX
  8
BottomGuard
 10
-42.5351643399436
 20
72.4345207382087
 42
-0.0111967302195
  0
VERTEX
  8
BottomGuard
 10
-39.2496157758749
 20
74.2661946072787
 42
0.0
  0
VERTEX
  8
BottomGuard
 10
-39.2496157758749
 20
74.2661946072787
 42
0.0
  0
VERTEX
  8
BottomGuard
 10
-38.7581033968183
 20
73.867433785011
 42
0.0
  0
VERTEX
  8
BottomGuard
 10
-37.6775347532757
 20
72.8974441455969
 42
0.0
  0
VERTEX
  8
BottomGuard
 10
-36.7841518666241
 20
72.0111082400163
 42
0.0
  0
VERTEX
  8
BottomGuard
 10
-36.0665486711632
 20
71.2243713290933
 42
0.0
  0
VERTEX
  8
BottomGuard
 10
-35.5122105806501
 20
70.5522309004859
 42
0.0
  0
VERTEX
  8
BottomGuard
 10
-35.1075815313473
 20
70.0086666119267
 42
0.0
  0
VERTEX
  8
BottomGuard
 10
-34.8381352113915
 20
69.6065746066227
 42
0.0
  0
VERTEX
  8
BottomGuard
 10
-34.6884502051005
 20
69.3577064418327
 42
0.0
  0
VERTEX
  8
BottomGuard
 10
-34.6422887673271
 20
69.2726128553499
 42
0.0
  0
VERTEX
  8
BottomGuard
 10
-33.7120403964321
 20
67.4124374007447
 42
-0.0168405422819
  0
VERTEX
  8
BottomGuard
 10
-29.0984105838066
 20
69.5285616527209
 42
0.0
  0
VERTEX
  8
BottomGuard
 10
-29.9013506824452
 20
71.447129334995
 42
0.0
  0
VERTEX
  8
BottomGuard
 10
-29.9357277940646
 20
71.5376280145131
 42
0.0
  0
VERTEX
  8
BottomGuard
 10
-30.0266919739977
 20
71.8134295419261
 42
0.0
  0
VERTEX
  8
BottomGuard
 10
-30.1556537314669
 20
72.279957317281
 42
0.0
  0
VERTEX
  8
BottomGuard
 10
-30.3036460387391
 20
72.9412326610863
 42
0.0
  0
VERTEX
  8
BottomGuard
 10
-30.4514183408342
 20
73.7998517973136
 42
0.0
  0
VERTEX
  8
BottomGuard
 10
-30.5795318636816
 20
74.8569687437335
 42
0.0
  0
VERTEX
  8
BottomGuard
 10
-30.6684558645522
 20
76.112284178894
 42
0.0
  0
VERTEX
  8
BottomGuard
 10
-30.6986644650526
 20
77.5640403341881
 42
0.0
  0
VERTEX
  8
BottomGuard
 10
-30.6802303817332
 20
78.1966972686428
 42
-0.0111967302195
  0
VERTEX
  8
BottomGuard
 10
-27.1485954507073
 20
79.4918471609122
 42
0.0
  0
VERTEX
  8
BottomGuard
 10
-27.1485954507073
 20
79.4918471609122
 42
0.0
  0
VERTEX
  8
BottomGuard
 10
-26.7255143405654
 20
79.0211062699939
 42
0.0
  0
VERTEX
  8
BottomGuard
 10
-25.8099891004619
 20
77.8940206349547
 42
0.0
  0
VERTEX
  8
BottomGuard
 10
-25.0662587228644
 20
76.8788411212125
 42
0.0
  0
VERTEX
  8
BottomGuard
 10
-24.4805631813215
 20
75.9895323751849
 42
0.0
  0
VERTEX
  8
BottomGuard
 10
-24.038195840955
 20
75.2389495279659
 42
0.0
  0
VERTEX
  8
BottomGuard
 10
-23.7235806353883
 20
74.6387794889247
 42
0.0
  0
VERTEX
  8
BottomGuard
 10
-23.5203526944983
 20
74.1994872125201
 42
0.0
  0
VERTEX
  8
BottomGuard
 10
-23.4114421172473
 20
73.930267133928
 42
0.0
  0
VERTEX
  8
BottomGuard
 10
-23.3791605730532
 20
73.838999950876
 42
0.0
  0
VERTEX
  8
BottomGuard
 10
-22.7513606553847
 20
71.8562034366457
 42
-0.0168405422819
  0
VERTEX
  8
BottomGuard
 10
-17.8634975163159
 20
73.2245439759414
 42
0.0
  0
VERTEX
  8
BottomGuard
 10
-18.3564219809175
 20
75.245098411156
 42
0.0
  0
VERTEX
  8
BottomGuard
 10
-18.37621874073
 20
75.3398606668212
 42
0.0
  0
VERTEX
  8
BottomGuard
 10
-18.4229181362636
 20
75.626496552591
 42
0.0
  0
VERTEX
  8
BottomGuard
 10
-18.4773111375345
 20
76.1074546604132
 42
0.0
  0
VERTEX
  8
BottomGuard
 10
-18.5200351592726
 20
76.7837397048308
 42
0.0
  0
VERTEX
  8
BottomGuard
 10
-18.5316705138658
 20
77.6549044957205
 42
0.0
  0
VERTEX
  8
BottomGuard
 10
-18.4928372226566
 20
78.719047948756
 42
0.0
  0
VERTEX
  8
BottomGuard
 10
-18.3842918229594
 20
79.9728191463386
 42
0.0
  0
VERTEX
  8
BottomGuard
 10
-18.1870238079371
 20
81.4114274405686
 42
0.0
  0
VERTEX
  8
BottomGuard
 10
-18.0698473296776
 20
82.0334115923636
 42
-0.0111967302195
  0
VERTEX
  8
BottomGuard
 10
-14.3790866045207
 20
82.7601466191288
 42
0.0
  0
VERTEX
  8
BottomGuard
 10
-14.3790866045207
 20
82.7601466191288
 42
0.0
  0
VERTEX
  8
BottomGuard
 10
-14.0348544243509
 20
82.2290168625937
 42
0.0
  0
VERTEX
  8
BottomGuard
 10
-13.306915857552
 20
80.9725878208468
 42
0.0
  0
VERTEX
  8
BottomGuard
 10
-12.7311510992046
 20
79.8535617877589
 42
0.0
  0
VERTEX
  8
BottomGuard
 10
-12.2917849796245
 20
78.8835789394005
 42
0.0
  0
VERTEX
  8
BottomGuard
 10
-11.9722809414575
 20
78.0730355143101
 42
0.0
  0
VERTEX
  8
BottomGuard
 10
-11.7554264501359
 20
77.4310379029982
 42
0.0
  0
VERTEX
  8
BottomGuard
 10
-11.6234210346914
 20
76.9653621892655
 42
0.0
  0
VERTEX
  8
BottomGuard
 10
-11.5579666263457
 20
76.6824192886965
 42
0.0
  0
VERTEX
  8
BottomGuard
 10
-11.5403598544852
 20
76.5872258100204
 42
0.0
  0
VERTEX
  8
BottomGuard
 10
-11.2304669075648
 20
74.5306312668696
 42
-0.0168405422819
  0
VERTEX
  8
BottomGuard
 10
-6.1887258544242
 20
75.1174950081456
 42
0.0
  0
VERTEX
  8
BottomGuard
 10
-6.3594972487478
 20
77.1902834402701
 42
0.0
  0
VERTEX
  8
BottomGuard
 10
-6.3642261948252
 20
77.2869759108498
 42
0.0
  0
VERTEX
  8
BottomGuard
 10
-6.3655109118548
 20
77.5773882281789
 42
0.0
  0
VERTEX
  8
BottomGuard
 10
-6.3439958207162
 20
78.0609338836453
 42
0.0
  0
VERTEX
  8
BottomGuard
 10
-6.280399549712
 20
78.7355762464204
 42
0.0
  0
VERTEX
  8
BottomGuard
 10
-6.1556114557577
 20
79.5978357235905
 42
0.0
  0
VERTEX
  8
BottomGuard
 10
-5.9507875550018
 20
80.6428029397382
 42
0.0
  0
VERTEX
  8
BottomGuard
 10
-5.647445502719
 20
81.8641578918303
 42
0.0
  0
VERTEX
  8
BottomGuard
 10
-5.2275582653988
 20
83.2541950143252
 42
0.0
  0
VERTEX
  8
BottomGuard
 10
-5.0145246659803
 20
83.8501910693963
 42
-0.0111967302195
  0
VERTEX
  8
BottomGuard
 10
-1.2555169246784
 20
83.9906166024029
 42
0.0
  0
VERTEX
  8
BottomGuard
 10
-1.2555169246784
 20
83.9906166024029
 42
0.0
  0
VERTEX
  8
BottomGuard
 10
-0.9986098131975
 20
83.4121761575756
 42
0.0
  0
VERTEX
  8
BottomGuard
 10
-0.4761821831074
 20
82.0573411619777
 42
0.0
  0
VERTEX
  8
BottomGuard
 10
-0.0825602832142
 20
80.8620227443134
 42
0.0
  0
VERTEX
  8
BottomGuard
 10
0.1996577623664
 20
79.8352499905391
 42
0.0
  0
VERTEX
  8
BottomGuard
 10
0.3884312485411
 20
78.9847042567424
 42
0.0
  0
VERTEX
  8
BottomGuard
 10
0.5021853483425
 20
78.3166871850183
 42
0.0
  0
VERTEX
  8
BottomGuard
 10
0.5597178269124
 20
77.8360945155187
 42
0.0
  0
VERTEX
  8
BottomGuard
 10
0.5801043615885
 20
77.5463957862185
 42
0.0
  0
VERTEX
  8
BottomGuard
 10
0.5826028239586
 20
77.4496199912923
 42
0.0
  0
VERTEX
  8
BottomGuard
 10
0.5669582073022
 20
75.3698676023195
 42
-0.0168405422819
  0
VERTEX
  8
BottomGuard
 10
5.6384327772071
 20
75.1608040125763
 42
0.0
  0
VERTEX
  8
BottomGuard
 10
5.7940194116474
 20
77.2347875112214
 42
0.0
  0
VERTEX
  8
BottomGuard
 10
5.804474721652
 20
77.3310293071862
 42
0.0
  0
VERTEX
  8
BottomGuard
 10
5.8486363171233
 20
77.6180671409985
 42
0.0
  0
VERTEX
  8
BottomGuard
 10
5.9455297277233
 20
78.0922938452755
 42
0.0
  0
VERTEX
  8
BottomGuard
 10
6.1138803402136
 20
78.748681592427
 42
0.0
  0
VERTEX
  8
BottomGuard
 10
6.3720191856943
 20
79.5808040658744
 42
0.0
  0
VERTEX
  8
BottomGuard
 10
6.7377902517888
 20
80.5808644842255
 42
0.0
  0
VERTEX
  8
BottomGuard
 10
7.2284596685955
 20
81.739729378462
 42
0.0
  0
VERTEX
  8
BottomGuard
 10
7.8606271109049
 20
83.0469680019972
 42
0.0
  0
VERTEX
  8
BottomGuard
 10
8.1642722372468
 20
83.602300559471
 42
-0.0111967302195
  0
VERTEX
  8
BottomGuard
 10
11.8989677486713
 20
83.1529588560508
 42
0.0
  0
VERTEX
  8
BottomGuard
 10
11.8989677486713
 20
83.1529588560508
 42
0.0
  0
VERTEX
  8
BottomGuard
 10
12.0622238857528
 20
82.5414508464166
 42
0.0
  0
VERTEX
  8
BottomGuard
 10
12.3662766770434
 20
81.1215704309989
 42
0.0
  0
VERTEX
  8
BottomGuard
 10
12.5680634409507
 20
79.8793923352353
 42
0.0
  0
VERTEX
  8
BottomGuard
 10
12.6861842676217
 20
78.8211122289066
 42
0.0
  0
VERTEX
  8
BottomGuard
 10
12.7395789720712
 20
77.9515074451692
 42
0.0
  0
VERTEX
  8
BottomGuard
 10
12.747431676887
 20
77.2739197103602
 42
0.0
  0
VERTEX
  8
BottomGuard
 10
12.7290745780206
 20
76.7902438716125
 42
0.0
  0
VERTEX
  8
BottomGuard
 10
12.7038912548845
 20
76.5009226577513
 42
0.0
  0
VERTEX
  8
BottomGuard
 10
12.6912198873287
 20
76.4049474878266
 42
0.0
  0
VERTEX
  8
BottomGuard
 10
12.350422929479
 20
74.3532476591507
 42
-0.0168405422819
  0
VERTEX
  8
BottomGuard
 10
17.3267544809779
 20
73.3534045778102
 42
0.0
  0
VERTEX
  8
BottomGuard
 10
17.8048680848799
 20
75.3775147860826
 42
0.0
  0
VERTEX
  8
BottomGuard
 10
17.830250206535
 20
75.4709361150075
 42
0.0
  0
VERTEX
  8
BottomGuard
 10
17.9187707094628
 20
75.7475316412108
 42
0.0
  0
VERTEX
  8
BottomGuard
 10
18.0886566021842
 20
76.2007623589709
 42
0.0
  0
VERTEX
  8
BottomGuard
 10
18.3576162053576
 20
76.8227330457378
 42
0.0
  0
VERTEX
  8
BottomGuard
 10
18.7427495672753
 20
77.6042288985101
 42
0.0
  0
VERTEX
  8
BottomGuard
 10
19.2604613011366
 20
78.5347577125545
 42
0.0
  0
VERTEX
  8
BottomGuard
 10
19.9263761729869
 20
79.6025974491871
 42
0.0
  0
VERTEX
  8
BottomGuard
 10
20.7552577598124
 20
80.794849020375
 42
0.0
  0
VERTEX
  8
BottomGuard
 10
21.1420376623266
 20
81.2958439496433
 42
-0.0111967302195
  0
VERTEX
  8
BottomGuard
 10
24.7604603456389
 20
80.2677992938142
 42
0.0
  0
VERTEX
  8
BottomGuard
 10
24.7604603456389
 20
80.2677992938142
 42
0.0
  0
VERTEX
  8
BottomGuard
 10
24.8260456004099
 20
79.6382810760491
 42
0.0
  0
VERTEX
  8
BottomGuard
 10
24.9042367640861
 20
78.1883174089522
 42
0.0
  0
VERTEX
  8
BottomGuard
 10
24.9092197321883
 20
76.9298661823597
 42
0.0
  0
VERTEX
  8
BottomGuard
 10
24.8603348131764
 20
75.8661370919247
 42
0.0
  0
VERTEX
  8
BottomGuard
 10
24.7770359810703
 20
74.998885814075
 42
0.0
  0
VERTEX
  8
BottomGuard
 10
24.6787939312464
 20
74.3284118749969
 42
0.0
  0
VERTEX
  8
BottomGuard
 10
24.5849992676415
 20
73.853562571379
 42
0.0
  0
VERTEX
  8
BottomGuard
 10
24.5148661836873
 20
73.5717429214443
 42
0.0
  0
VERTEX
  8
BottomGuard
 10
24.4873369973288
 20
73.4789316037279
 42
0.0
  0
VERTEX
  8
BottomGuard
 10
23.8297792504283
 20
71.5058039943322
 42
-0.0168405422819
  0
VERTEX
  8
BottomGuard
 10
28.5884339852258
 20
69.739800876346
 42
0.0
  0
VERTEX
  8
BottomGuard
 10
29.3773018148932
 20
71.6641974832813
 42
0.0
  0
VERTEX
  8
BottomGuard
 10
29.4169857561253
 20
71.7524980020006
 42
0.0
  0
VERTEX
  8
BottomGuard
 10
29.5476854979449
 20
72.0118405207718
 42
0.0
  0
VERTEX
  8
BottomGuard
 10
29.78638071829
 20
72.4329152075573
 42
0.0
  0
VERTEX
  8
BottomGuard
 10
30.1493266340905
 20
73.0051538514291
 42
0.0
  0
VERTEX
  8
BottomGuard
 10
30.6519712508904
 20
73.7167800619949
 42
0.0
  0
VERTEX
  8
BottomGuard
 10
31.308875871444
 20
74.5548645640828
 42
0.0
  0
VERTEX
  8
BottomGuard
 10
32.1336391641484
 20
75.5053853848387
 42
0.0
  0
VERTEX
  8
BottomGuard
 10
33.1388250799221
 20
76.5532927131405
 42
0.0
  0
VERTEX
  8
BottomGuard
 10
33.5992159537598
 20
76.987613856338
 42
-0.0111967302195
  0
VERTEX
  8
BottomGuard
 10
37.0122682336402
 20
75.4061801194111
 42
0.0
  0
VERTEX
  8
BottomGuard
 10
37.0122682336402
 20
75.4061801194111
 42
0.0
  0
VERTEX
  8
BottomGuard
 10
36.9785676794634
 20
74.7741525212876
 42
0.0
  0
VERTEX
  8
BottomGuard
 10
36.8289718895738
 20
73.3298085201488
 42
0.0
  0
VERTEX
  8
BottomGuard
 10
36.6370283646587
 20
72.0860714084864
 42
0.0
  0
VERTEX
  8
BottomGuard
 10
36.4223414089098
 20
71.0430858744661
 42
0.0
  0
VERTEX
  8
BottomGuard
 10
36.2044001339475
 20
70.1995427072066
 42
0.0
  0
VERTEX
  8
BottomGuard
 10
36.0024823747972
 20
69.552691857415
 42
0.0
  0
VERTEX
  8
BottomGuard
 10
35.8355596823584
 20
69.0983614547165
 42
0.0
  0
VERTEX
  8
BottomGuard
 10
35.7222037468715
 20
68.8309827037954
 42
0.0
  0
VERTEX
  8
BottomGuard
 10
35.6804946016425
 20
68.7436205609526
 42
0.0
  0
VERTEX
  8
BottomGuard
 10
34.7223673197289
 20
66.8976501210156
 42
-0.0168405422819
  0
VERTEX
  8
BottomGuard
 10
39.1461713651847
 20
64.4089718241767
 42
0.0
  0
VERTEX
  8
BottomGuard
 10
40.226368876549
 20
66.1862697986061
 42
0.0
  0
VERTEX
  8
BottomGuard
 10
40.2793774870214
 20
66.2672752552964
 42
0.0
  0
VERTEX
  8
BottomGuard
 10
40.4490382063215
 20
66.5029788931148
 42
0.0
  0
VERTEX
  8
BottomGuard
 10
40.7506652857815
 20
66.8815292926702
 42
0.0
  0
VERTEX
  8
BottomGuard
 10
41.1986605812137
 20
67.3899454790836
 42
0.0
  0
VERTEX
  8
BottomGuard
 10
41.8064396742484
 20
68.0141794483869
 42
0.0
  0
VERTEX
  8
BottomGuard
 10
42.5863620095949
 20
68.7391832166338
 42
0.0
  0
VERTEX
  8
BottomGuard
 10
43.5496653136544
 20
69.5489801443084
 42
0.0
  0
VERTEX
  8
BottomGuard
 10
44.7064045451091
 20
70.4267402734962
 42
0.0
  0
VERTEX
  8
BottomGuard
 10
45.2290700390068
 20
70.7836932026481
 42
-0.0111967302195
  0
VERTEX
  8
BottomGuard
 10
48.3527112410536
 20
68.6878105317041
 42
0.0
  0
VERTEX
  8
BottomGuard
 10
48.3527112410536
 20
68.6878105317041
 42
0.0
  0
VERTEX
  8
BottomGuard
 10
48.2205546974184
 20
68.0688361702675
 42
0.0
  0
VERTEX
  8
BottomGuard
 10
47.8468554987902
 20
66.6656763778978
 42
0.0
  0
VERTEX
  8
BottomGuard
 10
47.4627117674652
 20
65.4672783165814
 42
0.0
  0
VERTEX
  8
BottomGuard
 10
47.0875090803349
 20
64.4707181042938
 42
0.0
  0
VERTEX
  8
BottomGuard
 10
46.7402918000117
 20
63.6716538799619
 42
0.0
  0
VERTEX
  8
BottomGuard
 10
46.4396702168919
 20
63.0643537341534
 42
0.0
  0
VERTEX
  8
BottomGuard
 10
46.2037296862917
 20
62.641729354725
 42
0.0
  0
VERTEX
  8
BottomGuard
 10
46.0499420986106
 20
62.3953752550443
 42
0.0
  0
VERTEX
  8
BottomGuard
 10
45.9950800120913
 20
62.3156134329703
 42
0.0
  0
VERTEX
  8
BottomGuard
 10
44.7599754686875
 20
60.6422540811478
 42
-0.0168405422819
  0
VERTEX
  8
BottomGuard
 10
48.7400000874386
 20
57.4921801245742
 42
0.0
  0
VERTEX
  8
BottomGuard
 10
50.0849292327999
 20
59.0786164918534
 42
0.0
  0
VERTEX
  8
BottomGuard
 10
50.1499572645973
 20
59.1503322633292
 42
0.0
  0
VERTEX
  8
BottomGuard
 10
50.3544013513972
 20
59.3565932143763
 42
0.0
  0
VERTEX
  8
BottomGuard
 10
50.7115332302328
 20
59.6832981595278
 42
0.0
  0
VERTEX
  8
BottomGuard
 10
51.233546774312
 20
60.1153729946367
 42
0.0
  0
VERTEX
  8
BottomGuard
 10
51.9314948052078
 20
60.6368440106395
 42
0.0
  0
VERTEX
  8
BottomGuard
 10
52.8152305790371
 20
61.2309150461216
 42
0.0
  0
VERTEX
  8
BottomGuard
 10
53.8933541700854
 20
61.8800481927935
 42
0.0
  0
VERTEX
  8
BottomGuard
 10
55.1731639583454
 20
62.5660477553679
 42
0.0
  0
VERTEX
  8
BottomGuard
 10
55.745234313216
 20
62.8368431046997
 42
-0.0111967302195
  0
VERTEX
  8
BottomGuard
 10
58.502550024264
 20
60.2781190869331
 42
0.0
  0
VERTEX
  8
BottomGuard
 10
58.502550024264
 20
60.2781190869331
 42
0.0
  0
VERTEX
  8
BottomGuard
 10
58.2751916238772
 20
59.6874391652199
 42
0.0
  0
VERTEX
  8
BottomGuard
 10
57.686590731017
 20
58.3600140325279
 42
0.0
  0
VERTEX
  8
BottomGuard
 10
57.1197056868473
 20
57.2364635590823
 42
0.0
  0
VERTEX
  8
BottomGuard
 10
56.5932260037192
 20
56.3108672883477
 42
0.0
  0
VERTEX
  8
BottomGuard
 10
56.1252823598247
 20
55.5759576200884
 42
0.0
  0
VERTEX
  8
BottomGuard
 10
55.7333592538175
 20
55.0231619233666
 42
0.0
  0
VERTEX
  8
BottomGuard
 10
55.4342105239611
 20
54.6426499820396
 42
0.0
  0
VERTEX
  8
BottomGuard
 10
55.2437780448862
 20
54.4233865891359
 42
0.0
  0
VERTEX
  8
BottomGuard
 10
55.1771139037236
 20
54.3531890886044
 42
0.0
  0
VERTEX
  8
BottomGuard
 10
53.6954444717651
 20
52.8936444856996
 42
-0.0168405422819
  0
SEQEND
  0
CIRCLE
  8
BottomGuard
 10
-10.0
 20
17.3205080756888
 30
0.0
 40
3.5
  0
CIRCLE
  8
BottomGuard
 10
-10.0
 20
-17.3205080756888
 30
0.0
 40
3.5
  0
CIRCLE
  8
BottomGuard
 10
20.0
 20
0.0
 30
0.0
 40
3.5
  0
ENDSEC
  0
EOF
