  0
SECTION
  2
HEADER
  9
$ACADVER
  1
AC1009
  9
$EXTMAX
 10
200.0
 20
200.0
 30
0.0
  9
$EXTMIN
 10
-200.0
 20
-200.0
 30
0.0
  9
$INSUNITS
 70
     4
  9
$LUNITS
 70
     2
  9
$LUPREC
 70
     4
  9
$MEASUREMENT
 70
     1
  0
ENDSEC
  0
SECTION
  2
TABLES
  0
TABLE
  2
LAYER
 70
     1
  0
LAYER
  2
0
 70
     0
 62
     7
  6
Continuous
  0
LAYER
  2
Default
 70
     0
 62
    70
  6
Continuous
  0
LAYER
  2
BoltHoles
 70
     0
 62
    70
  6
Continuous
  0
LAYER
  2
Hub
 70
     0
 62
    70
  6
Continuous
  0
LAYER
  2
PSU
 70
     0
 62
    70
  6
Continuous
  0
LAYER
  2
Motor
 70
     0
 62
    70
  6
Continuous
  0
LAYER
  2
Gears
 70
     0
 62
    70
  6
Continuous
  0
LAYER
  2
CogClamp
 70
     0
 62
    70
  6
Continuous
  0
LAYER
  2
Layer1
 70
     0
 62
    70
  6
Continuous
  0
LAYER
  2
Layer2
 70
     0
 62
    70
  6
Continuous
  0
ENDTAB
  0
TABLE
  2
APPID
 70
     1
  0
APPID
  2
ACAD
 70
     0
  0
ENDTAB
  0
ENDSEC
  0
SECTION
  2
ENTITIES
  0
CIRCLE
  8
Layer2
 10
-120.0
 20
0.0
 30
0.0
 40
12.5
  0
CIRCLE
  8
Layer2
 10
0.0
 20
0.0
 30
0.0
 40
10.0
  0
CIRCLE
  8
Layer2
 10
-45.0
 20
0.0
 30
0.0
 40
4.0
  0
CIRCLE
  8
Layer2
 10
0.0
 20
45.0
 30
0.0
 40
4.0
  0
CIRCLE
  8
Layer2
 10
45.0
 20
0.0
 30
0.0
 40
4.0
  0
CIRCLE
  8
Layer2
 10
0.0
 20
-45.0
 30
0.0
 40
4.0
  0
CIRCLE
  8
Layer2
 10
0.0
 20
0.0
 30
0.0
 40
190.0
  0
CIRCLE
  8
Layer2
 10
-140.196171744426
 20
-16.2149513372586
 30
0.0
 40
3.0
  0
CIRCLE
  8
Layer2
 10
-123.944473906982
 20
25.5978734584954
 30
0.0
 40
3.0
  0
CIRCLE
  8
Layer2
 10
-95.8593543485928
 20
-9.3829221212368
 30
0.0
 40
3.0
  0
CIRCLE
  8
Layer2
 10
-166.298315852032
 20
-68.8830178257162
 30
0.0
 40
3.0
  0
CIRCLE
  8
Layer2
 10
-180.0
 20
0.0
 30
0.0
 40
3.0
  0
CIRCLE
  8
Layer2
 10
-166.298315852032
 20
68.8830178257162
 30
0.0
 40
3.0
  0
CIRCLE
  8
Layer2
 10
-127.279220613579
 20
127.279220613579
 30
0.0
 40
3.0
  0
CIRCLE
  8
Layer2
 10
166.298315852032
 20
68.8830178257162
 30
0.0
 40
3.0
  0
CIRCLE
  8
Layer2
 10
180.0
 20
0.0
 30
0.0
 40
3.0
  0
CIRCLE
  8
Layer2
 10
166.298315852032
 20
-68.8830178257163
 30
0.0
 40
3.0
  0
CIRCLE
  8
Layer2
 10
127.279220613579
 20
-127.279220613579
 30
0.0
 40
3.0
  0
CIRCLE
  8
Layer2
 10
68.8830178257161
 20
-166.298315852032
 30
0.0
 40
3.0
  0
CIRCLE
  8
Layer2
 10
0.0
 20
-180.0
 30
0.0
 40
3.0
  0
CIRCLE
  8
Layer2
 10
-68.8830178257162
 20
-166.298315852032
 30
0.0
 40
3.0
  0
CIRCLE
  8
Layer2
 10
-127.279220613579
 20
-127.279220613579
 30
0.0
 40
3.0
  0
POLYLINE
  8
Layer2
 66
     1
 10
0.0
 20
0.0
 30
0.0
 70
     1
  0
VERTEX
  8
Layer2
 10
-82.2282053443663
 20
-130.104963504444
 42
0.0
  0
VERTEX
  8
Layer2
 10
-47.9181066279675
 20
-102.55832802802
 42
0.4142135623731
  0
VERTEX
  8
Layer2
 10
-47.4415898996966
 20
-98.200239937162
 42
0.0
  0
VERTEX
  8
Layer2
 10
-109.42151972165
 20
-21.0025178252647
 42
0.4142135623731
  0
VERTEX
  8
Layer2
 10
-113.779607812508
 20
-20.5260010969938
 42
0.0
  0
VERTEX
  8
Layer2
 10
-148.089706528907
 20
-48.0726365734176
 42
0.4142135623731
  0
VERTEX
  8
Layer2
 10
-148.566223257178
 20
-52.4307246642755
 42
0.0
  0
VERTEX
  8
Layer2
 10
-86.5862934352243
 20
-129.628446776173
 42
0.4142135623731
  0
SEQEND
  0
ENDSEC
  0
EOF
