  0
SECTION
  2
HEADER
  9
$ACADVER
  1
AC1009
  9
$EXTMAX
 10
200.0
 20
200.0
 30
0.0
  9
$EXTMIN
 10
-200.0
 20
-200.0
 30
0.0
  9
$INSUNITS
 70
     4
  9
$LUNITS
 70
     2
  9
$LUPREC
 70
     4
  9
$MEASUREMENT
 70
     1
  0
ENDSEC
  0
SECTION
  2
TABLES
  0
TABLE
  2
LAYER
 70
     1
  0
LAYER
  2
0
 70
     0
 62
     7
  6
Continuous
  0
LAYER
  2
Default
 70
     0
 62
    70
  6
Continuous
  0
LAYER
  2
BoltHoles
 70
     0
 62
    70
  6
Continuous
  0
LAYER
  2
Hub
 70
     0
 62
    70
  6
Continuous
  0
LAYER
  2
PSU
 70
     0
 62
    70
  6
Continuous
  0
LAYER
  2
Motor
 70
     0
 62
    70
  6
Continuous
  0
LAYER
  2
Gears
 70
     0
 62
    70
  6
Continuous
  0
LAYER
  2
CogClamp
 70
     0
 62
    70
  6
Continuous
  0
LAYER
  2
Layer1
 70
     0
 62
    70
  6
Continuous
  0
ENDTAB
  0
TABLE
  2
APPID
 70
     1
  0
APPID
  2
ACAD
 70
     0
  0
ENDTAB
  0
ENDSEC
  0
SECTION
  2
ENTITIES
  0
CIRCLE
  8
Layer1
 10
-120.0
 20
0.0
 30
0.0
 40
10.0
  0
CIRCLE
  8
Layer1
 10
-120.0
 20
0.0
 30
0.0
 40
3.0
  0
POLYLINE
  8
Layer1
 66
     1
 10
0.0
 20
0.0
 30
0.0
 70
     0
  0
VERTEX
  8
Layer1
 10
-120.0
 20
-3.0
 42
0.0
  0
VERTEX
  8
Layer1
 10
-120.0
 20
3.0
 42
0.0
  0
SEQEND
  0
POLYLINE
  8
Layer1
 66
     1
 10
0.0
 20
0.0
 30
0.0
 70
     0
  0
VERTEX
  8
Layer1
 10
-123.0
 20
0.0
 42
0.0
  0
VERTEX
  8
Layer1
 10
-117.0
 20
0.0
 42
0.0
  0
VERTEX
  8
Layer1
 10
-117.0
 20
0.0
 42
0.0
  0
VERTEX
  8
Layer1
 10
-117.0
 20
0.0
 42
0.0
  0
SEQEND
  0
CIRCLE
  8
Layer1
 10
-120.0
 20
0.0
 30
0.0
 40
12.5
  0
POLYLINE
  8
Layer1
 66
     1
 10
0.0
 20
0.0
 30
0.0
 70
     1
  0
VERTEX
  8
Layer1
 10
-95.0799748172539
 20
25.1032015665592
 42
0.0
  0
VERTEX
  8
Layer1
 10
-92.7171055311109
 20
27.483439288251
 42
0.0
  0
VERTEX
  8
Layer1
 10
-92.6818783677825
 20
27.5166356158082
 42
0.0
  0
VERTEX
  8
Layer1
 10
-92.5718799169759
 20
27.6114279254051
 42
0.0
  0
VERTEX
  8
Layer1
 10
-92.3810479494727
 20
27.7602667146896
 42
0.0
  0
VERTEX
  8
Layer1
 10
-92.10389567378
 20
27.9551598056715
 42
0.0
  0
VERTEX
  8
Layer1
 10
-91.7355403565757
 20
28.1877113674332
 42
0.0
  0
VERTEX
  8
Layer1
 10
-91.2717294627694
 20
28.4491626689652
 42
0.0
  0
VERTEX
  8
Layer1
 10
-90.7088642150106
 20
28.7304344108559
 42
0.0
  0
VERTEX
  8
Layer1
 10
-90.0440204814371
 20
29.0221704789425
 42
0.0
  0
VERTEX
  8
Layer1
 10
-89.2749669097311
 20
29.3147829579203
 42
0.0
  0
VERTEX
  8
Layer1
 10
-88.4001802350985
 20
29.598498238342
 42
0.0
  0
VERTEX
  8
Layer1
 10
-87.6329541048987
 20
29.8056092040476
 42
-0.0196497946981
  0
VERTEX
  8
Layer1
 10
-85.3928715055966
 20
27.1725349824387
 42
0.0
  0
VERTEX
  8
Layer1
 10
-85.3928715055966
 20
27.1725349824387
 42
0.0
  0
VERTEX
  8
Layer1
 10
-85.7202510316154
 20
26.4484123872101
 42
0.0
  0
VERTEX
  8
Layer1
 10
-86.140481084973
 20
25.6303947903856
 42
0.0
  0
VERTEX
  8
Layer1
 10
-86.5525500358583
 20
24.9181696583356
 42
0.0
  0
VERTEX
  8
Layer1
 10
-86.947054675686
 20
24.3086672279475
 42
0.0
  0
VERTEX
  8
Layer1
 10
-87.3148885586077
 20
23.7981485559133
 42
0.0
  0
VERTEX
  8
Layer1
 10
-87.6472850596284
 20
23.3822280173542
 42
0.0
  0
VERTEX
  8
Layer1
 10
-87.9358589005971
 20
23.0558984187899
 42
0.0
  0
VERTEX
  8
Layer1
 10
-88.1726459912502
 20
22.8135586273108
 42
0.0
  0
VERTEX
  8
Layer1
 10
-88.3501414385332
 20
22.6490436091191
 42
0.0
  0
VERTEX
  8
Layer1
 10
-88.4613355839456
 20
22.5556567622691
 42
0.0
  0
VERTEX
  8
Layer1
 10
-88.499747935648
 20
22.5262044204923
 42
0.0
  0
VERTEX
  8
Layer1
 10
-91.2278667645903
 20
20.5752942405165
 42
-0.036490087536
  0
VERTEX
  8
Layer1
 10
-88.5423317664234
 20
16.1738521480267
 42
0.0
  0
VERTEX
  8
Layer1
 10
-85.5595756280283
 20
17.7074259786683
 42
0.0
  0
VERTEX
  8
Layer1
 10
-85.5158143754282
 20
17.7281117701766
 42
0.0
  0
VERTEX
  8
Layer1
 10
-85.3819071974048
 20
17.7842732232593
 42
0.0
  0
VERTEX
  8
Layer1
 10
-85.1544214958824
 20
17.8668570026572
 42
0.0
  0
VERTEX
  8
Layer1
 10
-84.8306087408791
 20
17.9665665835977
 42
0.0
  0
VERTEX
  8
Layer1
 10
-84.4084196314871
 20
18.0739082088013
 42
0.0
  0
VERTEX
  8
Layer1
 10
-83.8865163632292
 20
18.1792377244548
 42
0.0
  0
VERTEX
  8
Layer1
 10
-83.2642819532704
 20
18.2728081203291
 42
0.0
  0
VERTEX
  8
Layer1
 10
-82.5418265852265
 20
18.3448175966433
 42
0.0
  0
VERTEX
  8
Layer1
 10
-81.719990945705
 20
18.3854579782825
 42
0.0
  0
VERTEX
  8
Layer1
 10
-80.8003465352134
 20
18.3849632955859
 42
0.0
  0
VERTEX
  8
Layer1
 10
-80.0066703164906
 20
18.3448516163561
 42
-0.0196497946981
  0
VERTEX
  8
Layer1
 10
-78.6898898453127
 20
15.1484256280182
 42
0.0
  0
VERTEX
  8
Layer1
 10
-78.6898898453127
 20
15.1484256280182
 42
0.0
  0
VERTEX
  8
Layer1
 10
-79.2250124647709
 20
14.5609099523797
 42
0.0
  0
VERTEX
  8
Layer1
 10
-79.8774563344763
 20
13.9127872145103
 42
0.0
  0
VERTEX
  8
Layer1
 10
-80.489446865003
 20
13.3627571702827
 42
0.0
  0
VERTEX
  8
Layer1
 10
-81.0529896825227
 20
12.904994550231
 42
0.0
  0
VERTEX
  8
Layer1
 10
-81.5605794393937
 20
12.5331293614322
 42
0.0
  0
VERTEX
  8
Layer1
 10
-82.0052338124076
 20
12.2402815906607
 42
0.0
  0
VERTEX
  8
Layer1
 10
-82.380525236017
 20
12.0190979204775
 42
0.0
  0
VERTEX
  8
Layer1
 10
-82.6806102555376
 20
11.8617903176941
 42
0.0
  0
VERTEX
  8
Layer1
 10
-82.90025639374
 20
11.7601763472492
 42
0.0
  0
VERTEX
  8
Layer1
 10
-83.034866433036
 20
11.7057210586237
 42
0.0
  0
VERTEX
  8
Layer1
 10
-83.080500024562
 20
11.6895802865266
 42
0.0
  0
VERTEX
  8
Layer1
 10
-86.2779596141666
 20
10.6771895279715
 42
-0.036490087536
  0
VERTEX
  8
Layer1
 10
-85.0839844607579
 20
5.661293391391
 42
0.0
  0
VERTEX
  8
Layer1
 10
-81.773314423021
 20
6.1980864394022
 42
0.0
  0
VERTEX
  8
Layer1
 10
-81.7253027374563
 20
6.2042368254623
 42
0.0
  0
VERTEX
  8
Layer1
 10
-81.580594599787
 20
6.2162699477032
 42
0.0
  0
VERTEX
  8
Layer1
 10
-81.3387230496965
 20
6.2245148414922
 42
0.0
  0
VERTEX
  8
Layer1
 10
-80.9999468639785
 20
6.2192806438913
 42
0.0
  0
VERTEX
  8
Layer1
 10
-80.5652507739907
 20
6.1909049863688
 42
0.0
  0
VERTEX
  8
Layer1
 10
-80.036342659492
 20
6.1298023292776
 42
0.0
  0
VERTEX
  8
Layer1
 10
-79.4156477267422
 20
6.0265120568441
 42
0.0
  0
VERTEX
  8
Layer1
 10
-78.7062996892944
 20
5.8717461521248
 42
0.0
  0
VERTEX
  8
Layer1
 10
-77.9121289804195
 20
5.6564362727123
 42
0.0
  0
VERTEX
  8
Layer1
 10
-77.0376480365071
 20
5.3717800498863
 42
0.0
  0
VERTEX
  8
Layer1
 10
-76.2952122874172
 20
5.0883721363587
 42
-0.0196497946981
  0
VERTEX
  8
Layer1
 10
-76.0306295914314
 20
1.6414828278397
 42
0.0
  0
VERTEX
  8
Layer1
 10
-76.0306295914314
 20
1.6414828278397
 42
0.0
  0
VERTEX
  8
Layer1
 10
-76.7211137739181
 20
1.2480841995853
 42
0.0
  0
VERTEX
  8
Layer1
 10
-77.5419057081607
 20
0.8332990899902
 42
0.0
  0
VERTEX
  8
Layer1
 10
-78.2939119212122
 20
0.4993049065987
 42
0.0
  0
VERTEX
  8
Layer1
 10
-78.9713294190111
 20
0.2380910915537
 42
0.0
  0
VERTEX
  8
Layer1
 10
-79.5689886278433
 20
0.0412801416071
 42
0.0
  0
VERTEX
  8
Layer1
 10
-80.0823750047305
 20
-0.0998288811832
 42
0.0
  0
VERTEX
  8
Layer1
 10
-80.5076478716288
 20
-0.1942156242705
 42
0.0
  0
VERTEX
  8
Layer1
 10
-80.8416564074908
 20
-0.2510926741712
 42
0.0
  0
VERTEX
  8
Layer1
 10
-81.0819527422406
 20
-0.2798589134562
 42
0.0
  0
VERTEX
  8
Layer1
 10
-81.2268021068907
 20
-0.2900521807943
 42
0.0
  0
VERTEX
  8
Layer1
 10
-81.2751900043539
 20
-0.2913014119793
 42
0.0
  0
VERTEX
  8
Layer1
 10
-84.6290007319794
 20
-0.2660728879251
 42
-0.036490087536
  0
VERTEX
  8
Layer1
 10
-85.0434600302586
 20
-5.4054322069444
 42
0.0
  0
VERTEX
  8
Layer1
 10
-81.728947543268
 20
-5.9179649851601
 42
0.0
  0
VERTEX
  8
Layer1
 10
-81.6813851430388
 20
-5.926952047188
 42
0.0
  0
VERTEX
  8
Layer1
 10
-81.5400410864797
 20
-5.9602251416336
 42
0.0
  0
VERTEX
  8
Layer1
 10
-81.3074597603621
 20
-6.0271262011032
 42
0.0
  0
VERTEX
  8
Layer1
 10
-80.98688191738
 20
-6.1367918175155
 42
0.0
  0
VERTEX
  8
Layer1
 10
-80.58222992879
 20
-6.298107150701
 42
0.0
  0
VERTEX
  8
Layer1
 10
-80.0980901794173
 20
-6.5196608267334
 42
0.0
  0
VERTEX
  8
Layer1
 10
-79.5396926685297
 20
-6.8097009959433
 42
0.0
  0
VERTEX
  8
Layer1
 10
-78.912887889902
 20
-7.1760927166248
 42
0.0
  0
VERTEX
  8
Layer1
 10
-78.224121073971
 20
-7.6262768259399
 42
0.0
  0
VERTEX
  8
Layer1
 10
-77.4804038842951
 20
-8.1672304544885
 42
0.0
  0
VERTEX
  8
Layer1
 10
-76.861883388813
 20
-8.6661926611188
 42
-0.0196497946981
  0
VERTEX
  8
Layer1
 10
-77.6753976657584
 20
-12.0261397484111
 42
0.0
  0
VERTEX
  8
Layer1
 10
-77.6753976657584
 20
-12.0261397484111
 42
0.0
  0
VERTEX
  8
Layer1
 10
-78.4536540086055
 20
-12.1869127305785
 42
0.0
  0
VERTEX
  8
Layer1
 10
-79.362449174068
 20
-12.3277581553943
 42
0.0
  0
VERTEX
  8
Layer1
 10
-80.1808594619754
 20
-12.413022800205
 42
0.0
  0
VERTEX
  8
Layer1
 10
-80.9058412955239
 20
-12.452118382043
 42
0.0
  0
VERTEX
  8
Layer1
 10
-81.5350669088201
 20
-12.4546098660941
 42
0.0
  0
VERTEX
  8
Layer1
 10
-82.0669314540376
 20
-12.4301674065882
 42
0.0
  0
VERTEX
  8
Layer1
 10
-82.5005570929625
 20
-12.3885179905352
 42
0.0
  0
VERTEX
  8
Layer1
 10
-82.8357940625016
 20
-12.3393969656232
 42
0.0
  0
VERTEX
  8
Layer1
 10
-83.0732187143105
 20
-12.2924996338208
 42
0.0
  0
VERTEX
  8
Layer1
 10
-83.2141285392779
 20
-12.2574330918437
 42
0.0
  0
VERTEX
  8
Layer1
 10
-83.2605341981361
 20
-12.2436684986644
 42
0.0
  0
VERTEX
  8
Layer1
 10
-86.4424017023892
 20
-11.1832902357129
 42
-0.036490087536
  0
VERTEX
  8
Layer1
 10
-88.424725288533
 20
-15.9430364390034
 42
0.0
  0
VERTEX
  8
Layer1
 10
-85.4308179280817
 20
-17.4547247640883
 42
0.0
  0
VERTEX
  8
Layer1
 10
-85.3883605523092
 20
-17.4779695579564
 42
0.0
  0
VERTEX
  8
Layer1
 10
-85.2642163179182
 20
-17.5532918667769
 42
0.0
  0
VERTEX
  8
Layer1
 10
-85.0636918964633
 20
-17.6887901376771
 42
0.0
  0
VERTEX
  8
Layer1
 10
-84.7926927890854
 20
-17.892152338281
 42
0.0
  0
VERTEX
  8
Layer1
 10
-84.4576950579127
 20
-18.1706166783674
 42
0.0
  0
VERTEX
  8
Layer1
 10
-84.0657146455345
 20
-18.5309341558757
 42
0.0
  0
VERTEX
  8
Layer1
 10
-83.6242743954591
 20
-18.9793330692711
 42
0.0
  0
VERTEX
  8
Layer1
 10
-83.1413688945891
 20
-19.5214856314932
 42
0.0
  0
VERTEX
  8
Layer1
 10
-82.625427266466
 20
-20.162476813474
 42
0.0
  0
VERTEX
  8
Layer1
 10
-82.0852740513343
 20
-20.9067755375373
 42
0.0
  0
VERTEX
  8
Layer1
 10
-81.6512139050435
 20
-21.5724501400113
 42
-0.0196497946981
  0
VERTEX
  8
Layer1
 10
-83.4631927094056
 20
-24.5165599750447
 42
0.0
  0
VERTEX
  8
Layer1
 10
-83.4631927094056
 20
-24.5165599750447
 42
0.0
  0
VERTEX
  8
Layer1
 10
-84.2530400593444
 20
-24.4289697314594
 42
0.0
  0
VERTEX
  8
Layer1
 10
-85.1608792532831
 20
-24.2820885399872
 42
0.0
  0
VERTEX
  8
Layer1
 10
-85.9655819148663
 20
-24.1102773487092
 42
0.0
  0
VERTEX
  8
Layer1
 10
-86.6671618110511
 20
-23.9234277493951
 42
0.0
  0
VERTEX
  8
Layer1
 10
-87.2663608417093
 20
-23.7313558837326
 42
0.0
  0
VERTEX
  8
Layer1
 10
-87.7646409478531
 20
-23.5437545401675
 42
0.0
  0
VERTEX
  8
Layer1
 10
-88.1641730600191
 20
-23.3701459000059
 42
0.0
  0
VERTEX
  8
Layer1
 10
-88.4678231329233
 20
-23.2198351084459
 42
0.0
  0
VERTEX
  8
Layer1
 10
-88.6791353226375
 20
-23.1018648431458
 42
0.0
  0
VERTEX
  8
Layer1
 10
-88.8023123724778
 20
-23.0249710493053
 42
0.0
  0
VERTEX
  8
Layer1
 10
-88.8421932835149
 20
-22.9975400060456
 42
0.0
  0
VERTEX
  8
Layer1
 10
-91.5406542037048
 20
-21.0058092166642
 42
-0.036490087536
  0
VERTEX
  8
Layer1
 10
-94.8967984334408
 20
-24.9200251827461
 42
0.0
  0
VERTEX
  8
Layer1
 10
-92.516560711749
 20
-27.2828944688891
 42
0.0
  0
VERTEX
  8
Layer1
 10
-92.4833643841918
 20
-27.3181216322175
 42
0.0
  0
VERTEX
  8
Layer1
 10
-92.3885720745949
 20
-27.4281200830241
 42
0.0
  0
VERTEX
  8
Layer1
 10
-92.2397332853104
 20
-27.6189520505273
 42
0.0
  0
VERTEX
  8
Layer1
 10
-92.0448401943286
 20
-27.89610432622
 42
0.0
  0
VERTEX
  8
Layer1
 10
-91.8122886325668
 20
-28.2644596434243
 42
0.0
  0
VERTEX
  8
Layer1
 10
-91.5508373310348
 20
-28.7282705372306
 42
0.0
  0
VERTEX
  8
Layer1
 10
-91.2695655891441
 20
-29.2911357849894
 42
0.0
  0
VERTEX
  8
Layer1
 10
-90.9778295210575
 20
-29.9559795185629
 42
0.0
  0
VERTEX
  8
Layer1
 10
-90.6852170420797
 20
-30.725033090269
 42
0.0
  0
VERTEX
  8
Layer1
 10
-90.401501761658
 20
-31.5998197649015
 42
0.0
  0
VERTEX
  8
Layer1
 10
-90.1943907959524
 20
-32.3670458951013
 42
-0.0196497946981
  0
VERTEX
  8
Layer1
 10
-92.8274650175613
 20
-34.6071284944034
 42
0.0
  0
VERTEX
  8
Layer1
 10
-92.8274650175613
 20
-34.6071284944034
 42
0.0
  0
VERTEX
  8
Layer1
 10
-93.5515876127899
 20
-34.2797489683846
 42
0.0
  0
VERTEX
  8
Layer1
 10
-94.3696052096144
 20
-33.859518915027
 42
0.0
  0
VERTEX
  8
Layer1
 10
-95.0818303416644
 20
-33.4474499641417
 42
0.0
  0
VERTEX
  8
Layer1
 10
-95.6913327720525
 20
-33.052945324314
 42
0.0
  0
VERTEX
  8
Layer1
 10
-96.2018514440867
 20
-32.6851114413923
 42
0.0
  0
VERTEX
  8
Layer1
 10
-96.6177719826458
 20
-32.3527149403716
 42
0.0
  0
VERTEX
  8
Layer1
 10
-96.9441015812101
 20
-32.0641410994029
 42
0.0
  0
VERTEX
  8
Layer1
 10
-97.1864413726892
 20
-31.8273540087498
 42
0.0
  0
VERTEX
  8
Layer1
 10
-97.3509563908809
 20
-31.6498585614668
 42
0.0
  0
VERTEX
  8
Layer1
 10
-97.4443432377309
 20
-31.5386644160544
 42
0.0
  0
VERTEX
  8
Layer1
 10
-97.4737955795077
 20
-31.500252064352
 42
0.0
  0
VERTEX
  8
Layer1
 10
-99.4247057594835
 20
-28.7721332354097
 42
-0.036490087536
  0
VERTEX
  8
Layer1
 10
-103.826147851973
 20
-31.4576682335766
 42
0.0
  0
VERTEX
  8
Layer1
 10
-102.292574021332
 20
-34.4404243719717
 42
0.0
  0
VERTEX
  8
Layer1
 10
-102.271888229823
 20
-34.4841856245718
 42
0.0
  0
VERTEX
  8
Layer1
 10
-102.215726776741
 20
-34.6180928025952
 42
0.0
  0
VERTEX
  8
Layer1
 10
-102.133142997343
 20
-34.8455785041176
 42
0.0
  0
VERTEX
  8
Layer1
 10
-102.033433416402
 20
-35.1693912591209
 42
0.0
  0
VERTEX
  8
Layer1
 10
-101.926091791199
 20
-35.5915803685129
 42
0.0
  0
VERTEX
  8
Layer1
 10
-101.820762275545
 20
-36.1134836367708
 42
0.0
  0
VERTEX
  8
Layer1
 10
-101.727191879671
 20
-36.7357180467296
 42
0.0
  0
VERTEX
  8
Layer1
 10
-101.655182403357
 20
-37.4581734147735
 42
0.0
  0
VERTEX
  8
Layer1
 10
-101.614542021717
 20
-38.280009054295
 42
0.0
  0
VERTEX
  8
Layer1
 10
-101.615036704414
 20
-39.1996534647866
 42
0.0
  0
VERTEX
  8
Layer1
 10
-101.655148383644
 20
-39.9933296835094
 42
-0.0196497946981
  0
VERTEX
  8
Layer1
 10
-104.851574371982
 20
-41.3101101546873
 42
0.0
  0
VERTEX
  8
Layer1
 10
-104.851574371982
 20
-41.3101101546873
 42
0.0
  0
VERTEX
  8
Layer1
 10
-105.43909004762
 20
-40.7749875352291
 42
0.0
  0
VERTEX
  8
Layer1
 10
-106.08721278549
 20
-40.1225436655237
 42
0.0
  0
VERTEX
  8
Layer1
 10
-106.637242829717
 20
-39.510553134997
 42
0.0
  0
VERTEX
  8
Layer1
 10
-107.095005449769
 20
-38.9470103174773
 42
0.0
  0
VERTEX
  8
Layer1
 10
-107.466870638568
 20
-38.4394205606063
 42
0.0
  0
VERTEX
  8
Layer1
 10
-107.759718409339
 20
-37.9947661875924
 42
0.0
  0
VERTEX
  8
Layer1
 10
-107.980902079522
 20
-37.619474763983
 42
0.0
  0
VERTEX
  8
Layer1
 10
-108.138209682306
 20
-37.3193897444624
 42
0.0
  0
VERTEX
  8
Layer1
 10
-108.239823652751
 20
-37.09974360626
 42
0.0
  0
VERTEX
  8
Layer1
 10
-108.294278941376
 20
-36.965133566964
 42
0.0
  0
VERTEX
  8
Layer1
 10
-108.310419713473
 20
-36.919499975438
 42
0.0
  0
VERTEX
  8
Layer1
 10
-109.322810472028
 20
-33.7220403858334
 42
-0.036490087536
  0
VERTEX
  8
Layer1
 10
-114.338706608609
 20
-34.9160155392421
 42
0.0
  0
VERTEX
  8
Layer1
 10
-113.801913560598
 20
-38.226685576979
 42
0.0
  0
VERTEX
  8
Layer1
 10
-113.795763174538
 20
-38.2746972625437
 42
0.0
  0
VERTEX
  8
Layer1
 10
-113.783730052297
 20
-38.419405400213
 42
0.0
  0
VERTEX
  8
Layer1
 10
-113.775485158508
 20
-38.6612769503035
 42
0.0
  0
VERTEX
  8
Layer1
 10
-113.780719356109
 20
-39.0000531360215
 42
0.0
  0
VERTEX
  8
Layer1
 10
-113.809095013631
 20
-39.4347492260093
 42
0.0
  0
VERTEX
  8
Layer1
 10
-113.870197670722
 20
-39.963657340508
 42
0.0
  0
VERTEX
  8
Layer1
 10
-113.973487943156
 20
-40.5843522732578
 42
0.0
  0
VERTEX
  8
Layer1
 10
-114.128253847875
 20
-41.2937003107056
 42
0.0
  0
VERTEX
  8
Layer1
 10
-114.343563727288
 20
-42.0878710195805
 42
0.0
  0
VERTEX
  8
Layer1
 10
-114.628219950114
 20
-42.9623519634929
 42
0.0
  0
VERTEX
  8
Layer1
 10
-114.911627863641
 20
-43.7047877125828
 42
-0.0196497946981
  0
VERTEX
  8
Layer1
 10
-118.35851717216
 20
-43.9693704085686
 42
0.0
  0
VERTEX
  8
Layer1
 10
-118.35851717216
 20
-43.9693704085686
 42
0.0
  0
VERTEX
  8
Layer1
 10
-118.751915800415
 20
-43.2788862260819
 42
0.0
  0
VERTEX
  8
Layer1
 10
-119.16670091001
 20
-42.4580942918393
 42
0.0
  0
VERTEX
  8
Layer1
 10
-119.500695093401
 20
-41.7060880787878
 42
0.0
  0
VERTEX
  8
Layer1
 10
-119.761908908446
 20
-41.0286705809889
 42
0.0
  0
VERTEX
  8
Layer1
 10
-119.958719858393
 20
-40.4310113721567
 42
0.0
  0
VERTEX
  8
Layer1
 10
-120.099828881183
 20
-39.9176249952695
 42
0.0
  0
VERTEX
  8
Layer1
 10
-120.194215624271
 20
-39.4923521283712
 42
0.0
  0
VERTEX
  8
Layer1
 10
-120.251092674171
 20
-39.1583435925092
 42
0.0
  0
VERTEX
  8
Layer1
 10
-120.279858913456
 20
-38.9180472577594
 42
0.0
  0
VERTEX
  8
Layer1
 10
-120.290052180794
 20
-38.7731978931093
 42
0.0
  0
VERTEX
  8
Layer1
 10
-120.291301411979
 20
-38.7248099956461
 42
0.0
  0
VERTEX
  8
Layer1
 10
-120.266072887925
 20
-35.3709992680206
 42
-0.036490087536
  0
VERTEX
  8
Layer1
 10
-125.405432206944
 20
-34.9565399697414
 42
0.0
  0
VERTEX
  8
Layer1
 10
-125.91796498516
 20
-38.271052456732
 42
0.0
  0
VERTEX
  8
Layer1
 10
-125.926952047188
 20
-38.3186148569612
 42
0.0
  0
VERTEX
  8
Layer1
 10
-125.960225141634
 20
-38.4599589135203
 42
0.0
  0
VERTEX
  8
Layer1
 10
-126.027126201103
 20
-38.6925402396379
 42
0.0
  0
VERTEX
  8
Layer1
 10
-126.136791817515
 20
-39.01311808262
 42
0.0
  0
VERTEX
  8
Layer1
 10
-126.298107150701
 20
-39.41777007121
 42
0.0
  0
VERTEX
  8
Layer1
 10
-126.519660826733
 20
-39.9019098205827
 42
0.0
  0
VERTEX
  8
Layer1
 10
-126.809700995943
 20
-40.4603073314703
 42
0.0
  0
VERTEX
  8
Layer1
 10
-127.176092716625
 20
-41.087112110098
 42
0.0
  0
VERTEX
  8
Layer1
 10
-127.62627682594
 20
-41.775878926029
 42
0.0
  0
VERTEX
  8
Layer1
 10
-128.167230454489
 20
-42.519596115705
 42
0.0
  0
VERTEX
  8
Layer1
 10
-128.666192661119
 20
-43.138116611187
 42
-0.0196497946981
  0
VERTEX
  8
Layer1
 10
-132.026139748411
 20
-42.3246023342416
 42
0.0
  0
VERTEX
  8
Layer1
 10
-132.026139748411
 20
-42.3246023342416
 42
0.0
  0
VERTEX
  8
Layer1
 10
-132.186912730579
 20
-41.5463459913945
 42
0.0
  0
VERTEX
  8
Layer1
 10
-132.327758155394
 20
-40.637550825932
 42
0.0
  0
VERTEX
  8
Layer1
 10
-132.413022800205
 20
-39.8191405380246
 42
0.0
  0
VERTEX
  8
Layer1
 10
-132.452118382043
 20
-39.0941587044761
 42
0.0
  0
VERTEX
  8
Layer1
 10
-132.454609866094
 20
-38.4649330911799
 42
0.0
  0
VERTEX
  8
Layer1
 10
-132.430167406588
 20
-37.9330685459624
 42
0.0
  0
VERTEX
  8
Layer1
 10
-132.388517990535
 20
-37.4994429070375
 42
0.0
  0
VERTEX
  8
Layer1
 10
-132.339396965623
 20
-37.1642059374985
 42
0.0
  0
VERTEX
  8
Layer1
 10
-132.292499633821
 20
-36.9267812856895
 42
0.0
  0
VERTEX
  8
Layer1
 10
-132.257433091844
 20
-36.7858714607221
 42
0.0
  0
VERTEX
  8
Layer1
 10
-132.243668498664
 20
-36.7394658018639
 42
0.0
  0
VERTEX
  8
Layer1
 10
-131.183290235713
 20
-33.5575982976108
 42
-0.036490087536
  0
VERTEX
  8
Layer1
 10
-135.943036439003
 20
-31.575274711467
 42
0.0
  0
VERTEX
  8
Layer1
 10
-137.454724764088
 20
-34.5691820719183
 42
0.0
  0
VERTEX
  8
Layer1
 10
-137.477969557956
 20
-34.6116394476908
 42
0.0
  0
VERTEX
  8
Layer1
 10
-137.553291866777
 20
-34.7357836820818
 42
0.0
  0
VERTEX
  8
Layer1
 10
-137.688790137677
 20
-34.9363081035367
 42
0.0
  0
VERTEX
  8
Layer1
 10
-137.892152338281
 20
-35.2073072109147
 42
0.0
  0
VERTEX
  8
Layer1
 10
-138.170616678367
 20
-35.5423049420873
 42
0.0
  0
VERTEX
  8
Layer1
 10
-138.530934155876
 20
-35.9342853544655
 42
0.0
  0
VERTEX
  8
Layer1
 10
-138.979333069271
 20
-36.3757256045409
 42
0.0
  0
VERTEX
  8
Layer1
 10
-139.521485631493
 20
-36.8586311054109
 42
0.0
  0
VERTEX
  8
Layer1
 10
-140.162476813474
 20
-37.374572733534
 42
0.0
  0
VERTEX
  8
Layer1
 10
-140.906775537537
 20
-37.9147259486657
 42
0.0
  0
VERTEX
  8
Layer1
 10
-141.572450140011
 20
-38.3487860949565
 42
-0.0196497946981
  0
VERTEX
  8
Layer1
 10
-144.516559975045
 20
-36.5368072905945
 42
0.0
  0
VERTEX
  8
Layer1
 10
-144.516559975045
 20
-36.5368072905945
 42
0.0
  0
VERTEX
  8
Layer1
 10
-144.428969731459
 20
-35.7469599406556
 42
0.0
  0
VERTEX
  8
Layer1
 10
-144.282088539987
 20
-34.8391207467169
 42
0.0
  0
VERTEX
  8
Layer1
 10
-144.110277348709
 20
-34.0344180851337
 42
0.0
  0
VERTEX
  8
Layer1
 10
-143.923427749395
 20
-33.3328381889489
 42
0.0
  0
VERTEX
  8
Layer1
 10
-143.731355883733
 20
-32.7336391582907
 42
0.0
  0
VERTEX
  8
Layer1
 10
-143.543754540167
 20
-32.2353590521469
 42
0.0
  0
VERTEX
  8
Layer1
 10
-143.370145900006
 20
-31.8358269399809
 42
0.0
  0
VERTEX
  8
Layer1
 10
-143.219835108446
 20
-31.5321768670767
 42
0.0
  0
VERTEX
  8
Layer1
 10
-143.101864843146
 20
-31.3208646773625
 42
0.0
  0
VERTEX
  8
Layer1
 10
-143.024971049305
 20
-31.1976876275222
 42
0.0
  0
VERTEX
  8
Layer1
 10
-142.997540006046
 20
-31.1578067164851
 42
0.0
  0
VERTEX
  8
Layer1
 10
-141.005809216664
 20
-28.4593457962952
 42
-0.036490087536
  0
VERTEX
  8
Layer1
 10
-144.920025182746
 20
-25.1032015665592
 42
0.0
  0
VERTEX
  8
Layer1
 10
-147.282894468889
 20
-27.483439288251
 42
0.0
  0
VERTEX
  8
Layer1
 10
-147.318121632217
 20
-27.5166356158082
 42
0.0
  0
VERTEX
  8
Layer1
 10
-147.428120083024
 20
-27.6114279254051
 42
0.0
  0
VERTEX
  8
Layer1
 10
-147.618952050527
 20
-27.7602667146896
 42
0.0
  0
VERTEX
  8
Layer1
 10
-147.89610432622
 20
-27.9551598056714
 42
0.0
  0
VERTEX
  8
Layer1
 10
-148.264459643424
 20
-28.1877113674332
 42
0.0
  0
VERTEX
  8
Layer1
 10
-148.728270537231
 20
-28.4491626689652
 42
0.0
  0
VERTEX
  8
Layer1
 10
-149.291135784989
 20
-28.7304344108559
 42
0.0
  0
VERTEX
  8
Layer1
 10
-149.955979518563
 20
-29.0221704789425
 42
0.0
  0
VERTEX
  8
Layer1
 10
-150.725033090269
 20
-29.3147829579203
 42
0.0
  0
VERTEX
  8
Layer1
 10
-151.599819764901
 20
-29.598498238342
 42
0.0
  0
VERTEX
  8
Layer1
 10
-152.367045895101
 20
-29.8056092040476
 42
-0.0196497946981
  0
VERTEX
  8
Layer1
 10
-154.607128494403
 20
-27.1725349824387
 42
0.0
  0
VERTEX
  8
Layer1
 10
-154.607128494403
 20
-27.1725349824387
 42
0.0
  0
VERTEX
  8
Layer1
 10
-154.279748968385
 20
-26.4484123872101
 42
0.0
  0
VERTEX
  8
Layer1
 10
-153.859518915027
 20
-25.6303947903856
 42
0.0
  0
VERTEX
  8
Layer1
 10
-153.447449964142
 20
-24.9181696583356
 42
0.0
  0
VERTEX
  8
Layer1
 10
-153.052945324314
 20
-24.3086672279475
 42
0.0
  0
VERTEX
  8
Layer1
 10
-152.685111441392
 20
-23.7981485559133
 42
0.0
  0
VERTEX
  8
Layer1
 10
-152.352714940372
 20
-23.3822280173542
 42
0.0
  0
VERTEX
  8
Layer1
 10
-152.064141099403
 20
-23.0558984187899
 42
0.0
  0
VERTEX
  8
Layer1
 10
-151.82735400875
 20
-22.8135586273108
 42
0.0
  0
VERTEX
  8
Layer1
 10
-151.649858561467
 20
-22.6490436091191
 42
0.0
  0
VERTEX
  8
Layer1
 10
-151.538664416054
 20
-22.5556567622691
 42
0.0
  0
VERTEX
  8
Layer1
 10
-151.500252064352
 20
-22.5262044204923
 42
0.0
  0
VERTEX
  8
Layer1
 10
-148.77213323541
 20
-20.5752942405165
 42
-0.036490087536
  0
VERTEX
  8
Layer1
 10
-151.457668233577
 20
-16.1738521480267
 42
0.0
  0
VERTEX
  8
Layer1
 10
-154.440424371972
 20
-17.7074259786683
 42
0.0
  0
VERTEX
  8
Layer1
 10
-154.484185624572
 20
-17.7281117701766
 42
0.0
  0
VERTEX
  8
Layer1
 10
-154.618092802595
 20
-17.7842732232593
 42
0.0
  0
VERTEX
  8
Layer1
 10
-154.845578504118
 20
-17.8668570026572
 42
0.0
  0
VERTEX
  8
Layer1
 10
-155.169391259121
 20
-17.9665665835977
 42
0.0
  0
VERTEX
  8
Layer1
 10
-155.591580368513
 20
-18.0739082088013
 42
0.0
  0
VERTEX
  8
Layer1
 10
-156.113483636771
 20
-18.1792377244548
 42
0.0
  0
VERTEX
  8
Layer1
 10
-156.73571804673
 20
-18.2728081203291
 42
0.0
  0
VERTEX
  8
Layer1
 10
-157.458173414774
 20
-18.3448175966433
 42
0.0
  0
VERTEX
  8
Layer1
 10
-158.280009054295
 20
-18.3854579782825
 42
0.0
  0
VERTEX
  8
Layer1
 10
-159.199653464787
 20
-18.3849632955859
 42
0.0
  0
VERTEX
  8
Layer1
 10
-159.993329683509
 20
-18.3448516163561
 42
-0.0196497946981
  0
VERTEX
  8
Layer1
 10
-161.310110154687
 20
-15.1484256280182
 42
0.0
  0
VERTEX
  8
Layer1
 10
-161.310110154687
 20
-15.1484256280182
 42
0.0
  0
VERTEX
  8
Layer1
 10
-160.774987535229
 20
-14.5609099523797
 42
0.0
  0
VERTEX
  8
Layer1
 10
-160.122543665524
 20
-13.9127872145103
 42
0.0
  0
VERTEX
  8
Layer1
 10
-159.510553134997
 20
-13.3627571702827
 42
0.0
  0
VERTEX
  8
Layer1
 10
-158.947010317477
 20
-12.904994550231
 42
0.0
  0
VERTEX
  8
Layer1
 10
-158.439420560606
 20
-12.5331293614322
 42
0.0
  0
VERTEX
  8
Layer1
 10
-157.994766187592
 20
-12.2402815906608
 42
0.0
  0
VERTEX
  8
Layer1
 10
-157.619474763983
 20
-12.0190979204775
 42
0.0
  0
VERTEX
  8
Layer1
 10
-157.319389744462
 20
-11.8617903176941
 42
0.0
  0
VERTEX
  8
Layer1
 10
-157.09974360626
 20
-11.7601763472492
 42
0.0
  0
VERTEX
  8
Layer1
 10
-156.965133566964
 20
-11.7057210586237
 42
0.0
  0
VERTEX
  8
Layer1
 10
-156.919499975438
 20
-11.6895802865266
 42
0.0
  0
VERTEX
  8
Layer1
 10
-153.722040385833
 20
-10.6771895279715
 42
-0.036490087536
  0
VERTEX
  8
Layer1
 10
-154.916015539242
 20
-5.661293391391
 42
0.0
  0
VERTEX
  8
Layer1
 10
-158.226685576979
 20
-6.1980864394022
 42
0.0
  0
VERTEX
  8
Layer1
 10
-158.274697262544
 20
-6.2042368254623
 42
0.0
  0
VERTEX
  8
Layer1
 10
-158.419405400213
 20
-6.2162699477032
 42
0.0
  0
VERTEX
  8
Layer1
 10
-158.661276950303
 20
-6.2245148414922
 42
0.0
  0
VERTEX
  8
Layer1
 10
-159.000053136022
 20
-6.2192806438913
 42
0.0
  0
VERTEX
  8
Layer1
 10
-159.434749226009
 20
-6.1909049863688
 42
0.0
  0
VERTEX
  8
Layer1
 10
-159.963657340508
 20
-6.1298023292776
 42
0.0
  0
VERTEX
  8
Layer1
 10
-160.584352273258
 20
-6.0265120568441
 42
0.0
  0
VERTEX
  8
Layer1
 10
-161.293700310706
 20
-5.8717461521248
 42
0.0
  0
VERTEX
  8
Layer1
 10
-162.08787101958
 20
-5.6564362727123
 42
0.0
  0
VERTEX
  8
Layer1
 10
-162.962351963493
 20
-5.3717800498863
 42
0.0
  0
VERTEX
  8
Layer1
 10
-163.704787712583
 20
-5.0883721363587
 42
-0.0196497946981
  0
VERTEX
  8
Layer1
 10
-163.969370408569
 20
-1.6414828278397
 42
0.0
  0
VERTEX
  8
Layer1
 10
-163.969370408569
 20
-1.6414828278397
 42
0.0
  0
VERTEX
  8
Layer1
 10
-163.278886226082
 20
-1.2480841995853
 42
0.0
  0
VERTEX
  8
Layer1
 10
-162.458094291839
 20
-0.8332990899902
 42
0.0
  0
VERTEX
  8
Layer1
 10
-161.706088078788
 20
-0.4993049065987
 42
0.0
  0
VERTEX
  8
Layer1
 10
-161.028670580989
 20
-0.2380910915537
 42
0.0
  0
VERTEX
  8
Layer1
 10
-160.431011372157
 20
-0.0412801416071
 42
0.0
  0
VERTEX
  8
Layer1
 10
-159.91762499527
 20
0.0998288811832
 42
0.0
  0
VERTEX
  8
Layer1
 10
-159.492352128371
 20
0.1942156242705
 42
0.0
  0
VERTEX
  8
Layer1
 10
-159.158343592509
 20
0.2510926741712
 42
0.0
  0
VERTEX
  8
Layer1
 10
-158.918047257759
 20
0.2798589134562
 42
0.0
  0
VERTEX
  8
Layer1
 10
-158.773197893109
 20
0.2900521807943
 42
0.0
  0
VERTEX
  8
Layer1
 10
-158.724809995646
 20
0.2913014119793
 42
0.0
  0
VERTEX
  8
Layer1
 10
-155.370999268021
 20
0.2660728879251
 42
-0.036490087536
  0
VERTEX
  8
Layer1
 10
-154.956539969741
 20
5.4054322069444
 42
0.0
  0
VERTEX
  8
Layer1
 10
-158.271052456732
 20
5.9179649851601
 42
0.0
  0
VERTEX
  8
Layer1
 10
-158.318614856961
 20
5.926952047188
 42
0.0
  0
VERTEX
  8
Layer1
 10
-158.45995891352
 20
5.9602251416336
 42
0.0
  0
VERTEX
  8
Layer1
 10
-158.692540239638
 20
6.0271262011032
 42
0.0
  0
VERTEX
  8
Layer1
 10
-159.01311808262
 20
6.1367918175155
 42
0.0
  0
VERTEX
  8
Layer1
 10
-159.41777007121
 20
6.298107150701
 42
0.0
  0
VERTEX
  8
Layer1
 10
-159.901909820583
 20
6.5196608267334
 42
0.0
  0
VERTEX
  8
Layer1
 10
-160.46030733147
 20
6.8097009959433
 42
0.0
  0
VERTEX
  8
Layer1
 10
-161.087112110098
 20
7.1760927166248
 42
0.0
  0
VERTEX
  8
Layer1
 10
-161.775878926029
 20
7.6262768259399
 42
0.0
  0
VERTEX
  8
Layer1
 10
-162.519596115705
 20
8.1672304544885
 42
0.0
  0
VERTEX
  8
Layer1
 10
-163.138116611187
 20
8.6661926611188
 42
-0.0196497946981
  0
VERTEX
  8
Layer1
 10
-162.324602334242
 20
12.0261397484111
 42
0.0
  0
VERTEX
  8
Layer1
 10
-162.324602334242
 20
12.0261397484111
 42
0.0
  0
VERTEX
  8
Layer1
 10
-161.546345991395
 20
12.1869127305785
 42
0.0
  0
VERTEX
  8
Layer1
 10
-160.637550825932
 20
12.3277581553943
 42
0.0
  0
VERTEX
  8
Layer1
 10
-159.819140538025
 20
12.413022800205
 42
0.0
  0
VERTEX
  8
Layer1
 10
-159.094158704476
 20
12.452118382043
 42
0.0
  0
VERTEX
  8
Layer1
 10
-158.46493309118
 20
12.4546098660941
 42
0.0
  0
VERTEX
  8
Layer1
 10
-157.933068545962
 20
12.4301674065882
 42
0.0
  0
VERTEX
  8
Layer1
 10
-157.499442907037
 20
12.3885179905352
 42
0.0
  0
VERTEX
  8
Layer1
 10
-157.164205937498
 20
12.3393969656232
 42
0.0
  0
VERTEX
  8
Layer1
 10
-156.92678128569
 20
12.2924996338208
 42
0.0
  0
VERTEX
  8
Layer1
 10
-156.785871460722
 20
12.2574330918437
 42
0.0
  0
VERTEX
  8
Layer1
 10
-156.739465801864
 20
12.2436684986644
 42
0.0
  0
VERTEX
  8
Layer1
 10
-153.557598297611
 20
11.1832902357129
 42
-0.036490087536
  0
VERTEX
  8
Layer1
 10
-151.575274711467
 20
15.9430364390034
 42
0.0
  0
VERTEX
  8
Layer1
 10
-154.569182071918
 20
17.4547247640883
 42
0.0
  0
VERTEX
  8
Layer1
 10
-154.611639447691
 20
17.4779695579564
 42
0.0
  0
VERTEX
  8
Layer1
 10
-154.735783682082
 20
17.5532918667769
 42
0.0
  0
VERTEX
  8
Layer1
 10
-154.936308103537
 20
17.6887901376771
 42
0.0
  0
VERTEX
  8
Layer1
 10
-155.207307210915
 20
17.892152338281
 42
0.0
  0
VERTEX
  8
Layer1
 10
-155.542304942087
 20
18.1706166783674
 42
0.0
  0
VERTEX
  8
Layer1
 10
-155.934285354465
 20
18.5309341558757
 42
0.0
  0
VERTEX
  8
Layer1
 10
-156.375725604541
 20
18.9793330692711
 42
0.0
  0
VERTEX
  8
Layer1
 10
-156.858631105411
 20
19.5214856314932
 42
0.0
  0
VERTEX
  8
Layer1
 10
-157.374572733534
 20
20.162476813474
 42
0.0
  0
VERTEX
  8
Layer1
 10
-157.914725948666
 20
20.9067755375373
 42
0.0
  0
VERTEX
  8
Layer1
 10
-158.348786094956
 20
21.5724501400113
 42
-0.0196497946981
  0
VERTEX
  8
Layer1
 10
-156.536807290595
 20
24.5165599750447
 42
0.0
  0
VERTEX
  8
Layer1
 10
-156.536807290595
 20
24.5165599750447
 42
0.0
  0
VERTEX
  8
Layer1
 10
-155.746959940656
 20
24.4289697314594
 42
0.0
  0
VERTEX
  8
Layer1
 10
-154.839120746717
 20
24.2820885399872
 42
0.0
  0
VERTEX
  8
Layer1
 10
-154.034418085134
 20
24.1102773487092
 42
0.0
  0
VERTEX
  8
Layer1
 10
-153.332838188949
 20
23.9234277493951
 42
0.0
  0
VERTEX
  8
Layer1
 10
-152.733639158291
 20
23.7313558837326
 42
0.0
  0
VERTEX
  8
Layer1
 10
-152.235359052147
 20
23.5437545401675
 42
0.0
  0
VERTEX
  8
Layer1
 10
-151.835826939981
 20
23.3701459000059
 42
0.0
  0
VERTEX
  8
Layer1
 10
-151.532176867077
 20
23.2198351084459
 42
0.0
  0
VERTEX
  8
Layer1
 10
-151.320864677362
 20
23.1018648431458
 42
0.0
  0
VERTEX
  8
Layer1
 10
-151.197687627522
 20
23.0249710493053
 42
0.0
  0
VERTEX
  8
Layer1
 10
-151.157806716485
 20
22.9975400060456
 42
0.0
  0
VERTEX
  8
Layer1
 10
-148.459345796295
 20
21.0058092166642
 42
-0.036490087536
  0
VERTEX
  8
Layer1
 10
-145.103201566559
 20
24.9200251827461
 42
0.0
  0
VERTEX
  8
Layer1
 10
-147.483439288251
 20
27.2828944688891
 42
0.0
  0
VERTEX
  8
Layer1
 10
-147.516635615808
 20
27.3181216322175
 42
0.0
  0
VERTEX
  8
Layer1
 10
-147.611427925405
 20
27.4281200830241
 42
0.0
  0
VERTEX
  8
Layer1
 10
-147.76026671469
 20
27.6189520505273
 42
0.0
  0
VERTEX
  8
Layer1
 10
-147.955159805671
 20
27.89610432622
 42
0.0
  0
VERTEX
  8
Layer1
 10
-148.187711367433
 20
28.2644596434243
 42
0.0
  0
VERTEX
  8
Layer1
 10
-148.449162668965
 20
28.7282705372306
 42
0.0
  0
VERTEX
  8
Layer1
 10
-148.730434410856
 20
29.2911357849894
 42
0.0
  0
VERTEX
  8
Layer1
 10
-149.022170478942
 20
29.9559795185629
 42
0.0
  0
VERTEX
  8
Layer1
 10
-149.31478295792
 20
30.725033090269
 42
0.0
  0
VERTEX
  8
Layer1
 10
-149.598498238342
 20
31.5998197649015
 42
0.0
  0
VERTEX
  8
Layer1
 10
-149.805609204048
 20
32.3670458951013
 42
-0.0196497946981
  0
VERTEX
  8
Layer1
 10
-147.172534982439
 20
34.6071284944034
 42
0.0
  0
VERTEX
  8
Layer1
 10
-147.172534982439
 20
34.6071284944034
 42
0.0
  0
VERTEX
  8
Layer1
 10
-146.44841238721
 20
34.2797489683846
 42
0.0
  0
VERTEX
  8
Layer1
 10
-145.630394790386
 20
33.859518915027
 42
0.0
  0
VERTEX
  8
Layer1
 10
-144.918169658336
 20
33.4474499641417
 42
0.0
  0
VERTEX
  8
Layer1
 10
-144.308667227947
 20
33.052945324314
 42
0.0
  0
VERTEX
  8
Layer1
 10
-143.798148555913
 20
32.6851114413923
 42
0.0
  0
VERTEX
  8
Layer1
 10
-143.382228017354
 20
32.3527149403716
 42
0.0
  0
VERTEX
  8
Layer1
 10
-143.05589841879
 20
32.0641410994029
 42
0.0
  0
VERTEX
  8
Layer1
 10
-142.813558627311
 20
31.8273540087498
 42
0.0
  0
VERTEX
  8
Layer1
 10
-142.649043609119
 20
31.6498585614668
 42
0.0
  0
VERTEX
  8
Layer1
 10
-142.555656762269
 20
31.5386644160544
 42
0.0
  0
VERTEX
  8
Layer1
 10
-142.526204420492
 20
31.500252064352
 42
0.0
  0
VERTEX
  8
Layer1
 10
-140.575294240516
 20
28.7721332354097
 42
-0.036490087536
  0
VERTEX
  8
Layer1
 10
-136.173852148027
 20
31.4576682335766
 42
0.0
  0
VERTEX
  8
Layer1
 10
-137.707425978668
 20
34.4404243719717
 42
0.0
  0
VERTEX
  8
Layer1
 10
-137.728111770177
 20
34.4841856245718
 42
0.0
  0
VERTEX
  8
Layer1
 10
-137.784273223259
 20
34.6180928025952
 42
0.0
  0
VERTEX
  8
Layer1
 10
-137.866857002657
 20
34.8455785041176
 42
0.0
  0
VERTEX
  8
Layer1
 10
-137.966566583598
 20
35.1693912591209
 42
0.0
  0
VERTEX
  8
Layer1
 10
-138.073908208801
 20
35.5915803685129
 42
0.0
  0
VERTEX
  8
Layer1
 10
-138.179237724455
 20
36.1134836367708
 42
0.0
  0
VERTEX
  8
Layer1
 10
-138.272808120329
 20
36.7357180467296
 42
0.0
  0
VERTEX
  8
Layer1
 10
-138.344817596643
 20
37.4581734147735
 42
0.0
  0
VERTEX
  8
Layer1
 10
-138.385457978282
 20
38.280009054295
 42
0.0
  0
VERTEX
  8
Layer1
 10
-138.384963295586
 20
39.1996534647866
 42
0.0
  0
VERTEX
  8
Layer1
 10
-138.344851616356
 20
39.9933296835094
 42
-0.0196497946981
  0
VERTEX
  8
Layer1
 10
-135.148425628018
 20
41.3101101546873
 42
0.0
  0
VERTEX
  8
Layer1
 10
-135.148425628018
 20
41.3101101546873
 42
0.0
  0
VERTEX
  8
Layer1
 10
-134.56090995238
 20
40.7749875352291
 42
0.0
  0
VERTEX
  8
Layer1
 10
-133.91278721451
 20
40.1225436655237
 42
0.0
  0
VERTEX
  8
Layer1
 10
-133.362757170283
 20
39.510553134997
 42
0.0
  0
VERTEX
  8
Layer1
 10
-132.904994550231
 20
38.9470103174773
 42
0.0
  0
VERTEX
  8
Layer1
 10
-132.533129361432
 20
38.4394205606063
 42
0.0
  0
VERTEX
  8
Layer1
 10
-132.240281590661
 20
37.9947661875924
 42
0.0
  0
VERTEX
  8
Layer1
 10
-132.019097920477
 20
37.619474763983
 42
0.0
  0
VERTEX
  8
Layer1
 10
-131.861790317694
 20
37.3193897444624
 42
0.0
  0
VERTEX
  8
Layer1
 10
-131.760176347249
 20
37.09974360626
 42
0.0
  0
VERTEX
  8
Layer1
 10
-131.705721058624
 20
36.965133566964
 42
0.0
  0
VERTEX
  8
Layer1
 10
-131.689580286527
 20
36.919499975438
 42
0.0
  0
VERTEX
  8
Layer1
 10
-130.677189527972
 20
33.7220403858334
 42
-0.036490087536
  0
VERTEX
  8
Layer1
 10
-125.661293391391
 20
34.9160155392421
 42
0.0
  0
VERTEX
  8
Layer1
 10
-126.198086439402
 20
38.226685576979
 42
0.0
  0
VERTEX
  8
Layer1
 10
-126.204236825462
 20
38.2746972625437
 42
0.0
  0
VERTEX
  8
Layer1
 10
-126.216269947703
 20
38.419405400213
 42
0.0
  0
VERTEX
  8
Layer1
 10
-126.224514841492
 20
38.6612769503035
 42
0.0
  0
VERTEX
  8
Layer1
 10
-126.219280643891
 20
39.0000531360215
 42
0.0
  0
VERTEX
  8
Layer1
 10
-126.190904986369
 20
39.4347492260093
 42
0.0
  0
VERTEX
  8
Layer1
 10
-126.129802329278
 20
39.963657340508
 42
0.0
  0
VERTEX
  8
Layer1
 10
-126.026512056844
 20
40.5843522732578
 42
0.0
  0
VERTEX
  8
Layer1
 10
-125.871746152125
 20
41.2937003107056
 42
0.0
  0
VERTEX
  8
Layer1
 10
-125.656436272712
 20
42.0878710195805
 42
0.0
  0
VERTEX
  8
Layer1
 10
-125.371780049886
 20
42.9623519634929
 42
0.0
  0
VERTEX
  8
Layer1
 10
-125.088372136359
 20
43.7047877125828
 42
-0.0196497946981
  0
VERTEX
  8
Layer1
 10
-121.64148282784
 20
43.9693704085686
 42
0.0
  0
VERTEX
  8
Layer1
 10
-121.64148282784
 20
43.9693704085686
 42
0.0
  0
VERTEX
  8
Layer1
 10
-121.248084199585
 20
43.2788862260819
 42
0.0
  0
VERTEX
  8
Layer1
 10
-120.83329908999
 20
42.4580942918393
 42
0.0
  0
VERTEX
  8
Layer1
 10
-120.499304906599
 20
41.7060880787878
 42
0.0
  0
VERTEX
  8
Layer1
 10
-120.238091091554
 20
41.0286705809889
 42
0.0
  0
VERTEX
  8
Layer1
 10
-120.041280141607
 20
40.4310113721567
 42
0.0
  0
VERTEX
  8
Layer1
 10
-119.900171118817
 20
39.9176249952695
 42
0.0
  0
VERTEX
  8
Layer1
 10
-119.805784375729
 20
39.4923521283712
 42
0.0
  0
VERTEX
  8
Layer1
 10
-119.748907325829
 20
39.1583435925092
 42
0.0
  0
VERTEX
  8
Layer1
 10
-119.720141086544
 20
38.9180472577594
 42
0.0
  0
VERTEX
  8
Layer1
 10
-119.709947819206
 20
38.7731978931093
 42
0.0
  0
VERTEX
  8
Layer1
 10
-119.708698588021
 20
38.7248099956461
 42
0.0
  0
VERTEX
  8
Layer1
 10
-119.733927112075
 20
35.3709992680206
 42
-0.036490087536
  0
VERTEX
  8
Layer1
 10
-114.594567793056
 20
34.9565399697414
 42
0.0
  0
VERTEX
  8
Layer1
 10
-114.08203501484
 20
38.271052456732
 42
0.0
  0
VERTEX
  8
Layer1
 10
-114.073047952812
 20
38.3186148569612
 42
0.0
  0
VERTEX
  8
Layer1
 10
-114.039774858366
 20
38.4599589135203
 42
0.0
  0
VERTEX
  8
Layer1
 10
-113.972873798897
 20
38.6925402396379
 42
0.0
  0
VERTEX
  8
Layer1
 10
-113.863208182485
 20
39.01311808262
 42
0.0
  0
VERTEX
  8
Layer1
 10
-113.701892849299
 20
39.41777007121
 42
0.0
  0
VERTEX
  8
Layer1
 10
-113.480339173267
 20
39.9019098205827
 42
0.0
  0
VERTEX
  8
Layer1
 10
-113.190299004057
 20
40.4603073314703
 42
0.0
  0
VERTEX
  8
Layer1
 10
-112.823907283375
 20
41.087112110098
 42
0.0
  0
VERTEX
  8
Layer1
 10
-112.37372317406
 20
41.775878926029
 42
0.0
  0
VERTEX
  8
Layer1
 10
-111.832769545512
 20
42.519596115705
 42
0.0
  0
VERTEX
  8
Layer1
 10
-111.333807338881
 20
43.138116611187
 42
-0.0196497946981
  0
VERTEX
  8
Layer1
 10
-107.973860251589
 20
42.3246023342416
 42
0.0
  0
VERTEX
  8
Layer1
 10
-107.973860251589
 20
42.3246023342416
 42
0.0
  0
VERTEX
  8
Layer1
 10
-107.813087269422
 20
41.5463459913945
 42
0.0
  0
VERTEX
  8
Layer1
 10
-107.672241844606
 20
40.637550825932
 42
0.0
  0
VERTEX
  8
Layer1
 10
-107.586977199795
 20
39.8191405380246
 42
0.0
  0
VERTEX
  8
Layer1
 10
-107.547881617957
 20
39.0941587044761
 42
0.0
  0
VERTEX
  8
Layer1
 10
-107.545390133906
 20
38.4649330911799
 42
0.0
  0
VERTEX
  8
Layer1
 10
-107.569832593412
 20
37.9330685459624
 42
0.0
  0
VERTEX
  8
Layer1
 10
-107.611482009465
 20
37.4994429070375
 42
0.0
  0
VERTEX
  8
Layer1
 10
-107.660603034377
 20
37.1642059374985
 42
0.0
  0
VERTEX
  8
Layer1
 10
-107.707500366179
 20
36.9267812856895
 42
0.0
  0
VERTEX
  8
Layer1
 10
-107.742566908156
 20
36.7858714607221
 42
0.0
  0
VERTEX
  8
Layer1
 10
-107.756331501336
 20
36.7394658018639
 42
0.0
  0
VERTEX
  8
Layer1
 10
-108.816709764287
 20
33.5575982976108
 42
-0.036490087536
  0
VERTEX
  8
Layer1
 10
-104.056963560997
 20
31.575274711467
 42
0.0
  0
VERTEX
  8
Layer1
 10
-102.545275235912
 20
34.5691820719183
 42
0.0
  0
VERTEX
  8
Layer1
 10
-102.522030442044
 20
34.6116394476908
 42
0.0
  0
VERTEX
  8
Layer1
 10
-102.446708133223
 20
34.7357836820818
 42
0.0
  0
VERTEX
  8
Layer1
 10
-102.311209862323
 20
34.9363081035367
 42
0.0
  0
VERTEX
  8
Layer1
 10
-102.107847661719
 20
35.2073072109147
 42
0.0
  0
VERTEX
  8
Layer1
 10
-101.829383321633
 20
35.5423049420873
 42
0.0
  0
VERTEX
  8
Layer1
 10
-101.469065844124
 20
35.9342853544655
 42
0.0
  0
VERTEX
  8
Layer1
 10
-101.020666930729
 20
36.3757256045409
 42
0.0
  0
VERTEX
  8
Layer1
 10
-100.478514368507
 20
36.8586311054109
 42
0.0
  0
VERTEX
  8
Layer1
 10
-99.837523186526
 20
37.374572733534
 42
0.0
  0
VERTEX
  8
Layer1
 10
-99.0932244624627
 20
37.9147259486657
 42
0.0
  0
VERTEX
  8
Layer1
 10
-98.4275498599887
 20
38.3487860949565
 42
-0.0196497946981
  0
VERTEX
  8
Layer1
 10
-95.4834400249553
 20
36.5368072905945
 42
0.0
  0
VERTEX
  8
Layer1
 10
-95.4834400249553
 20
36.5368072905945
 42
0.0
  0
VERTEX
  8
Layer1
 10
-95.5710302685406
 20
35.7469599406556
 42
0.0
  0
VERTEX
  8
Layer1
 10
-95.7179114600128
 20
34.8391207467169
 42
0.0
  0
VERTEX
  8
Layer1
 10
-95.8897226512908
 20
34.0344180851337
 42
0.0
  0
VERTEX
  8
Layer1
 10
-96.0765722506049
 20
33.3328381889489
 42
0.0
  0
VERTEX
  8
Layer1
 10
-96.2686441162674
 20
32.7336391582907
 42
0.0
  0
VERTEX
  8
Layer1
 10
-96.4562454598325
 20
32.2353590521469
 42
0.0
  0
VERTEX
  8
Layer1
 10
-96.6298540999941
 20
31.8358269399809
 42
0.0
  0
VERTEX
  8
Layer1
 10
-96.7801648915541
 20
31.5321768670767
 42
0.0
  0
VERTEX
  8
Layer1
 10
-96.8981351568542
 20
31.3208646773625
 42
0.0
  0
VERTEX
  8
Layer1
 10
-96.9750289506947
 20
31.1976876275222
 42
0.0
  0
VERTEX
  8
Layer1
 10
-97.0024599939544
 20
31.1578067164851
 42
0.0
  0
VERTEX
  8
Layer1
 10
-98.9941907833358
 20
28.4593457962952
 42
-0.036490087536
  0
SEQEND
  0
CIRCLE
  8
Layer1
 10
-120.0
 20
0.0
 30
0.0
 40
25.9
  0
CIRCLE
  8
Layer1
 10
-140.196171744426
 20
-16.2149513372586
 30
0.0
 40
3.0
  0
CIRCLE
  8
Layer1
 10
-123.944473906982
 20
25.5978734584954
 30
0.0
 40
3.0
  0
CIRCLE
  8
Layer1
 10
-95.8593543485928
 20
-9.3829221212368
 30
0.0
 40
3.0
  0
POLYLINE
  8
Layer1
 66
     1
 10
0.0
 20
0.0
 30
0.0
 70
     1
  0
VERTEX
  8
Layer1
 10
57.1336882487534
 20
49.1597401446982
 42
0.0
  0
VERTEX
  8
Layer1
 10
58.7102324089891
 20
50.5162515763844
 42
0.0
  0
VERTEX
  8
Layer1
 10
58.785678656153
 20
50.5769117823409
 42
0.0
  0
VERTEX
  8
Layer1
 10
59.0198720185246
 20
50.748651217461
 42
0.0
  0
VERTEX
  8
Layer1
 10
59.4237149246261
 20
51.0154661481875
 42
0.0
  0
VERTEX
  8
Layer1
 10
60.0068930114335
 20
51.3605605155773
 42
0.0
  0
VERTEX
  8
Layer1
 10
60.777824183313
 20
51.7664282312025
 42
0.0
  0
VERTEX
  8
Layer1
 10
61.7436128879226
 20
52.2149385334176
 42
0.0
  0
VERTEX
  8
Layer1
 10
62.9100097850611
 20
52.6874240866664
 42
0.0
  0
VERTEX
  8
Layer1
 10
64.2813769656941
 20
53.1647714966947
 42
0.0
  0
VERTEX
  8
Layer1
 10
64.888765910808
 20
53.3427413859876
 42
-0.0111967302195
  0
VERTEX
  8
Layer1
 10
67.211861867045
 20
50.384180298634
 42
0.0
  0
VERTEX
  8
Layer1
 10
67.211861867045
 20
50.384180298634
 42
0.0
  0
VERTEX
  8
Layer1
 10
66.8948999282835
 20
49.8363393166711
 42
0.0
  0
VERTEX
  8
Layer1
 10
66.1058906486279
 20
48.617334455895
 42
0.0
  0
VERTEX
  8
Layer1
 10
65.3702228827846
 20
47.5962971118266
 42
0.0
  0
VERTEX
  8
Layer1
 10
64.7054298807432
 20
46.7644560347084
 42
0.0
  0
VERTEX
  8
Layer1
 10
64.1282821988059
 20
46.1117968375797
 42
0.0
  0
VERTEX
  8
Layer1
 10
63.6547080174995
 20
45.6271172546215
 42
0.0
  0
VERTEX
  8
Layer1
 10
63.2997171229336
 20
45.2980872182382
 42
0.0
  0
VERTEX
  8
Layer1
 10
63.0773288321089
 20
45.1113135245383
 42
0.0
  0
VERTEX
  8
Layer1
 10
63.000504128704
 20
45.0524088409845
 42
0.0
  0
VERTEX
  8
Layer1
 10
61.3087534269847
 20
43.8426178190718
 42
-0.0168405422819
  0
VERTEX
  8
Layer1
 10
64.1205553895438
 20
39.6168242106361
 42
0.0
  0
VERTEX
  8
Layer1
 10
65.8898948151787
 20
40.7100088932777
 42
0.0
  0
VERTEX
  8
Layer1
 10
65.9739015407122
 20
40.7581198781248
 42
0.0
  0
VERTEX
  8
Layer1
 10
66.2320775608307
 20
40.8911090024547
 42
0.0
  0
VERTEX
  8
Layer1
 10
66.6726875415722
 20
41.0914640496537
 42
0.0
  0
VERTEX
  8
Layer1
 10
67.3026703911535
 20
41.3410805806967
 42
0.0
  0
VERTEX
  8
Layer1
 10
68.1276018199911
 20
41.6213511857879
 42
0.0
  0
VERTEX
  8
Layer1
 10
69.1516625322045
 20
41.913256942575
 42
0.0
  0
VERTEX
  8
Layer1
 10
70.3776121727763
 20
42.19746073999
 42
0.0
  0
VERTEX
  8
Layer1
 10
71.8067691344885
 20
42.4544021200123
 42
0.0
  0
VERTEX
  8
Layer1
 10
72.4345207382087
 20
42.5351643399436
 42
-0.0111967302195
  0
VERTEX
  8
Layer1
 10
74.2661946072787
 20
39.2496157758749
 42
0.0
  0
VERTEX
  8
Layer1
 10
74.2661946072787
 20
39.2496157758749
 42
0.0
  0
VERTEX
  8
Layer1
 10
73.8674337850109
 20
38.7581033968183
 42
0.0
  0
VERTEX
  8
Layer1
 10
72.8974441455969
 20
37.6775347532757
 42
0.0
  0
VERTEX
  8
Layer1
 10
72.0111082400163
 20
36.7841518666241
 42
0.0
  0
VERTEX
  8
Layer1
 10
71.2243713290933
 20
36.0665486711632
 42
0.0
  0
VERTEX
  8
Layer1
 10
70.5522309004859
 20
35.5122105806501
 42
0.0
  0
VERTEX
  8
Layer1
 10
70.0086666119267
 20
35.1075815313473
 42
0.0
  0
VERTEX
  8
Layer1
 10
69.6065746066227
 20
34.8381352113915
 42
0.0
  0
VERTEX
  8
Layer1
 10
69.3577064418327
 20
34.6884502051005
 42
0.0
  0
VERTEX
  8
Layer1
 10
69.2726128553499
 20
34.6422887673271
 42
0.0
  0
VERTEX
  8
Layer1
 10
67.4124374007447
 20
33.7120403964321
 42
-0.0168405422819
  0
VERTEX
  8
Layer1
 10
69.5285616527209
 20
29.0984105838066
 42
0.0
  0
VERTEX
  8
Layer1
 10
71.447129334995
 20
29.9013506824452
 42
0.0
  0
VERTEX
  8
Layer1
 10
71.5376280145131
 20
29.9357277940646
 42
0.0
  0
VERTEX
  8
Layer1
 10
71.8134295419261
 20
30.0266919739977
 42
0.0
  0
VERTEX
  8
Layer1
 10
72.2799573172811
 20
30.1556537314669
 42
0.0
  0
VERTEX
  8
Layer1
 10
72.9412326610863
 20
30.3036460387391
 42
0.0
  0
VERTEX
  8
Layer1
 10
73.7998517973136
 20
30.4514183408342
 42
0.0
  0
VERTEX
  8
Layer1
 10
74.8569687437335
 20
30.5795318636816
 42
0.0
  0
VERTEX
  8
Layer1
 10
76.1122841788941
 20
30.6684558645522
 42
0.0
  0
VERTEX
  8
Layer1
 10
77.5640403341881
 20
30.6986644650526
 42
0.0
  0
VERTEX
  8
Layer1
 10
78.1966972686428
 20
30.6802303817332
 42
-0.0111967302195
  0
VERTEX
  8
Layer1
 10
79.4918471609122
 20
27.1485954507073
 42
0.0
  0
VERTEX
  8
Layer1
 10
79.4918471609122
 20
27.1485954507073
 42
0.0
  0
VERTEX
  8
Layer1
 10
79.0211062699939
 20
26.7255143405654
 42
0.0
  0
VERTEX
  8
Layer1
 10
77.8940206349547
 20
25.8099891004619
 42
0.0
  0
VERTEX
  8
Layer1
 10
76.8788411212125
 20
25.0662587228644
 42
0.0
  0
VERTEX
  8
Layer1
 10
75.9895323751849
 20
24.4805631813215
 42
0.0
  0
VERTEX
  8
Layer1
 10
75.2389495279659
 20
24.038195840955
 42
0.0
  0
VERTEX
  8
Layer1
 10
74.6387794889248
 20
23.7235806353883
 42
0.0
  0
VERTEX
  8
Layer1
 10
74.1994872125201
 20
23.5203526944983
 42
0.0
  0
VERTEX
  8
Layer1
 10
73.930267133928
 20
23.4114421172473
 42
0.0
  0
VERTEX
  8
Layer1
 10
73.838999950876
 20
23.3791605730532
 42
0.0
  0
VERTEX
  8
Layer1
 10
71.8562034366457
 20
22.7513606553847
 42
-0.0168405422819
  0
VERTEX
  8
Layer1
 10
73.2245439759414
 20
17.8634975163159
 42
0.0
  0
VERTEX
  8
Layer1
 10
75.245098411156
 20
18.3564219809175
 42
0.0
  0
VERTEX
  8
Layer1
 10
75.3398606668212
 20
18.37621874073
 42
0.0
  0
VERTEX
  8
Layer1
 10
75.626496552591
 20
18.4229181362636
 42
0.0
  0
VERTEX
  8
Layer1
 10
76.1074546604132
 20
18.4773111375345
 42
0.0
  0
VERTEX
  8
Layer1
 10
76.7837397048308
 20
18.5200351592726
 42
0.0
  0
VERTEX
  8
Layer1
 10
77.6549044957205
 20
18.5316705138658
 42
0.0
  0
VERTEX
  8
Layer1
 10
78.719047948756
 20
18.4928372226566
 42
0.0
  0
VERTEX
  8
Layer1
 10
79.9728191463386
 20
18.3842918229594
 42
0.0
  0
VERTEX
  8
Layer1
 10
81.4114274405686
 20
18.1870238079371
 42
0.0
  0
VERTEX
  8
Layer1
 10
82.0334115923636
 20
18.0698473296776
 42
-0.0111967302195
  0
VERTEX
  8
Layer1
 10
82.7601466191288
 20
14.3790866045207
 42
0.0
  0
VERTEX
  8
Layer1
 10
82.7601466191288
 20
14.3790866045207
 42
0.0
  0
VERTEX
  8
Layer1
 10
82.2290168625937
 20
14.0348544243508
 42
0.0
  0
VERTEX
  8
Layer1
 10
80.9725878208468
 20
13.306915857552
 42
0.0
  0
VERTEX
  8
Layer1
 10
79.8535617877589
 20
12.7311510992046
 42
0.0
  0
VERTEX
  8
Layer1
 10
78.8835789394005
 20
12.2917849796245
 42
0.0
  0
VERTEX
  8
Layer1
 10
78.0730355143101
 20
11.9722809414575
 42
0.0
  0
VERTEX
  8
Layer1
 10
77.4310379029982
 20
11.7554264501359
 42
0.0
  0
VERTEX
  8
Layer1
 10
76.9653621892655
 20
11.6234210346914
 42
0.0
  0
VERTEX
  8
Layer1
 10
76.6824192886966
 20
11.5579666263457
 42
0.0
  0
VERTEX
  8
Layer1
 10
76.5872258100204
 20
11.5403598544852
 42
0.0
  0
VERTEX
  8
Layer1
 10
74.5306312668697
 20
11.2304669075648
 42
-0.0168405422819
  0
VERTEX
  8
Layer1
 10
75.1174950081456
 20
6.1887258544241
 42
0.0
  0
VERTEX
  8
Layer1
 10
77.1902834402701
 20
6.3594972487478
 42
0.0
  0
VERTEX
  8
Layer1
 10
77.2869759108498
 20
6.3642261948252
 42
0.0
  0
VERTEX
  8
Layer1
 10
77.5773882281789
 20
6.3655109118548
 42
0.0
  0
VERTEX
  8
Layer1
 10
78.0609338836453
 20
6.3439958207161
 42
0.0
  0
VERTEX
  8
Layer1
 10
78.7355762464204
 20
6.280399549712
 42
0.0
  0
VERTEX
  8
Layer1
 10
79.5978357235905
 20
6.1556114557577
 42
0.0
  0
VERTEX
  8
Layer1
 10
80.6428029397382
 20
5.9507875550017
 42
0.0
  0
VERTEX
  8
Layer1
 10
81.8641578918304
 20
5.6474455027189
 42
0.0
  0
VERTEX
  8
Layer1
 10
83.2541950143252
 20
5.2275582653987
 42
0.0
  0
VERTEX
  8
Layer1
 10
83.8501910693963
 20
5.0145246659802
 42
-0.0111967302195
  0
VERTEX
  8
Layer1
 10
83.9906166024029
 20
1.2555169246784
 42
0.0
  0
VERTEX
  8
Layer1
 10
83.9906166024029
 20
1.2555169246784
 42
0.0
  0
VERTEX
  8
Layer1
 10
83.4121761575756
 20
0.9986098131974
 42
0.0
  0
VERTEX
  8
Layer1
 10
82.0573411619777
 20
0.4761821831074
 42
0.0
  0
VERTEX
  8
Layer1
 10
80.8620227443134
 20
0.0825602832142
 42
0.0
  0
VERTEX
  8
Layer1
 10
79.8352499905391
 20
-0.1996577623664
 42
0.0
  0
VERTEX
  8
Layer1
 10
78.9847042567424
 20
-0.3884312485411
 42
0.0
  0
VERTEX
  8
Layer1
 10
78.3166871850183
 20
-0.5021853483425
 42
0.0
  0
VERTEX
  8
Layer1
 10
77.8360945155187
 20
-0.5597178269124
 42
0.0
  0
VERTEX
  8
Layer1
 10
77.5463957862185
 20
-0.5801043615886
 42
0.0
  0
VERTEX
  8
Layer1
 10
77.4496199912923
 20
-0.5826028239587
 42
0.0
  0
VERTEX
  8
Layer1
 10
75.3698676023195
 20
-0.5669582073022
 42
-0.0168405422819
  0
VERTEX
  8
Layer1
 10
75.1608040125763
 20
-5.6384327772071
 42
0.0
  0
VERTEX
  8
Layer1
 10
77.2347875112214
 20
-5.7940194116474
 42
0.0
  0
VERTEX
  8
Layer1
 10
77.3310293071862
 20
-5.8044747216521
 42
0.0
  0
VERTEX
  8
Layer1
 10
77.6180671409985
 20
-5.8486363171233
 42
0.0
  0
VERTEX
  8
Layer1
 10
78.0922938452755
 20
-5.9455297277233
 42
0.0
  0
VERTEX
  8
Layer1
 10
78.748681592427
 20
-6.1138803402136
 42
0.0
  0
VERTEX
  8
Layer1
 10
79.5808040658744
 20
-6.3720191856944
 42
0.0
  0
VERTEX
  8
Layer1
 10
80.5808644842255
 20
-6.7377902517888
 42
0.0
  0
VERTEX
  8
Layer1
 10
81.739729378462
 20
-7.2284596685955
 42
0.0
  0
VERTEX
  8
Layer1
 10
83.0469680019972
 20
-7.8606271109049
 42
0.0
  0
VERTEX
  8
Layer1
 10
83.602300559471
 20
-8.1642722372468
 42
-0.0111967302195
  0
VERTEX
  8
Layer1
 10
83.1529588560508
 20
-11.8989677486714
 42
0.0
  0
VERTEX
  8
Layer1
 10
83.1529588560508
 20
-11.8989677486714
 42
0.0
  0
VERTEX
  8
Layer1
 10
82.5414508464166
 20
-12.0622238857528
 42
0.0
  0
VERTEX
  8
Layer1
 10
81.1215704309989
 20
-12.3662766770434
 42
0.0
  0
VERTEX
  8
Layer1
 10
79.8793923352353
 20
-12.5680634409507
 42
0.0
  0
VERTEX
  8
Layer1
 10
78.8211122289066
 20
-12.6861842676217
 42
0.0
  0
VERTEX
  8
Layer1
 10
77.9515074451692
 20
-12.7395789720712
 42
0.0
  0
VERTEX
  8
Layer1
 10
77.2739197103602
 20
-12.747431676887
 42
0.0
  0
VERTEX
  8
Layer1
 10
76.7902438716125
 20
-12.7290745780206
 42
0.0
  0
VERTEX
  8
Layer1
 10
76.5009226577513
 20
-12.7038912548845
 42
0.0
  0
VERTEX
  8
Layer1
 10
76.4049474878266
 20
-12.6912198873287
 42
0.0
  0
VERTEX
  8
Layer1
 10
74.3532476591507
 20
-12.350422929479
 42
-0.0168405422819
  0
VERTEX
  8
Layer1
 10
73.3534045778102
 20
-17.3267544809779
 42
0.0
  0
VERTEX
  8
Layer1
 10
75.3775147860825
 20
-17.8048680848799
 42
0.0
  0
VERTEX
  8
Layer1
 10
75.4709361150075
 20
-17.830250206535
 42
0.0
  0
VERTEX
  8
Layer1
 10
75.7475316412108
 20
-17.9187707094628
 42
0.0
  0
VERTEX
  8
Layer1
 10
76.2007623589709
 20
-18.0886566021843
 42
0.0
  0
VERTEX
  8
Layer1
 10
76.8227330457378
 20
-18.3576162053576
 42
0.0
  0
VERTEX
  8
Layer1
 10
77.6042288985101
 20
-18.7427495672753
 42
0.0
  0
VERTEX
  8
Layer1
 10
78.5347577125545
 20
-19.2604613011366
 42
0.0
  0
VERTEX
  8
Layer1
 10
79.6025974491871
 20
-19.9263761729869
 42
0.0
  0
VERTEX
  8
Layer1
 10
80.7948490203749
 20
-20.7552577598125
 42
0.0
  0
VERTEX
  8
Layer1
 10
81.2958439496433
 20
-21.1420376623266
 42
-0.0111967302195
  0
VERTEX
  8
Layer1
 10
80.2677992938142
 20
-24.7604603456389
 42
0.0
  0
VERTEX
  8
Layer1
 10
80.2677992938142
 20
-24.7604603456389
 42
0.0
  0
VERTEX
  8
Layer1
 10
79.6382810760491
 20
-24.8260456004099
 42
0.0
  0
VERTEX
  8
Layer1
 10
78.1883174089522
 20
-24.9042367640861
 42
0.0
  0
VERTEX
  8
Layer1
 10
76.9298661823597
 20
-24.9092197321883
 42
0.0
  0
VERTEX
  8
Layer1
 10
75.8661370919247
 20
-24.8603348131764
 42
0.0
  0
VERTEX
  8
Layer1
 10
74.998885814075
 20
-24.7770359810703
 42
0.0
  0
VERTEX
  8
Layer1
 10
74.3284118749969
 20
-24.6787939312464
 42
0.0
  0
VERTEX
  8
Layer1
 10
73.853562571379
 20
-24.5849992676415
 42
0.0
  0
VERTEX
  8
Layer1
 10
73.5717429214443
 20
-24.5148661836874
 42
0.0
  0
VERTEX
  8
Layer1
 10
73.4789316037279
 20
-24.4873369973288
 42
0.0
  0
VERTEX
  8
Layer1
 10
71.5058039943322
 20
-23.8297792504283
 42
-0.0168405422819
  0
VERTEX
  8
Layer1
 10
69.7398008763459
 20
-28.5884339852258
 42
0.0
  0
VERTEX
  8
Layer1
 10
71.6641974832813
 20
-29.3773018148932
 42
0.0
  0
VERTEX
  8
Layer1
 10
71.7524980020006
 20
-29.4169857561253
 42
0.0
  0
VERTEX
  8
Layer1
 10
72.0118405207718
 20
-29.5476854979449
 42
0.0
  0
VERTEX
  8
Layer1
 10
72.4329152075573
 20
-29.78638071829
 42
0.0
  0
VERTEX
  8
Layer1
 10
73.0051538514291
 20
-30.1493266340905
 42
0.0
  0
VERTEX
  8
Layer1
 10
73.7167800619949
 20
-30.6519712508904
 42
0.0
  0
VERTEX
  8
Layer1
 10
74.5548645640827
 20
-31.308875871444
 42
0.0
  0
VERTEX
  8
Layer1
 10
75.5053853848387
 20
-32.1336391641484
 42
0.0
  0
VERTEX
  8
Layer1
 10
76.5532927131405
 20
-33.1388250799221
 42
0.0
  0
VERTEX
  8
Layer1
 10
76.987613856338
 20
-33.5992159537598
 42
-0.0111967302195
  0
VERTEX
  8
Layer1
 10
75.406180119411
 20
-37.0122682336402
 42
0.0
  0
VERTEX
  8
Layer1
 10
75.406180119411
 20
-37.0122682336402
 42
0.0
  0
VERTEX
  8
Layer1
 10
74.7741525212876
 20
-36.9785676794634
 42
0.0
  0
VERTEX
  8
Layer1
 10
73.3298085201488
 20
-36.8289718895738
 42
0.0
  0
VERTEX
  8
Layer1
 10
72.0860714084864
 20
-36.6370283646587
 42
0.0
  0
VERTEX
  8
Layer1
 10
71.0430858744661
 20
-36.4223414089098
 42
0.0
  0
VERTEX
  8
Layer1
 10
70.1995427072066
 20
-36.2044001339475
 42
0.0
  0
VERTEX
  8
Layer1
 10
69.552691857415
 20
-36.0024823747972
 42
0.0
  0
VERTEX
  8
Layer1
 10
69.0983614547165
 20
-35.8355596823584
 42
0.0
  0
VERTEX
  8
Layer1
 10
68.8309827037954
 20
-35.7222037468716
 42
0.0
  0
VERTEX
  8
Layer1
 10
68.7436205609526
 20
-35.6804946016425
 42
0.0
  0
VERTEX
  8
Layer1
 10
66.8976501210156
 20
-34.7223673197289
 42
-0.0168405422819
  0
VERTEX
  8
Layer1
 10
64.4089718241767
 20
-39.1461713651847
 42
0.0
  0
VERTEX
  8
Layer1
 10
66.1862697986061
 20
-40.226368876549
 42
0.0
  0
VERTEX
  8
Layer1
 10
66.2672752552964
 20
-40.2793774870214
 42
0.0
  0
VERTEX
  8
Layer1
 10
66.5029788931148
 20
-40.4490382063215
 42
0.0
  0
VERTEX
  8
Layer1
 10
66.8815292926702
 20
-40.7506652857815
 42
0.0
  0
VERTEX
  8
Layer1
 10
67.3899454790836
 20
-41.1986605812137
 42
0.0
  0
VERTEX
  8
Layer1
 10
68.0141794483869
 20
-41.8064396742484
 42
0.0
  0
VERTEX
  8
Layer1
 10
68.7391832166338
 20
-42.5863620095949
 42
0.0
  0
VERTEX
  8
Layer1
 10
69.5489801443084
 20
-43.5496653136544
 42
0.0
  0
VERTEX
  8
Layer1
 10
70.4267402734962
 20
-44.7064045451091
 42
0.0
  0
VERTEX
  8
Layer1
 10
70.7836932026481
 20
-45.2290700390068
 42
-0.0111967302195
  0
VERTEX
  8
Layer1
 10
68.6878105317041
 20
-48.3527112410536
 42
0.0
  0
VERTEX
  8
Layer1
 10
68.6878105317041
 20
-48.3527112410536
 42
0.0
  0
VERTEX
  8
Layer1
 10
68.0688361702675
 20
-48.2205546974185
 42
0.0
  0
VERTEX
  8
Layer1
 10
66.6656763778978
 20
-47.8468554987902
 42
0.0
  0
VERTEX
  8
Layer1
 10
65.4672783165814
 20
-47.4627117674652
 42
0.0
  0
VERTEX
  8
Layer1
 10
64.4707181042938
 20
-47.087509080335
 42
0.0
  0
VERTEX
  8
Layer1
 10
63.6716538799619
 20
-46.7402918000117
 42
0.0
  0
VERTEX
  8
Layer1
 10
63.0643537341534
 20
-46.4396702168919
 42
0.0
  0
VERTEX
  8
Layer1
 10
62.641729354725
 20
-46.2037296862917
 42
0.0
  0
VERTEX
  8
Layer1
 10
62.3953752550443
 20
-46.0499420986106
 42
0.0
  0
VERTEX
  8
Layer1
 10
62.3156134329703
 20
-45.9950800120913
 42
0.0
  0
VERTEX
  8
Layer1
 10
60.6422540811478
 20
-44.7599754686875
 42
-0.0168405422819
  0
VERTEX
  8
Layer1
 10
57.4921801245742
 20
-48.7400000874386
 42
0.0
  0
VERTEX
  8
Layer1
 10
59.0786164918534
 20
-50.0849292327999
 42
0.0
  0
VERTEX
  8
Layer1
 10
59.1503322633292
 20
-50.1499572645973
 42
0.0
  0
VERTEX
  8
Layer1
 10
59.3565932143762
 20
-50.3544013513972
 42
0.0
  0
VERTEX
  8
Layer1
 10
59.6832981595278
 20
-50.7115332302328
 42
0.0
  0
VERTEX
  8
Layer1
 10
60.1153729946366
 20
-51.233546774312
 42
0.0
  0
VERTEX
  8
Layer1
 10
60.6368440106395
 20
-51.9314948052078
 42
0.0
  0
VERTEX
  8
Layer1
 10
61.2309150461216
 20
-52.8152305790371
 42
0.0
  0
VERTEX
  8
Layer1
 10
61.8800481927935
 20
-53.8933541700854
 42
0.0
  0
VERTEX
  8
Layer1
 10
62.5660477553679
 20
-55.1731639583454
 42
0.0
  0
VERTEX
  8
Layer1
 10
62.8368431046997
 20
-55.745234313216
 42
-0.0111967302195
  0
VERTEX
  8
Layer1
 10
60.2781190869331
 20
-58.502550024264
 42
0.0
  0
VERTEX
  8
Layer1
 10
60.2781190869331
 20
-58.502550024264
 42
0.0
  0
VERTEX
  8
Layer1
 10
59.6874391652199
 20
-58.2751916238772
 42
0.0
  0
VERTEX
  8
Layer1
 10
58.3600140325279
 20
-57.686590731017
 42
0.0
  0
VERTEX
  8
Layer1
 10
57.2364635590823
 20
-57.1197056868473
 42
0.0
  0
VERTEX
  8
Layer1
 10
56.3108672883477
 20
-56.5932260037192
 42
0.0
  0
VERTEX
  8
Layer1
 10
55.5759576200884
 20
-56.1252823598247
 42
0.0
  0
VERTEX
  8
Layer1
 10
55.0231619233665
 20
-55.7333592538175
 42
0.0
  0
VERTEX
  8
Layer1
 10
54.6426499820396
 20
-55.4342105239611
 42
0.0
  0
VERTEX
  8
Layer1
 10
54.4233865891359
 20
-55.2437780448862
 42
0.0
  0
VERTEX
  8
Layer1
 10
54.3531890886044
 20
-55.1771139037236
 42
0.0
  0
VERTEX
  8
Layer1
 10
52.8936444856996
 20
-53.6954444717652
 42
-0.0168405422819
  0
VERTEX
  8
Layer1
 10
49.1597401446982
 20
-57.1336882487534
 42
0.0
  0
VERTEX
  8
Layer1
 10
50.5162515763843
 20
-58.7102324089891
 42
0.0
  0
VERTEX
  8
Layer1
 10
50.5769117823409
 20
-58.785678656153
 42
0.0
  0
VERTEX
  8
Layer1
 10
50.748651217461
 20
-59.0198720185246
 42
0.0
  0
VERTEX
  8
Layer1
 10
51.0154661481875
 20
-59.4237149246262
 42
0.0
  0
VERTEX
  8
Layer1
 10
51.3605605155773
 20
-60.0068930114336
 42
0.0
  0
VERTEX
  8
Layer1
 10
51.7664282312025
 20
-60.777824183313
 42
0.0
  0
VERTEX
  8
Layer1
 10
52.2149385334176
 20
-61.7436128879226
 42
0.0
  0
VERTEX
  8
Layer1
 10
52.6874240866663
 20
-62.9100097850611
 42
0.0
  0
VERTEX
  8
Layer1
 10
53.1647714966947
 20
-64.2813769656941
 42
0.0
  0
VERTEX
  8
Layer1
 10
53.3427413859876
 20
-64.8887659108081
 42
-0.0111967302195
  0
VERTEX
  8
Layer1
 10
50.384180298634
 20
-67.211861867045
 42
0.0
  0
VERTEX
  8
Layer1
 10
50.384180298634
 20
-67.211861867045
 42
0.0
  0
VERTEX
  8
Layer1
 10
49.8363393166711
 20
-66.8948999282835
 42
0.0
  0
VERTEX
  8
Layer1
 10
48.617334455895
 20
-66.1058906486279
 42
0.0
  0
VERTEX
  8
Layer1
 10
47.5962971118266
 20
-65.3702228827846
 42
0.0
  0
VERTEX
  8
Layer1
 10
46.7644560347084
 20
-64.7054298807432
 42
0.0
  0
VERTEX
  8
Layer1
 10
46.1117968375797
 20
-64.1282821988059
 42
0.0
  0
VERTEX
  8
Layer1
 10
45.6271172546215
 20
-63.6547080174996
 42
0.0
  0
VERTEX
  8
Layer1
 10
45.2980872182382
 20
-63.2997171229336
 42
0.0
  0
VERTEX
  8
Layer1
 10
45.1113135245383
 20
-63.0773288321089
 42
0.0
  0
VERTEX
  8
Layer1
 10
45.0524088409845
 20
-63.000504128704
 42
0.0
  0
VERTEX
  8
Layer1
 10
43.8426178190718
 20
-61.3087534269847
 42
-0.0168405422819
  0
VERTEX
  8
Layer1
 10
39.6168242106361
 20
-64.1205553895438
 42
0.0
  0
VERTEX
  8
Layer1
 10
40.7100088932777
 20
-65.8898948151787
 42
0.0
  0
VERTEX
  8
Layer1
 10
40.7581198781248
 20
-65.9739015407122
 42
0.0
  0
VERTEX
  8
Layer1
 10
40.8911090024547
 20
-66.2320775608307
 42
0.0
  0
VERTEX
  8
Layer1
 10
41.0914640496537
 20
-66.6726875415722
 42
0.0
  0
VERTEX
  8
Layer1
 10
41.3410805806967
 20
-67.3026703911535
 42
0.0
  0
VERTEX
  8
Layer1
 10
41.6213511857879
 20
-68.1276018199911
 42
0.0
  0
VERTEX
  8
Layer1
 10
41.913256942575
 20
-69.1516625322045
 42
0.0
  0
VERTEX
  8
Layer1
 10
42.19746073999
 20
-70.3776121727763
 42
0.0
  0
VERTEX
  8
Layer1
 10
42.4544021200123
 20
-71.8067691344885
 42
0.0
  0
VERTEX
  8
Layer1
 10
42.5351643399436
 20
-72.4345207382087
 42
-0.0111967302195
  0
VERTEX
  8
Layer1
 10
39.2496157758749
 20
-74.2661946072787
 42
0.0
  0
VERTEX
  8
Layer1
 10
39.2496157758749
 20
-74.2661946072787
 42
0.0
  0
VERTEX
  8
Layer1
 10
38.7581033968183
 20
-73.8674337850109
 42
0.0
  0
VERTEX
  8
Layer1
 10
37.6775347532757
 20
-72.8974441455969
 42
0.0
  0
VERTEX
  8
Layer1
 10
36.7841518666241
 20
-72.0111082400163
 42
0.0
  0
VERTEX
  8
Layer1
 10
36.0665486711632
 20
-71.2243713290933
 42
0.0
  0
VERTEX
  8
Layer1
 10
35.5122105806501
 20
-70.5522309004859
 42
0.0
  0
VERTEX
  8
Layer1
 10
35.1075815313473
 20
-70.0086666119267
 42
0.0
  0
VERTEX
  8
Layer1
 10
34.8381352113915
 20
-69.6065746066227
 42
0.0
  0
VERTEX
  8
Layer1
 10
34.6884502051005
 20
-69.3577064418327
 42
0.0
  0
VERTEX
  8
Layer1
 10
34.6422887673271
 20
-69.2726128553499
 42
0.0
  0
VERTEX
  8
Layer1
 10
33.7120403964321
 20
-67.4124374007447
 42
-0.0168405422819
  0
VERTEX
  8
Layer1
 10
29.0984105838066
 20
-69.5285616527209
 42
0.0
  0
VERTEX
  8
Layer1
 10
29.9013506824452
 20
-71.447129334995
 42
0.0
  0
VERTEX
  8
Layer1
 10
29.9357277940646
 20
-71.5376280145131
 42
0.0
  0
VERTEX
  8
Layer1
 10
30.0266919739977
 20
-71.8134295419261
 42
0.0
  0
VERTEX
  8
Layer1
 10
30.1556537314669
 20
-72.279957317281
 42
0.0
  0
VERTEX
  8
Layer1
 10
30.3036460387391
 20
-72.9412326610863
 42
0.0
  0
VERTEX
  8
Layer1
 10
30.4514183408342
 20
-73.7998517973136
 42
0.0
  0
VERTEX
  8
Layer1
 10
30.5795318636816
 20
-74.8569687437335
 42
0.0
  0
VERTEX
  8
Layer1
 10
30.6684558645522
 20
-76.1122841788941
 42
0.0
  0
VERTEX
  8
Layer1
 10
30.6986644650526
 20
-77.5640403341881
 42
0.0
  0
VERTEX
  8
Layer1
 10
30.6802303817332
 20
-78.1966972686428
 42
-0.0111967302195
  0
VERTEX
  8
Layer1
 10
27.1485954507073
 20
-79.4918471609122
 42
0.0
  0
VERTEX
  8
Layer1
 10
27.1485954507073
 20
-79.4918471609122
 42
0.0
  0
VERTEX
  8
Layer1
 10
26.7255143405654
 20
-79.0211062699939
 42
0.0
  0
VERTEX
  8
Layer1
 10
25.8099891004619
 20
-77.8940206349547
 42
0.0
  0
VERTEX
  8
Layer1
 10
25.0662587228644
 20
-76.8788411212125
 42
0.0
  0
VERTEX
  8
Layer1
 10
24.4805631813215
 20
-75.9895323751849
 42
0.0
  0
VERTEX
  8
Layer1
 10
24.038195840955
 20
-75.2389495279659
 42
0.0
  0
VERTEX
  8
Layer1
 10
23.7235806353883
 20
-74.6387794889248
 42
0.0
  0
VERTEX
  8
Layer1
 10
23.5203526944983
 20
-74.1994872125201
 42
0.0
  0
VERTEX
  8
Layer1
 10
23.4114421172473
 20
-73.930267133928
 42
0.0
  0
VERTEX
  8
Layer1
 10
23.3791605730532
 20
-73.838999950876
 42
0.0
  0
VERTEX
  8
Layer1
 10
22.7513606553847
 20
-71.8562034366457
 42
-0.0168405422819
  0
VERTEX
  8
Layer1
 10
17.8634975163159
 20
-73.2245439759414
 42
0.0
  0
VERTEX
  8
Layer1
 10
18.3564219809175
 20
-75.245098411156
 42
0.0
  0
VERTEX
  8
Layer1
 10
18.37621874073
 20
-75.3398606668212
 42
0.0
  0
VERTEX
  8
Layer1
 10
18.4229181362636
 20
-75.626496552591
 42
0.0
  0
VERTEX
  8
Layer1
 10
18.4773111375345
 20
-76.1074546604132
 42
0.0
  0
VERTEX
  8
Layer1
 10
18.5200351592726
 20
-76.7837397048308
 42
0.0
  0
VERTEX
  8
Layer1
 10
18.5316705138658
 20
-77.6549044957205
 42
0.0
  0
VERTEX
  8
Layer1
 10
18.4928372226566
 20
-78.719047948756
 42
0.0
  0
VERTEX
  8
Layer1
 10
18.3842918229594
 20
-79.9728191463386
 42
0.0
  0
VERTEX
  8
Layer1
 10
18.1870238079371
 20
-81.4114274405686
 42
0.0
  0
VERTEX
  8
Layer1
 10
18.0698473296776
 20
-82.0334115923636
 42
-0.0111967302195
  0
VERTEX
  8
Layer1
 10
14.3790866045207
 20
-82.7601466191288
 42
0.0
  0
VERTEX
  8
Layer1
 10
14.3790866045207
 20
-82.7601466191288
 42
0.0
  0
VERTEX
  8
Layer1
 10
14.0348544243508
 20
-82.2290168625937
 42
0.0
  0
VERTEX
  8
Layer1
 10
13.306915857552
 20
-80.9725878208468
 42
0.0
  0
VERTEX
  8
Layer1
 10
12.7311510992046
 20
-79.8535617877589
 42
0.0
  0
VERTEX
  8
Layer1
 10
12.2917849796245
 20
-78.8835789394005
 42
0.0
  0
VERTEX
  8
Layer1
 10
11.9722809414575
 20
-78.0730355143101
 42
0.0
  0
VERTEX
  8
Layer1
 10
11.7554264501359
 20
-77.4310379029982
 42
0.0
  0
VERTEX
  8
Layer1
 10
11.6234210346914
 20
-76.9653621892655
 42
0.0
  0
VERTEX
  8
Layer1
 10
11.5579666263457
 20
-76.6824192886966
 42
0.0
  0
VERTEX
  8
Layer1
 10
11.5403598544852
 20
-76.5872258100204
 42
0.0
  0
VERTEX
  8
Layer1
 10
11.2304669075648
 20
-74.5306312668697
 42
-0.0168405422819
  0
VERTEX
  8
Layer1
 10
6.1887258544241
 20
-75.1174950081456
 42
0.0
  0
VERTEX
  8
Layer1
 10
6.3594972487478
 20
-77.1902834402701
 42
0.0
  0
VERTEX
  8
Layer1
 10
6.3642261948252
 20
-77.2869759108498
 42
0.0
  0
VERTEX
  8
Layer1
 10
6.3655109118548
 20
-77.5773882281789
 42
0.0
  0
VERTEX
  8
Layer1
 10
6.3439958207161
 20
-78.0609338836453
 42
0.0
  0
VERTEX
  8
Layer1
 10
6.280399549712
 20
-78.7355762464204
 42
0.0
  0
VERTEX
  8
Layer1
 10
6.1556114557577
 20
-79.5978357235905
 42
0.0
  0
VERTEX
  8
Layer1
 10
5.9507875550017
 20
-80.6428029397382
 42
0.0
  0
VERTEX
  8
Layer1
 10
5.6474455027189
 20
-81.8641578918303
 42
0.0
  0
VERTEX
  8
Layer1
 10
5.2275582653988
 20
-83.2541950143252
 42
0.0
  0
VERTEX
  8
Layer1
 10
5.0145246659802
 20
-83.8501910693963
 42
-0.0111967302195
  0
VERTEX
  8
Layer1
 10
1.2555169246784
 20
-83.9906166024029
 42
0.0
  0
VERTEX
  8
Layer1
 10
1.2555169246784
 20
-83.9906166024029
 42
0.0
  0
VERTEX
  8
Layer1
 10
0.9986098131974
 20
-83.4121761575756
 42
0.0
  0
VERTEX
  8
Layer1
 10
0.4761821831074
 20
-82.0573411619777
 42
0.0
  0
VERTEX
  8
Layer1
 10
0.0825602832142
 20
-80.8620227443134
 42
0.0
  0
VERTEX
  8
Layer1
 10
-0.1996577623664
 20
-79.8352499905391
 42
0.0
  0
VERTEX
  8
Layer1
 10
-0.3884312485411
 20
-78.9847042567424
 42
0.0
  0
VERTEX
  8
Layer1
 10
-0.5021853483425
 20
-78.3166871850183
 42
0.0
  0
VERTEX
  8
Layer1
 10
-0.5597178269124
 20
-77.8360945155187
 42
0.0
  0
VERTEX
  8
Layer1
 10
-0.5801043615885
 20
-77.5463957862185
 42
0.0
  0
VERTEX
  8
Layer1
 10
-0.5826028239586
 20
-77.4496199912923
 42
0.0
  0
VERTEX
  8
Layer1
 10
-0.5669582073022
 20
-75.3698676023195
 42
-0.0168405422819
  0
VERTEX
  8
Layer1
 10
-5.6384327772071
 20
-75.1608040125764
 42
0.0
  0
VERTEX
  8
Layer1
 10
-5.7940194116474
 20
-77.2347875112214
 42
0.0
  0
VERTEX
  8
Layer1
 10
-5.804474721652
 20
-77.3310293071862
 42
0.0
  0
VERTEX
  8
Layer1
 10
-5.8486363171233
 20
-77.6180671409985
 42
0.0
  0
VERTEX
  8
Layer1
 10
-5.9455297277233
 20
-78.0922938452755
 42
0.0
  0
VERTEX
  8
Layer1
 10
-6.1138803402136
 20
-78.7486815924271
 42
0.0
  0
VERTEX
  8
Layer1
 10
-6.3720191856943
 20
-79.5808040658744
 42
0.0
  0
VERTEX
  8
Layer1
 10
-6.7377902517888
 20
-80.5808644842255
 42
0.0
  0
VERTEX
  8
Layer1
 10
-7.2284596685955
 20
-81.739729378462
 42
0.0
  0
VERTEX
  8
Layer1
 10
-7.8606271109049
 20
-83.0469680019972
 42
0.0
  0
VERTEX
  8
Layer1
 10
-8.1642722372468
 20
-83.602300559471
 42
-0.0111967302195
  0
VERTEX
  8
Layer1
 10
-11.8989677486714
 20
-83.1529588560508
 42
0.0
  0
VERTEX
  8
Layer1
 10
-11.8989677486714
 20
-83.1529588560508
 42
0.0
  0
VERTEX
  8
Layer1
 10
-12.0622238857528
 20
-82.5414508464166
 42
0.0
  0
VERTEX
  8
Layer1
 10
-12.3662766770434
 20
-81.121570430999
 42
0.0
  0
VERTEX
  8
Layer1
 10
-12.5680634409507
 20
-79.8793923352353
 42
0.0
  0
VERTEX
  8
Layer1
 10
-12.6861842676217
 20
-78.8211122289066
 42
0.0
  0
VERTEX
  8
Layer1
 10
-12.7395789720712
 20
-77.9515074451692
 42
0.0
  0
VERTEX
  8
Layer1
 10
-12.747431676887
 20
-77.2739197103602
 42
0.0
  0
VERTEX
  8
Layer1
 10
-12.7290745780206
 20
-76.7902438716125
 42
0.0
  0
VERTEX
  8
Layer1
 10
-12.7038912548845
 20
-76.5009226577513
 42
0.0
  0
VERTEX
  8
Layer1
 10
-12.6912198873287
 20
-76.4049474878266
 42
0.0
  0
VERTEX
  8
Layer1
 10
-12.350422929479
 20
-74.3532476591507
 42
-0.0168405422819
  0
VERTEX
  8
Layer1
 10
-17.3267544809779
 20
-73.3534045778102
 42
0.0
  0
VERTEX
  8
Layer1
 10
-17.8048680848799
 20
-75.3775147860826
 42
0.0
  0
VERTEX
  8
Layer1
 10
-17.830250206535
 20
-75.4709361150075
 42
0.0
  0
VERTEX
  8
Layer1
 10
-17.9187707094628
 20
-75.7475316412108
 42
0.0
  0
VERTEX
  8
Layer1
 10
-18.0886566021843
 20
-76.2007623589709
 42
0.0
  0
VERTEX
  8
Layer1
 10
-18.3576162053576
 20
-76.8227330457378
 42
0.0
  0
VERTEX
  8
Layer1
 10
-18.7427495672753
 20
-77.6042288985101
 42
0.0
  0
VERTEX
  8
Layer1
 10
-19.2604613011366
 20
-78.5347577125545
 42
0.0
  0
VERTEX
  8
Layer1
 10
-19.9263761729869
 20
-79.6025974491871
 42
0.0
  0
VERTEX
  8
Layer1
 10
-20.7552577598124
 20
-80.794849020375
 42
0.0
  0
VERTEX
  8
Layer1
 10
-21.1420376623266
 20
-81.2958439496433
 42
-0.0111967302195
  0
VERTEX
  8
Layer1
 10
-24.7604603456389
 20
-80.2677992938142
 42
0.0
  0
VERTEX
  8
Layer1
 10
-24.7604603456389
 20
-80.2677992938142
 42
0.0
  0
VERTEX
  8
Layer1
 10
-24.8260456004099
 20
-79.6382810760491
 42
0.0
  0
VERTEX
  8
Layer1
 10
-24.9042367640861
 20
-78.1883174089522
 42
0.0
  0
VERTEX
  8
Layer1
 10
-24.9092197321883
 20
-76.9298661823597
 42
0.0
  0
VERTEX
  8
Layer1
 10
-24.8603348131764
 20
-75.8661370919247
 42
0.0
  0
VERTEX
  8
Layer1
 10
-24.7770359810703
 20
-74.998885814075
 42
0.0
  0
VERTEX
  8
Layer1
 10
-24.6787939312464
 20
-74.3284118749969
 42
0.0
  0
VERTEX
  8
Layer1
 10
-24.5849992676415
 20
-73.853562571379
 42
0.0
  0
VERTEX
  8
Layer1
 10
-24.5148661836874
 20
-73.5717429214443
 42
0.0
  0
VERTEX
  8
Layer1
 10
-24.4873369973288
 20
-73.4789316037279
 42
0.0
  0
VERTEX
  8
Layer1
 10
-23.8297792504283
 20
-71.5058039943322
 42
-0.0168405422819
  0
VERTEX
  8
Layer1
 10
-28.5884339852258
 20
-69.739800876346
 42
0.0
  0
VERTEX
  8
Layer1
 10
-29.3773018148932
 20
-71.6641974832813
 42
0.0
  0
VERTEX
  8
Layer1
 10
-29.4169857561253
 20
-71.7524980020006
 42
0.0
  0
VERTEX
  8
Layer1
 10
-29.5476854979449
 20
-72.0118405207718
 42
0.0
  0
VERTEX
  8
Layer1
 10
-29.78638071829
 20
-72.4329152075573
 42
0.0
  0
VERTEX
  8
Layer1
 10
-30.1493266340905
 20
-73.0051538514291
 42
0.0
  0
VERTEX
  8
Layer1
 10
-30.6519712508904
 20
-73.7167800619949
 42
0.0
  0
VERTEX
  8
Layer1
 10
-31.308875871444
 20
-74.5548645640828
 42
0.0
  0
VERTEX
  8
Layer1
 10
-32.1336391641484
 20
-75.5053853848387
 42
0.0
  0
VERTEX
  8
Layer1
 10
-33.1388250799221
 20
-76.5532927131405
 42
0.0
  0
VERTEX
  8
Layer1
 10
-33.5992159537598
 20
-76.987613856338
 42
-0.0111967302195
  0
VERTEX
  8
Layer1
 10
-37.0122682336402
 20
-75.4061801194111
 42
0.0
  0
VERTEX
  8
Layer1
 10
-37.0122682336402
 20
-75.4061801194111
 42
0.0
  0
VERTEX
  8
Layer1
 10
-36.9785676794634
 20
-74.7741525212876
 42
0.0
  0
VERTEX
  8
Layer1
 10
-36.8289718895738
 20
-73.3298085201488
 42
0.0
  0
VERTEX
  8
Layer1
 10
-36.6370283646587
 20
-72.0860714084864
 42
0.0
  0
VERTEX
  8
Layer1
 10
-36.4223414089098
 20
-71.0430858744661
 42
0.0
  0
VERTEX
  8
Layer1
 10
-36.2044001339475
 20
-70.1995427072066
 42
0.0
  0
VERTEX
  8
Layer1
 10
-36.0024823747972
 20
-69.552691857415
 42
0.0
  0
VERTEX
  8
Layer1
 10
-35.8355596823584
 20
-69.0983614547165
 42
0.0
  0
VERTEX
  8
Layer1
 10
-35.7222037468715
 20
-68.8309827037954
 42
0.0
  0
VERTEX
  8
Layer1
 10
-35.6804946016425
 20
-68.7436205609526
 42
0.0
  0
VERTEX
  8
Layer1
 10
-34.7223673197289
 20
-66.8976501210156
 42
-0.0168405422819
  0
VERTEX
  8
Layer1
 10
-39.1461713651847
 20
-64.4089718241767
 42
0.0
  0
VERTEX
  8
Layer1
 10
-40.226368876549
 20
-66.1862697986061
 42
0.0
  0
VERTEX
  8
Layer1
 10
-40.2793774870214
 20
-66.2672752552964
 42
0.0
  0
VERTEX
  8
Layer1
 10
-40.4490382063215
 20
-66.5029788931148
 42
0.0
  0
VERTEX
  8
Layer1
 10
-40.7506652857815
 20
-66.8815292926702
 42
0.0
  0
VERTEX
  8
Layer1
 10
-41.1986605812137
 20
-67.3899454790836
 42
0.0
  0
VERTEX
  8
Layer1
 10
-41.8064396742484
 20
-68.0141794483869
 42
0.0
  0
VERTEX
  8
Layer1
 10
-42.5863620095949
 20
-68.7391832166338
 42
0.0
  0
VERTEX
  8
Layer1
 10
-43.5496653136544
 20
-69.5489801443084
 42
0.0
  0
VERTEX
  8
Layer1
 10
-44.7064045451091
 20
-70.4267402734962
 42
0.0
  0
VERTEX
  8
Layer1
 10
-45.2290700390068
 20
-70.7836932026481
 42
-0.0111967302195
  0
VERTEX
  8
Layer1
 10
-48.3527112410536
 20
-68.6878105317041
 42
0.0
  0
VERTEX
  8
Layer1
 10
-48.3527112410536
 20
-68.6878105317041
 42
0.0
  0
VERTEX
  8
Layer1
 10
-48.2205546974185
 20
-68.0688361702675
 42
0.0
  0
VERTEX
  8
Layer1
 10
-47.8468554987902
 20
-66.6656763778978
 42
0.0
  0
VERTEX
  8
Layer1
 10
-47.4627117674652
 20
-65.4672783165814
 42
0.0
  0
VERTEX
  8
Layer1
 10
-47.087509080335
 20
-64.4707181042938
 42
0.0
  0
VERTEX
  8
Layer1
 10
-46.7402918000117
 20
-63.6716538799619
 42
0.0
  0
VERTEX
  8
Layer1
 10
-46.4396702168919
 20
-63.0643537341534
 42
0.0
  0
VERTEX
  8
Layer1
 10
-46.2037296862917
 20
-62.641729354725
 42
0.0
  0
VERTEX
  8
Layer1
 10
-46.0499420986106
 20
-62.3953752550443
 42
0.0
  0
VERTEX
  8
Layer1
 10
-45.9950800120913
 20
-62.3156134329703
 42
0.0
  0
VERTEX
  8
Layer1
 10
-44.7599754686875
 20
-60.6422540811478
 42
-0.0168405422819
  0
VERTEX
  8
Layer1
 10
-48.7400000874386
 20
-57.4921801245742
 42
0.0
  0
VERTEX
  8
Layer1
 10
-50.0849292327999
 20
-59.0786164918534
 42
0.0
  0
VERTEX
  8
Layer1
 10
-50.1499572645973
 20
-59.1503322633292
 42
0.0
  0
VERTEX
  8
Layer1
 10
-50.3544013513972
 20
-59.3565932143762
 42
0.0
  0
VERTEX
  8
Layer1
 10
-50.7115332302328
 20
-59.6832981595278
 42
0.0
  0
VERTEX
  8
Layer1
 10
-51.233546774312
 20
-60.1153729946366
 42
0.0
  0
VERTEX
  8
Layer1
 10
-51.9314948052078
 20
-60.6368440106395
 42
0.0
  0
VERTEX
  8
Layer1
 10
-52.8152305790371
 20
-61.2309150461216
 42
0.0
  0
VERTEX
  8
Layer1
 10
-53.8933541700854
 20
-61.8800481927935
 42
0.0
  0
VERTEX
  8
Layer1
 10
-55.1731639583454
 20
-62.5660477553679
 42
0.0
  0
VERTEX
  8
Layer1
 10
-55.745234313216
 20
-62.8368431046997
 42
-0.0111967302195
  0
VERTEX
  8
Layer1
 10
-58.502550024264
 20
-60.2781190869331
 42
0.0
  0
VERTEX
  8
Layer1
 10
-58.502550024264
 20
-60.2781190869331
 42
0.0
  0
VERTEX
  8
Layer1
 10
-58.2751916238772
 20
-59.6874391652199
 42
0.0
  0
VERTEX
  8
Layer1
 10
-57.686590731017
 20
-58.3600140325279
 42
0.0
  0
VERTEX
  8
Layer1
 10
-57.1197056868473
 20
-57.2364635590823
 42
0.0
  0
VERTEX
  8
Layer1
 10
-56.5932260037192
 20
-56.3108672883477
 42
0.0
  0
VERTEX
  8
Layer1
 10
-56.1252823598247
 20
-55.5759576200884
 42
0.0
  0
VERTEX
  8
Layer1
 10
-55.7333592538175
 20
-55.0231619233665
 42
0.0
  0
VERTEX
  8
Layer1
 10
-55.4342105239611
 20
-54.6426499820396
 42
0.0
  0
VERTEX
  8
Layer1
 10
-55.2437780448862
 20
-54.4233865891359
 42
0.0
  0
VERTEX
  8
Layer1
 10
-55.1771139037236
 20
-54.3531890886044
 42
0.0
  0
VERTEX
  8
Layer1
 10
-53.6954444717652
 20
-52.8936444856996
 42
-0.0168405422819
  0
VERTEX
  8
Layer1
 10
-57.1336882487534
 20
-49.1597401446982
 42
0.0
  0
VERTEX
  8
Layer1
 10
-58.7102324089891
 20
-50.5162515763844
 42
0.0
  0
VERTEX
  8
Layer1
 10
-58.785678656153
 20
-50.5769117823409
 42
0.0
  0
VERTEX
  8
Layer1
 10
-59.0198720185246
 20
-50.748651217461
 42
0.0
  0
VERTEX
  8
Layer1
 10
-59.4237149246262
 20
-51.0154661481875
 42
0.0
  0
VERTEX
  8
Layer1
 10
-60.0068930114336
 20
-51.3605605155773
 42
0.0
  0
VERTEX
  8
Layer1
 10
-60.777824183313
 20
-51.7664282312025
 42
0.0
  0
VERTEX
  8
Layer1
 10
-61.7436128879226
 20
-52.2149385334176
 42
0.0
  0
VERTEX
  8
Layer1
 10
-62.9100097850611
 20
-52.6874240866663
 42
0.0
  0
VERTEX
  8
Layer1
 10
-64.2813769656941
 20
-53.1647714966947
 42
0.0
  0
VERTEX
  8
Layer1
 10
-64.888765910808
 20
-53.3427413859876
 42
-0.0111967302195
  0
VERTEX
  8
Layer1
 10
-67.211861867045
 20
-50.384180298634
 42
0.0
  0
VERTEX
  8
Layer1
 10
-67.211861867045
 20
-50.384180298634
 42
0.0
  0
VERTEX
  8
Layer1
 10
-66.8948999282835
 20
-49.8363393166711
 42
0.0
  0
VERTEX
  8
Layer1
 10
-66.1058906486279
 20
-48.617334455895
 42
0.0
  0
VERTEX
  8
Layer1
 10
-65.3702228827846
 20
-47.5962971118266
 42
0.0
  0
VERTEX
  8
Layer1
 10
-64.7054298807432
 20
-46.7644560347084
 42
0.0
  0
VERTEX
  8
Layer1
 10
-64.1282821988059
 20
-46.1117968375797
 42
0.0
  0
VERTEX
  8
Layer1
 10
-63.6547080174996
 20
-45.6271172546215
 42
0.0
  0
VERTEX
  8
Layer1
 10
-63.2997171229336
 20
-45.2980872182382
 42
0.0
  0
VERTEX
  8
Layer1
 10
-63.0773288321089
 20
-45.1113135245383
 42
0.0
  0
VERTEX
  8
Layer1
 10
-63.000504128704
 20
-45.0524088409845
 42
0.0
  0
VERTEX
  8
Layer1
 10
-61.3087534269847
 20
-43.8426178190718
 42
-0.0168405422819
  0
VERTEX
  8
Layer1
 10
-64.1205553895438
 20
-39.6168242106361
 42
0.0
  0
VERTEX
  8
Layer1
 10
-65.8898948151787
 20
-40.7100088932777
 42
0.0
  0
VERTEX
  8
Layer1
 10
-65.9739015407122
 20
-40.7581198781248
 42
0.0
  0
VERTEX
  8
Layer1
 10
-66.2320775608307
 20
-40.8911090024547
 42
0.0
  0
VERTEX
  8
Layer1
 10
-66.6726875415722
 20
-41.0914640496537
 42
0.0
  0
VERTEX
  8
Layer1
 10
-67.3026703911535
 20
-41.3410805806967
 42
0.0
  0
VERTEX
  8
Layer1
 10
-68.1276018199911
 20
-41.6213511857879
 42
0.0
  0
VERTEX
  8
Layer1
 10
-69.1516625322045
 20
-41.913256942575
 42
0.0
  0
VERTEX
  8
Layer1
 10
-70.3776121727763
 20
-42.1974607399901
 42
0.0
  0
VERTEX
  8
Layer1
 10
-71.8067691344885
 20
-42.4544021200123
 42
0.0
  0
VERTEX
  8
Layer1
 10
-72.4345207382087
 20
-42.5351643399436
 42
-0.0111967302195
  0
VERTEX
  8
Layer1
 10
-74.2661946072787
 20
-39.2496157758749
 42
0.0
  0
VERTEX
  8
Layer1
 10
-74.2661946072787
 20
-39.2496157758749
 42
0.0
  0
VERTEX
  8
Layer1
 10
-73.8674337850109
 20
-38.7581033968183
 42
0.0
  0
VERTEX
  8
Layer1
 10
-72.8974441455969
 20
-37.6775347532757
 42
0.0
  0
VERTEX
  8
Layer1
 10
-72.0111082400163
 20
-36.7841518666241
 42
0.0
  0
VERTEX
  8
Layer1
 10
-71.2243713290933
 20
-36.0665486711632
 42
0.0
  0
VERTEX
  8
Layer1
 10
-70.5522309004859
 20
-35.5122105806501
 42
0.0
  0
VERTEX
  8
Layer1
 10
-70.0086666119267
 20
-35.1075815313473
 42
0.0
  0
VERTEX
  8
Layer1
 10
-69.6065746066227
 20
-34.8381352113915
 42
0.0
  0
VERTEX
  8
Layer1
 10
-69.3577064418327
 20
-34.6884502051005
 42
0.0
  0
VERTEX
  8
Layer1
 10
-69.2726128553499
 20
-34.6422887673271
 42
0.0
  0
VERTEX
  8
Layer1
 10
-67.4124374007447
 20
-33.7120403964321
 42
-0.0168405422819
  0
VERTEX
  8
Layer1
 10
-69.5285616527209
 20
-29.0984105838066
 42
0.0
  0
VERTEX
  8
Layer1
 10
-71.447129334995
 20
-29.9013506824452
 42
0.0
  0
VERTEX
  8
Layer1
 10
-71.5376280145131
 20
-29.9357277940646
 42
0.0
  0
VERTEX
  8
Layer1
 10
-71.8134295419261
 20
-30.0266919739977
 42
0.0
  0
VERTEX
  8
Layer1
 10
-72.279957317281
 20
-30.1556537314669
 42
0.0
  0
VERTEX
  8
Layer1
 10
-72.9412326610863
 20
-30.3036460387391
 42
0.0
  0
VERTEX
  8
Layer1
 10
-73.7998517973136
 20
-30.4514183408342
 42
0.0
  0
VERTEX
  8
Layer1
 10
-74.8569687437335
 20
-30.5795318636816
 42
0.0
  0
VERTEX
  8
Layer1
 10
-76.112284178894
 20
-30.6684558645522
 42
0.0
  0
VERTEX
  8
Layer1
 10
-77.5640403341881
 20
-30.6986644650526
 42
0.0
  0
VERTEX
  8
Layer1
 10
-78.1966972686428
 20
-30.6802303817332
 42
-0.0111967302195
  0
VERTEX
  8
Layer1
 10
-79.4918471609122
 20
-27.1485954507073
 42
0.0
  0
VERTEX
  8
Layer1
 10
-79.4918471609122
 20
-27.1485954507073
 42
0.0
  0
VERTEX
  8
Layer1
 10
-79.0211062699939
 20
-26.7255143405654
 42
0.0
  0
VERTEX
  8
Layer1
 10
-77.8940206349547
 20
-25.8099891004619
 42
0.0
  0
VERTEX
  8
Layer1
 10
-76.8788411212125
 20
-25.0662587228644
 42
0.0
  0
VERTEX
  8
Layer1
 10
-75.9895323751849
 20
-24.4805631813215
 42
0.0
  0
VERTEX
  8
Layer1
 10
-75.2389495279659
 20
-24.038195840955
 42
0.0
  0
VERTEX
  8
Layer1
 10
-74.6387794889248
 20
-23.7235806353883
 42
0.0
  0
VERTEX
  8
Layer1
 10
-74.1994872125201
 20
-23.5203526944983
 42
0.0
  0
VERTEX
  8
Layer1
 10
-73.930267133928
 20
-23.4114421172473
 42
0.0
  0
VERTEX
  8
Layer1
 10
-73.838999950876
 20
-23.3791605730532
 42
0.0
  0
VERTEX
  8
Layer1
 10
-71.8562034366457
 20
-22.7513606553847
 42
-0.0168405422819
  0
VERTEX
  8
Layer1
 10
-73.2245439759414
 20
-17.8634975163159
 42
0.0
  0
VERTEX
  8
Layer1
 10
-75.245098411156
 20
-18.3564219809175
 42
0.0
  0
VERTEX
  8
Layer1
 10
-75.3398606668212
 20
-18.37621874073
 42
0.0
  0
VERTEX
  8
Layer1
 10
-75.626496552591
 20
-18.4229181362636
 42
0.0
  0
VERTEX
  8
Layer1
 10
-76.1074546604132
 20
-18.4773111375345
 42
0.0
  0
VERTEX
  8
Layer1
 10
-76.7837397048308
 20
-18.5200351592726
 42
0.0
  0
VERTEX
  8
Layer1
 10
-77.6549044957205
 20
-18.5316705138658
 42
0.0
  0
VERTEX
  8
Layer1
 10
-78.719047948756
 20
-18.4928372226566
 42
0.0
  0
VERTEX
  8
Layer1
 10
-79.9728191463386
 20
-18.3842918229594
 42
0.0
  0
VERTEX
  8
Layer1
 10
-81.4114274405686
 20
-18.1870238079371
 42
0.0
  0
VERTEX
  8
Layer1
 10
-82.0334115923636
 20
-18.0698473296776
 42
-0.0111967302195
  0
VERTEX
  8
Layer1
 10
-82.7601466191288
 20
-14.3790866045207
 42
0.0
  0
VERTEX
  8
Layer1
 10
-82.7601466191288
 20
-14.3790866045207
 42
0.0
  0
VERTEX
  8
Layer1
 10
-82.2290168625937
 20
-14.0348544243508
 42
0.0
  0
VERTEX
  8
Layer1
 10
-80.9725878208468
 20
-13.306915857552
 42
0.0
  0
VERTEX
  8
Layer1
 10
-79.8535617877589
 20
-12.7311510992046
 42
0.0
  0
VERTEX
  8
Layer1
 10
-78.8835789394005
 20
-12.2917849796245
 42
0.0
  0
VERTEX
  8
Layer1
 10
-78.0730355143101
 20
-11.9722809414575
 42
0.0
  0
VERTEX
  8
Layer1
 10
-77.4310379029982
 20
-11.7554264501359
 42
0.0
  0
VERTEX
  8
Layer1
 10
-76.9653621892655
 20
-11.6234210346914
 42
0.0
  0
VERTEX
  8
Layer1
 10
-76.6824192886966
 20
-11.5579666263457
 42
0.0
  0
VERTEX
  8
Layer1
 10
-76.5872258100204
 20
-11.5403598544852
 42
0.0
  0
VERTEX
  8
Layer1
 10
-74.5306312668696
 20
-11.2304669075648
 42
-0.0168405422819
  0
VERTEX
  8
Layer1
 10
-75.1174950081456
 20
-6.1887258544241
 42
0.0
  0
VERTEX
  8
Layer1
 10
-77.1902834402701
 20
-6.3594972487478
 42
0.0
  0
VERTEX
  8
Layer1
 10
-77.2869759108498
 20
-6.3642261948252
 42
0.0
  0
VERTEX
  8
Layer1
 10
-77.5773882281789
 20
-6.3655109118548
 42
0.0
  0
VERTEX
  8
Layer1
 10
-78.0609338836453
 20
-6.3439958207161
 42
0.0
  0
VERTEX
  8
Layer1
 10
-78.7355762464204
 20
-6.280399549712
 42
0.0
  0
VERTEX
  8
Layer1
 10
-79.5978357235905
 20
-6.1556114557577
 42
0.0
  0
VERTEX
  8
Layer1
 10
-80.6428029397382
 20
-5.9507875550017
 42
0.0
  0
VERTEX
  8
Layer1
 10
-81.8641578918303
 20
-5.6474455027189
 42
0.0
  0
VERTEX
  8
Layer1
 10
-83.2541950143252
 20
-5.2275582653988
 42
0.0
  0
VERTEX
  8
Layer1
 10
-83.8501910693963
 20
-5.0145246659802
 42
-0.0111967302195
  0
VERTEX
  8
Layer1
 10
-83.9906166024029
 20
-1.2555169246784
 42
0.0
  0
VERTEX
  8
Layer1
 10
-83.9906166024029
 20
-1.2555169246784
 42
0.0
  0
VERTEX
  8
Layer1
 10
-83.4121761575756
 20
-0.9986098131974
 42
0.0
  0
VERTEX
  8
Layer1
 10
-82.0573411619777
 20
-0.4761821831074
 42
0.0
  0
VERTEX
  8
Layer1
 10
-80.8620227443134
 20
-0.0825602832142
 42
0.0
  0
VERTEX
  8
Layer1
 10
-79.8352499905391
 20
0.1996577623664
 42
0.0
  0
VERTEX
  8
Layer1
 10
-78.9847042567424
 20
0.3884312485411
 42
0.0
  0
VERTEX
  8
Layer1
 10
-78.3166871850183
 20
0.5021853483425
 42
0.0
  0
VERTEX
  8
Layer1
 10
-77.8360945155187
 20
0.5597178269124
 42
0.0
  0
VERTEX
  8
Layer1
 10
-77.5463957862185
 20
0.5801043615885
 42
0.0
  0
VERTEX
  8
Layer1
 10
-77.4496199912923
 20
0.5826028239586
 42
0.0
  0
VERTEX
  8
Layer1
 10
-75.3698676023195
 20
0.5669582073022
 42
-0.0168405422819
  0
VERTEX
  8
Layer1
 10
-75.1608040125763
 20
5.6384327772071
 42
0.0
  0
VERTEX
  8
Layer1
 10
-77.2347875112214
 20
5.7940194116474
 42
0.0
  0
VERTEX
  8
Layer1
 10
-77.3310293071862
 20
5.804474721652
 42
0.0
  0
VERTEX
  8
Layer1
 10
-77.6180671409985
 20
5.8486363171233
 42
0.0
  0
VERTEX
  8
Layer1
 10
-78.0922938452755
 20
5.9455297277233
 42
0.0
  0
VERTEX
  8
Layer1
 10
-78.748681592427
 20
6.1138803402136
 42
0.0
  0
VERTEX
  8
Layer1
 10
-79.5808040658744
 20
6.3720191856943
 42
0.0
  0
VERTEX
  8
Layer1
 10
-80.5808644842255
 20
6.7377902517888
 42
0.0
  0
VERTEX
  8
Layer1
 10
-81.739729378462
 20
7.2284596685955
 42
0.0
  0
VERTEX
  8
Layer1
 10
-83.0469680019972
 20
7.8606271109049
 42
0.0
  0
VERTEX
  8
Layer1
 10
-83.602300559471
 20
8.1642722372468
 42
-0.0111967302195
  0
VERTEX
  8
Layer1
 10
-83.1529588560508
 20
11.8989677486713
 42
0.0
  0
VERTEX
  8
Layer1
 10
-83.1529588560508
 20
11.8989677486713
 42
0.0
  0
VERTEX
  8
Layer1
 10
-82.5414508464166
 20
12.0622238857528
 42
0.0
  0
VERTEX
  8
Layer1
 10
-81.1215704309989
 20
12.3662766770434
 42
0.0
  0
VERTEX
  8
Layer1
 10
-79.8793923352353
 20
12.5680634409507
 42
0.0
  0
VERTEX
  8
Layer1
 10
-78.8211122289066
 20
12.6861842676217
 42
0.0
  0
VERTEX
  8
Layer1
 10
-77.9515074451692
 20
12.7395789720712
 42
0.0
  0
VERTEX
  8
Layer1
 10
-77.2739197103602
 20
12.747431676887
 42
0.0
  0
VERTEX
  8
Layer1
 10
-76.7902438716125
 20
12.7290745780206
 42
0.0
  0
VERTEX
  8
Layer1
 10
-76.5009226577513
 20
12.7038912548845
 42
0.0
  0
VERTEX
  8
Layer1
 10
-76.4049474878266
 20
12.6912198873287
 42
0.0
  0
VERTEX
  8
Layer1
 10
-74.3532476591507
 20
12.350422929479
 42
-0.0168405422819
  0
VERTEX
  8
Layer1
 10
-73.3534045778102
 20
17.3267544809779
 42
0.0
  0
VERTEX
  8
Layer1
 10
-75.3775147860825
 20
17.8048680848799
 42
0.0
  0
VERTEX
  8
Layer1
 10
-75.4709361150075
 20
17.830250206535
 42
0.0
  0
VERTEX
  8
Layer1
 10
-75.7475316412108
 20
17.9187707094628
 42
0.0
  0
VERTEX
  8
Layer1
 10
-76.2007623589709
 20
18.0886566021842
 42
0.0
  0
VERTEX
  8
Layer1
 10
-76.8227330457378
 20
18.3576162053576
 42
0.0
  0
VERTEX
  8
Layer1
 10
-77.6042288985101
 20
18.7427495672753
 42
0.0
  0
VERTEX
  8
Layer1
 10
-78.5347577125545
 20
19.2604613011366
 42
0.0
  0
VERTEX
  8
Layer1
 10
-79.6025974491871
 20
19.9263761729869
 42
0.0
  0
VERTEX
  8
Layer1
 10
-80.7948490203749
 20
20.7552577598124
 42
0.0
  0
VERTEX
  8
Layer1
 10
-81.2958439496433
 20
21.1420376623266
 42
-0.0111967302195
  0
VERTEX
  8
Layer1
 10
-80.2677992938142
 20
24.7604603456389
 42
0.0
  0
VERTEX
  8
Layer1
 10
-80.2677992938142
 20
24.7604603456389
 42
0.0
  0
VERTEX
  8
Layer1
 10
-79.6382810760491
 20
24.8260456004099
 42
0.0
  0
VERTEX
  8
Layer1
 10
-78.1883174089522
 20
24.9042367640861
 42
0.0
  0
VERTEX
  8
Layer1
 10
-76.9298661823597
 20
24.9092197321883
 42
0.0
  0
VERTEX
  8
Layer1
 10
-75.8661370919247
 20
24.8603348131764
 42
0.0
  0
VERTEX
  8
Layer1
 10
-74.998885814075
 20
24.7770359810703
 42
0.0
  0
VERTEX
  8
Layer1
 10
-74.3284118749969
 20
24.6787939312464
 42
0.0
  0
VERTEX
  8
Layer1
 10
-73.853562571379
 20
24.5849992676415
 42
0.0
  0
VERTEX
  8
Layer1
 10
-73.5717429214443
 20
24.5148661836874
 42
0.0
  0
VERTEX
  8
Layer1
 10
-73.4789316037279
 20
24.4873369973288
 42
0.0
  0
VERTEX
  8
Layer1
 10
-71.5058039943322
 20
23.8297792504283
 42
-0.0168405422819
  0
VERTEX
  8
Layer1
 10
-69.739800876346
 20
28.5884339852258
 42
0.0
  0
VERTEX
  8
Layer1
 10
-71.6641974832813
 20
29.3773018148932
 42
0.0
  0
VERTEX
  8
Layer1
 10
-71.7524980020006
 20
29.4169857561253
 42
0.0
  0
VERTEX
  8
Layer1
 10
-72.0118405207718
 20
29.5476854979449
 42
0.0
  0
VERTEX
  8
Layer1
 10
-72.4329152075573
 20
29.78638071829
 42
0.0
  0
VERTEX
  8
Layer1
 10
-73.0051538514291
 20
30.1493266340905
 42
0.0
  0
VERTEX
  8
Layer1
 10
-73.7167800619949
 20
30.6519712508904
 42
0.0
  0
VERTEX
  8
Layer1
 10
-74.5548645640828
 20
31.308875871444
 42
0.0
  0
VERTEX
  8
Layer1
 10
-75.5053853848387
 20
32.1336391641484
 42
0.0
  0
VERTEX
  8
Layer1
 10
-76.5532927131405
 20
33.1388250799221
 42
0.0
  0
VERTEX
  8
Layer1
 10
-76.987613856338
 20
33.5992159537598
 42
-0.0111967302195
  0
VERTEX
  8
Layer1
 10
-75.4061801194111
 20
37.0122682336402
 42
0.0
  0
VERTEX
  8
Layer1
 10
-75.4061801194111
 20
37.0122682336402
 42
0.0
  0
VERTEX
  8
Layer1
 10
-74.7741525212876
 20
36.9785676794634
 42
0.0
  0
VERTEX
  8
Layer1
 10
-73.3298085201488
 20
36.8289718895738
 42
0.0
  0
VERTEX
  8
Layer1
 10
-72.0860714084864
 20
36.6370283646587
 42
0.0
  0
VERTEX
  8
Layer1
 10
-71.0430858744661
 20
36.4223414089098
 42
0.0
  0
VERTEX
  8
Layer1
 10
-70.1995427072066
 20
36.2044001339475
 42
0.0
  0
VERTEX
  8
Layer1
 10
-69.552691857415
 20
36.0024823747972
 42
0.0
  0
VERTEX
  8
Layer1
 10
-69.0983614547165
 20
35.8355596823584
 42
0.0
  0
VERTEX
  8
Layer1
 10
-68.8309827037954
 20
35.7222037468715
 42
0.0
  0
VERTEX
  8
Layer1
 10
-68.7436205609526
 20
35.6804946016425
 42
0.0
  0
VERTEX
  8
Layer1
 10
-66.8976501210156
 20
34.7223673197289
 42
-0.0168405422819
  0
VERTEX
  8
Layer1
 10
-64.4089718241767
 20
39.1461713651847
 42
0.0
  0
VERTEX
  8
Layer1
 10
-66.1862697986061
 20
40.226368876549
 42
0.0
  0
VERTEX
  8
Layer1
 10
-66.2672752552964
 20
40.2793774870214
 42
0.0
  0
VERTEX
  8
Layer1
 10
-66.5029788931148
 20
40.4490382063215
 42
0.0
  0
VERTEX
  8
Layer1
 10
-66.8815292926702
 20
40.7506652857815
 42
0.0
  0
VERTEX
  8
Layer1
 10
-67.3899454790836
 20
41.1986605812137
 42
0.0
  0
VERTEX
  8
Layer1
 10
-68.0141794483869
 20
41.8064396742484
 42
0.0
  0
VERTEX
  8
Layer1
 10
-68.7391832166338
 20
42.5863620095949
 42
0.0
  0
VERTEX
  8
Layer1
 10
-69.5489801443084
 20
43.5496653136544
 42
0.0
  0
VERTEX
  8
Layer1
 10
-70.4267402734962
 20
44.7064045451091
 42
0.0
  0
VERTEX
  8
Layer1
 10
-70.7836932026481
 20
45.2290700390068
 42
-0.0111967302195
  0
VERTEX
  8
Layer1
 10
-68.6878105317041
 20
48.3527112410536
 42
0.0
  0
VERTEX
  8
Layer1
 10
-68.6878105317041
 20
48.3527112410536
 42
0.0
  0
VERTEX
  8
Layer1
 10
-68.0688361702675
 20
48.2205546974185
 42
0.0
  0
VERTEX
  8
Layer1
 10
-66.6656763778978
 20
47.8468554987902
 42
0.0
  0
VERTEX
  8
Layer1
 10
-65.4672783165814
 20
47.4627117674652
 42
0.0
  0
VERTEX
  8
Layer1
 10
-64.4707181042938
 20
47.087509080335
 42
0.0
  0
VERTEX
  8
Layer1
 10
-63.6716538799619
 20
46.7402918000117
 42
0.0
  0
VERTEX
  8
Layer1
 10
-63.0643537341534
 20
46.4396702168919
 42
0.0
  0
VERTEX
  8
Layer1
 10
-62.641729354725
 20
46.2037296862917
 42
0.0
  0
VERTEX
  8
Layer1
 10
-62.3953752550443
 20
46.0499420986106
 42
0.0
  0
VERTEX
  8
Layer1
 10
-62.3156134329703
 20
45.9950800120913
 42
0.0
  0
VERTEX
  8
Layer1
 10
-60.6422540811478
 20
44.7599754686875
 42
-0.0168405422819
  0
VERTEX
  8
Layer1
 10
-57.4921801245742
 20
48.7400000874386
 42
0.0
  0
VERTEX
  8
Layer1
 10
-59.0786164918534
 20
50.0849292327999
 42
0.0
  0
VERTEX
  8
Layer1
 10
-59.1503322633292
 20
50.1499572645973
 42
0.0
  0
VERTEX
  8
Layer1
 10
-59.3565932143762
 20
50.3544013513972
 42
0.0
  0
VERTEX
  8
Layer1
 10
-59.6832981595278
 20
50.7115332302328
 42
0.0
  0
VERTEX
  8
Layer1
 10
-60.1153729946367
 20
51.233546774312
 42
0.0
  0
VERTEX
  8
Layer1
 10
-60.6368440106395
 20
51.9314948052078
 42
0.0
  0
VERTEX
  8
Layer1
 10
-61.2309150461216
 20
52.8152305790371
 42
0.0
  0
VERTEX
  8
Layer1
 10
-61.8800481927935
 20
53.8933541700854
 42
0.0
  0
VERTEX
  8
Layer1
 10
-62.5660477553679
 20
55.1731639583454
 42
0.0
  0
VERTEX
  8
Layer1
 10
-62.8368431046997
 20
55.745234313216
 42
-0.0111967302195
  0
VERTEX
  8
Layer1
 10
-60.2781190869331
 20
58.502550024264
 42
0.0
  0
VERTEX
  8
Layer1
 10
-60.2781190869331
 20
58.502550024264
 42
0.0
  0
VERTEX
  8
Layer1
 10
-59.6874391652199
 20
58.2751916238772
 42
0.0
  0
VERTEX
  8
Layer1
 10
-58.3600140325279
 20
57.686590731017
 42
0.0
  0
VERTEX
  8
Layer1
 10
-57.2364635590823
 20
57.1197056868473
 42
0.0
  0
VERTEX
  8
Layer1
 10
-56.3108672883477
 20
56.5932260037192
 42
0.0
  0
VERTEX
  8
Layer1
 10
-55.5759576200884
 20
56.1252823598247
 42
0.0
  0
VERTEX
  8
Layer1
 10
-55.0231619233666
 20
55.7333592538175
 42
0.0
  0
VERTEX
  8
Layer1
 10
-54.6426499820396
 20
55.4342105239611
 42
0.0
  0
VERTEX
  8
Layer1
 10
-54.4233865891359
 20
55.2437780448862
 42
0.0
  0
VERTEX
  8
Layer1
 10
-54.3531890886044
 20
55.1771139037236
 42
0.0
  0
VERTEX
  8
Layer1
 10
-52.8936444856996
 20
53.6954444717652
 42
-0.0168405422819
  0
VERTEX
  8
Layer1
 10
-49.1597401446982
 20
57.1336882487534
 42
0.0
  0
VERTEX
  8
Layer1
 10
-50.5162515763844
 20
58.7102324089891
 42
0.0
  0
VERTEX
  8
Layer1
 10
-50.5769117823409
 20
58.785678656153
 42
0.0
  0
VERTEX
  8
Layer1
 10
-50.748651217461
 20
59.0198720185246
 42
0.0
  0
VERTEX
  8
Layer1
 10
-51.0154661481875
 20
59.4237149246261
 42
0.0
  0
VERTEX
  8
Layer1
 10
-51.3605605155773
 20
60.0068930114335
 42
0.0
  0
VERTEX
  8
Layer1
 10
-51.7664282312025
 20
60.777824183313
 42
0.0
  0
VERTEX
  8
Layer1
 10
-52.2149385334176
 20
61.7436128879226
 42
0.0
  0
VERTEX
  8
Layer1
 10
-52.6874240866663
 20
62.9100097850611
 42
0.0
  0
VERTEX
  8
Layer1
 10
-53.1647714966947
 20
64.2813769656941
 42
0.0
  0
VERTEX
  8
Layer1
 10
-53.3427413859876
 20
64.888765910808
 42
-0.0111967302195
  0
VERTEX
  8
Layer1
 10
-50.384180298634
 20
67.211861867045
 42
0.0
  0
VERTEX
  8
Layer1
 10
-50.384180298634
 20
67.211861867045
 42
0.0
  0
VERTEX
  8
Layer1
 10
-49.8363393166711
 20
66.8948999282835
 42
0.0
  0
VERTEX
  8
Layer1
 10
-48.617334455895
 20
66.1058906486279
 42
0.0
  0
VERTEX
  8
Layer1
 10
-47.5962971118266
 20
65.3702228827846
 42
0.0
  0
VERTEX
  8
Layer1
 10
-46.7644560347084
 20
64.7054298807432
 42
0.0
  0
VERTEX
  8
Layer1
 10
-46.1117968375797
 20
64.1282821988059
 42
0.0
  0
VERTEX
  8
Layer1
 10
-45.6271172546215
 20
63.6547080174995
 42
0.0
  0
VERTEX
  8
Layer1
 10
-45.2980872182382
 20
63.2997171229336
 42
0.0
  0
VERTEX
  8
Layer1
 10
-45.1113135245383
 20
63.0773288321089
 42
0.0
  0
VERTEX
  8
Layer1
 10
-45.0524088409845
 20
63.000504128704
 42
0.0
  0
VERTEX
  8
Layer1
 10
-43.8426178190718
 20
61.3087534269847
 42
-0.0168405422819
  0
VERTEX
  8
Layer1
 10
-39.6168242106361
 20
64.1205553895438
 42
0.0
  0
VERTEX
  8
Layer1
 10
-40.7100088932778
 20
65.8898948151787
 42
0.0
  0
VERTEX
  8
Layer1
 10
-40.7581198781248
 20
65.9739015407122
 42
0.0
  0
VERTEX
  8
Layer1
 10
-40.8911090024547
 20
66.2320775608307
 42
0.0
  0
VERTEX
  8
Layer1
 10
-41.0914640496537
 20
66.6726875415722
 42
0.0
  0
VERTEX
  8
Layer1
 10
-41.3410805806967
 20
67.3026703911535
 42
0.0
  0
VERTEX
  8
Layer1
 10
-41.6213511857879
 20
68.1276018199911
 42
0.0
  0
VERTEX
  8
Layer1
 10
-41.9132569425751
 20
69.1516625322045
 42
0.0
  0
VERTEX
  8
Layer1
 10
-42.1974607399901
 20
70.3776121727763
 42
0.0
  0
VERTEX
  8
Layer1
 10
-42.4544021200123
 20
71.8067691344885
 42
0.0
  0
VERTEX
  8
Layer1
 10
-42.5351643399436
 20
72.4345207382087
 42
-0.0111967302195
  0
VERTEX
  8
Layer1
 10
-39.2496157758749
 20
74.2661946072787
 42
0.0
  0
VERTEX
  8
Layer1
 10
-39.2496157758749
 20
74.2661946072787
 42
0.0
  0
VERTEX
  8
Layer1
 10
-38.7581033968183
 20
73.867433785011
 42
0.0
  0
VERTEX
  8
Layer1
 10
-37.6775347532757
 20
72.8974441455969
 42
0.0
  0
VERTEX
  8
Layer1
 10
-36.7841518666241
 20
72.0111082400163
 42
0.0
  0
VERTEX
  8
Layer1
 10
-36.0665486711632
 20
71.2243713290933
 42
0.0
  0
VERTEX
  8
Layer1
 10
-35.5122105806501
 20
70.5522309004859
 42
0.0
  0
VERTEX
  8
Layer1
 10
-35.1075815313473
 20
70.0086666119267
 42
0.0
  0
VERTEX
  8
Layer1
 10
-34.8381352113915
 20
69.6065746066227
 42
0.0
  0
VERTEX
  8
Layer1
 10
-34.6884502051005
 20
69.3577064418327
 42
0.0
  0
VERTEX
  8
Layer1
 10
-34.6422887673271
 20
69.2726128553499
 42
0.0
  0
VERTEX
  8
Layer1
 10
-33.7120403964321
 20
67.4124374007447
 42
-0.0168405422819
  0
VERTEX
  8
Layer1
 10
-29.0984105838066
 20
69.5285616527209
 42
0.0
  0
VERTEX
  8
Layer1
 10
-29.9013506824452
 20
71.447129334995
 42
0.0
  0
VERTEX
  8
Layer1
 10
-29.9357277940646
 20
71.5376280145131
 42
0.0
  0
VERTEX
  8
Layer1
 10
-30.0266919739977
 20
71.8134295419261
 42
0.0
  0
VERTEX
  8
Layer1
 10
-30.1556537314669
 20
72.279957317281
 42
0.0
  0
VERTEX
  8
Layer1
 10
-30.3036460387391
 20
72.9412326610863
 42
0.0
  0
VERTEX
  8
Layer1
 10
-30.4514183408342
 20
73.7998517973136
 42
0.0
  0
VERTEX
  8
Layer1
 10
-30.5795318636816
 20
74.8569687437335
 42
0.0
  0
VERTEX
  8
Layer1
 10
-30.6684558645522
 20
76.112284178894
 42
0.0
  0
VERTEX
  8
Layer1
 10
-30.6986644650526
 20
77.5640403341881
 42
0.0
  0
VERTEX
  8
Layer1
 10
-30.6802303817332
 20
78.1966972686428
 42
-0.0111967302195
  0
VERTEX
  8
Layer1
 10
-27.1485954507073
 20
79.4918471609122
 42
0.0
  0
VERTEX
  8
Layer1
 10
-27.1485954507073
 20
79.4918471609122
 42
0.0
  0
VERTEX
  8
Layer1
 10
-26.7255143405654
 20
79.0211062699939
 42
0.0
  0
VERTEX
  8
Layer1
 10
-25.8099891004619
 20
77.8940206349547
 42
0.0
  0
VERTEX
  8
Layer1
 10
-25.0662587228644
 20
76.8788411212125
 42
0.0
  0
VERTEX
  8
Layer1
 10
-24.4805631813215
 20
75.9895323751849
 42
0.0
  0
VERTEX
  8
Layer1
 10
-24.038195840955
 20
75.2389495279659
 42
0.0
  0
VERTEX
  8
Layer1
 10
-23.7235806353883
 20
74.6387794889247
 42
0.0
  0
VERTEX
  8
Layer1
 10
-23.5203526944983
 20
74.1994872125201
 42
0.0
  0
VERTEX
  8
Layer1
 10
-23.4114421172473
 20
73.930267133928
 42
0.0
  0
VERTEX
  8
Layer1
 10
-23.3791605730532
 20
73.838999950876
 42
0.0
  0
VERTEX
  8
Layer1
 10
-22.7513606553847
 20
71.8562034366457
 42
-0.0168405422819
  0
VERTEX
  8
Layer1
 10
-17.8634975163159
 20
73.2245439759414
 42
0.0
  0
VERTEX
  8
Layer1
 10
-18.3564219809175
 20
75.245098411156
 42
0.0
  0
VERTEX
  8
Layer1
 10
-18.37621874073
 20
75.3398606668212
 42
0.0
  0
VERTEX
  8
Layer1
 10
-18.4229181362636
 20
75.626496552591
 42
0.0
  0
VERTEX
  8
Layer1
 10
-18.4773111375345
 20
76.1074546604132
 42
0.0
  0
VERTEX
  8
Layer1
 10
-18.5200351592726
 20
76.7837397048308
 42
0.0
  0
VERTEX
  8
Layer1
 10
-18.5316705138658
 20
77.6549044957205
 42
0.0
  0
VERTEX
  8
Layer1
 10
-18.4928372226566
 20
78.719047948756
 42
0.0
  0
VERTEX
  8
Layer1
 10
-18.3842918229594
 20
79.9728191463386
 42
0.0
  0
VERTEX
  8
Layer1
 10
-18.1870238079371
 20
81.4114274405686
 42
0.0
  0
VERTEX
  8
Layer1
 10
-18.0698473296776
 20
82.0334115923636
 42
-0.0111967302195
  0
VERTEX
  8
Layer1
 10
-14.3790866045207
 20
82.7601466191288
 42
0.0
  0
VERTEX
  8
Layer1
 10
-14.3790866045207
 20
82.7601466191288
 42
0.0
  0
VERTEX
  8
Layer1
 10
-14.0348544243509
 20
82.2290168625937
 42
0.0
  0
VERTEX
  8
Layer1
 10
-13.306915857552
 20
80.9725878208468
 42
0.0
  0
VERTEX
  8
Layer1
 10
-12.7311510992046
 20
79.8535617877589
 42
0.0
  0
VERTEX
  8
Layer1
 10
-12.2917849796245
 20
78.8835789394005
 42
0.0
  0
VERTEX
  8
Layer1
 10
-11.9722809414575
 20
78.0730355143101
 42
0.0
  0
VERTEX
  8
Layer1
 10
-11.7554264501359
 20
77.4310379029982
 42
0.0
  0
VERTEX
  8
Layer1
 10
-11.6234210346914
 20
76.9653621892655
 42
0.0
  0
VERTEX
  8
Layer1
 10
-11.5579666263457
 20
76.6824192886965
 42
0.0
  0
VERTEX
  8
Layer1
 10
-11.5403598544852
 20
76.5872258100204
 42
0.0
  0
VERTEX
  8
Layer1
 10
-11.2304669075648
 20
74.5306312668696
 42
-0.0168405422819
  0
VERTEX
  8
Layer1
 10
-6.1887258544242
 20
75.1174950081456
 42
0.0
  0
VERTEX
  8
Layer1
 10
-6.3594972487478
 20
77.1902834402701
 42
0.0
  0
VERTEX
  8
Layer1
 10
-6.3642261948252
 20
77.2869759108498
 42
0.0
  0
VERTEX
  8
Layer1
 10
-6.3655109118548
 20
77.5773882281789
 42
0.0
  0
VERTEX
  8
Layer1
 10
-6.3439958207162
 20
78.0609338836453
 42
0.0
  0
VERTEX
  8
Layer1
 10
-6.280399549712
 20
78.7355762464204
 42
0.0
  0
VERTEX
  8
Layer1
 10
-6.1556114557577
 20
79.5978357235905
 42
0.0
  0
VERTEX
  8
Layer1
 10
-5.9507875550018
 20
80.6428029397382
 42
0.0
  0
VERTEX
  8
Layer1
 10
-5.647445502719
 20
81.8641578918303
 42
0.0
  0
VERTEX
  8
Layer1
 10
-5.2275582653988
 20
83.2541950143252
 42
0.0
  0
VERTEX
  8
Layer1
 10
-5.0145246659803
 20
83.8501910693963
 42
-0.0111967302195
  0
VERTEX
  8
Layer1
 10
-1.2555169246784
 20
83.9906166024029
 42
0.0
  0
VERTEX
  8
Layer1
 10
-1.2555169246784
 20
83.9906166024029
 42
0.0
  0
VERTEX
  8
Layer1
 10
-0.9986098131975
 20
83.4121761575756
 42
0.0
  0
VERTEX
  8
Layer1
 10
-0.4761821831074
 20
82.0573411619777
 42
0.0
  0
VERTEX
  8
Layer1
 10
-0.0825602832142
 20
80.8620227443134
 42
0.0
  0
VERTEX
  8
Layer1
 10
0.1996577623664
 20
79.8352499905391
 42
0.0
  0
VERTEX
  8
Layer1
 10
0.3884312485411
 20
78.9847042567424
 42
0.0
  0
VERTEX
  8
Layer1
 10
0.5021853483425
 20
78.3166871850183
 42
0.0
  0
VERTEX
  8
Layer1
 10
0.5597178269124
 20
77.8360945155187
 42
0.0
  0
VERTEX
  8
Layer1
 10
0.5801043615885
 20
77.5463957862185
 42
0.0
  0
VERTEX
  8
Layer1
 10
0.5826028239586
 20
77.4496199912923
 42
0.0
  0
VERTEX
  8
Layer1
 10
0.5669582073022
 20
75.3698676023195
 42
-0.0168405422819
  0
VERTEX
  8
Layer1
 10
5.6384327772071
 20
75.1608040125763
 42
0.0
  0
VERTEX
  8
Layer1
 10
5.7940194116474
 20
77.2347875112214
 42
0.0
  0
VERTEX
  8
Layer1
 10
5.804474721652
 20
77.3310293071862
 42
0.0
  0
VERTEX
  8
Layer1
 10
5.8486363171233
 20
77.6180671409985
 42
0.0
  0
VERTEX
  8
Layer1
 10
5.9455297277233
 20
78.0922938452755
 42
0.0
  0
VERTEX
  8
Layer1
 10
6.1138803402136
 20
78.748681592427
 42
0.0
  0
VERTEX
  8
Layer1
 10
6.3720191856943
 20
79.5808040658744
 42
0.0
  0
VERTEX
  8
Layer1
 10
6.7377902517888
 20
80.5808644842255
 42
0.0
  0
VERTEX
  8
Layer1
 10
7.2284596685955
 20
81.739729378462
 42
0.0
  0
VERTEX
  8
Layer1
 10
7.8606271109049
 20
83.0469680019972
 42
0.0
  0
VERTEX
  8
Layer1
 10
8.1642722372468
 20
83.602300559471
 42
-0.0111967302195
  0
VERTEX
  8
Layer1
 10
11.8989677486713
 20
83.1529588560508
 42
0.0
  0
VERTEX
  8
Layer1
 10
11.8989677486713
 20
83.1529588560508
 42
0.0
  0
VERTEX
  8
Layer1
 10
12.0622238857528
 20
82.5414508464166
 42
0.0
  0
VERTEX
  8
Layer1
 10
12.3662766770434
 20
81.1215704309989
 42
0.0
  0
VERTEX
  8
Layer1
 10
12.5680634409507
 20
79.8793923352353
 42
0.0
  0
VERTEX
  8
Layer1
 10
12.6861842676217
 20
78.8211122289066
 42
0.0
  0
VERTEX
  8
Layer1
 10
12.7395789720712
 20
77.9515074451692
 42
0.0
  0
VERTEX
  8
Layer1
 10
12.747431676887
 20
77.2739197103602
 42
0.0
  0
VERTEX
  8
Layer1
 10
12.7290745780206
 20
76.7902438716125
 42
0.0
  0
VERTEX
  8
Layer1
 10
12.7038912548845
 20
76.5009226577513
 42
0.0
  0
VERTEX
  8
Layer1
 10
12.6912198873287
 20
76.4049474878266
 42
0.0
  0
VERTEX
  8
Layer1
 10
12.350422929479
 20
74.3532476591507
 42
-0.0168405422819
  0
VERTEX
  8
Layer1
 10
17.3267544809779
 20
73.3534045778102
 42
0.0
  0
VERTEX
  8
Layer1
 10
17.8048680848799
 20
75.3775147860826
 42
0.0
  0
VERTEX
  8
Layer1
 10
17.830250206535
 20
75.4709361150075
 42
0.0
  0
VERTEX
  8
Layer1
 10
17.9187707094628
 20
75.7475316412108
 42
0.0
  0
VERTEX
  8
Layer1
 10
18.0886566021842
 20
76.2007623589709
 42
0.0
  0
VERTEX
  8
Layer1
 10
18.3576162053576
 20
76.8227330457378
 42
0.0
  0
VERTEX
  8
Layer1
 10
18.7427495672753
 20
77.6042288985101
 42
0.0
  0
VERTEX
  8
Layer1
 10
19.2604613011366
 20
78.5347577125545
 42
0.0
  0
VERTEX
  8
Layer1
 10
19.9263761729869
 20
79.6025974491871
 42
0.0
  0
VERTEX
  8
Layer1
 10
20.7552577598124
 20
80.794849020375
 42
0.0
  0
VERTEX
  8
Layer1
 10
21.1420376623266
 20
81.2958439496433
 42
-0.0111967302195
  0
VERTEX
  8
Layer1
 10
24.7604603456389
 20
80.2677992938142
 42
0.0
  0
VERTEX
  8
Layer1
 10
24.7604603456389
 20
80.2677992938142
 42
0.0
  0
VERTEX
  8
Layer1
 10
24.8260456004099
 20
79.6382810760491
 42
0.0
  0
VERTEX
  8
Layer1
 10
24.9042367640861
 20
78.1883174089522
 42
0.0
  0
VERTEX
  8
Layer1
 10
24.9092197321883
 20
76.9298661823597
 42
0.0
  0
VERTEX
  8
Layer1
 10
24.8603348131764
 20
75.8661370919247
 42
0.0
  0
VERTEX
  8
Layer1
 10
24.7770359810703
 20
74.998885814075
 42
0.0
  0
VERTEX
  8
Layer1
 10
24.6787939312464
 20
74.3284118749969
 42
0.0
  0
VERTEX
  8
Layer1
 10
24.5849992676415
 20
73.853562571379
 42
0.0
  0
VERTEX
  8
Layer1
 10
24.5148661836873
 20
73.5717429214443
 42
0.0
  0
VERTEX
  8
Layer1
 10
24.4873369973288
 20
73.4789316037279
 42
0.0
  0
VERTEX
  8
Layer1
 10
23.8297792504283
 20
71.5058039943322
 42
-0.0168405422819
  0
VERTEX
  8
Layer1
 10
28.5884339852258
 20
69.739800876346
 42
0.0
  0
VERTEX
  8
Layer1
 10
29.3773018148932
 20
71.6641974832813
 42
0.0
  0
VERTEX
  8
Layer1
 10
29.4169857561253
 20
71.7524980020006
 42
0.0
  0
VERTEX
  8
Layer1
 10
29.5476854979449
 20
72.0118405207718
 42
0.0
  0
VERTEX
  8
Layer1
 10
29.78638071829
 20
72.4329152075573
 42
0.0
  0
VERTEX
  8
Layer1
 10
30.1493266340905
 20
73.0051538514291
 42
0.0
  0
VERTEX
  8
Layer1
 10
30.6519712508904
 20
73.7167800619949
 42
0.0
  0
VERTEX
  8
Layer1
 10
31.308875871444
 20
74.5548645640828
 42
0.0
  0
VERTEX
  8
Layer1
 10
32.1336391641484
 20
75.5053853848387
 42
0.0
  0
VERTEX
  8
Layer1
 10
33.1388250799221
 20
76.5532927131405
 42
0.0
  0
VERTEX
  8
Layer1
 10
33.5992159537598
 20
76.987613856338
 42
-0.0111967302195
  0
VERTEX
  8
Layer1
 10
37.0122682336402
 20
75.4061801194111
 42
0.0
  0
VERTEX
  8
Layer1
 10
37.0122682336402
 20
75.4061801194111
 42
0.0
  0
VERTEX
  8
Layer1
 10
36.9785676794634
 20
74.7741525212876
 42
0.0
  0
VERTEX
  8
Layer1
 10
36.8289718895738
 20
73.3298085201488
 42
0.0
  0
VERTEX
  8
Layer1
 10
36.6370283646587
 20
72.0860714084864
 42
0.0
  0
VERTEX
  8
Layer1
 10
36.4223414089098
 20
71.0430858744661
 42
0.0
  0
VERTEX
  8
Layer1
 10
36.2044001339475
 20
70.1995427072066
 42
0.0
  0
VERTEX
  8
Layer1
 10
36.0024823747972
 20
69.552691857415
 42
0.0
  0
VERTEX
  8
Layer1
 10
35.8355596823584
 20
69.0983614547165
 42
0.0
  0
VERTEX
  8
Layer1
 10
35.7222037468715
 20
68.8309827037954
 42
0.0
  0
VERTEX
  8
Layer1
 10
35.6804946016425
 20
68.7436205609526
 42
0.0
  0
VERTEX
  8
Layer1
 10
34.7223673197289
 20
66.8976501210156
 42
-0.0168405422819
  0
VERTEX
  8
Layer1
 10
39.1461713651847
 20
64.4089718241767
 42
0.0
  0
VERTEX
  8
Layer1
 10
40.226368876549
 20
66.1862697986061
 42
0.0
  0
VERTEX
  8
Layer1
 10
40.2793774870214
 20
66.2672752552964
 42
0.0
  0
VERTEX
  8
Layer1
 10
40.4490382063215
 20
66.5029788931148
 42
0.0
  0
VERTEX
  8
Layer1
 10
40.7506652857815
 20
66.8815292926702
 42
0.0
  0
VERTEX
  8
Layer1
 10
41.1986605812137
 20
67.3899454790836
 42
0.0
  0
VERTEX
  8
Layer1
 10
41.8064396742484
 20
68.0141794483869
 42
0.0
  0
VERTEX
  8
Layer1
 10
42.5863620095949
 20
68.7391832166338
 42
0.0
  0
VERTEX
  8
Layer1
 10
43.5496653136544
 20
69.5489801443084
 42
0.0
  0
VERTEX
  8
Layer1
 10
44.7064045451091
 20
70.4267402734962
 42
0.0
  0
VERTEX
  8
Layer1
 10
45.2290700390068
 20
70.7836932026481
 42
-0.0111967302195
  0
VERTEX
  8
Layer1
 10
48.3527112410536
 20
68.6878105317041
 42
0.0
  0
VERTEX
  8
Layer1
 10
48.3527112410536
 20
68.6878105317041
 42
0.0
  0
VERTEX
  8
Layer1
 10
48.2205546974184
 20
68.0688361702675
 42
0.0
  0
VERTEX
  8
Layer1
 10
47.8468554987902
 20
66.6656763778978
 42
0.0
  0
VERTEX
  8
Layer1
 10
47.4627117674652
 20
65.4672783165814
 42
0.0
  0
VERTEX
  8
Layer1
 10
47.0875090803349
 20
64.4707181042938
 42
0.0
  0
VERTEX
  8
Layer1
 10
46.7402918000117
 20
63.6716538799619
 42
0.0
  0
VERTEX
  8
Layer1
 10
46.4396702168919
 20
63.0643537341534
 42
0.0
  0
VERTEX
  8
Layer1
 10
46.2037296862917
 20
62.641729354725
 42
0.0
  0
VERTEX
  8
Layer1
 10
46.0499420986106
 20
62.3953752550443
 42
0.0
  0
VERTEX
  8
Layer1
 10
45.9950800120913
 20
62.3156134329703
 42
0.0
  0
VERTEX
  8
Layer1
 10
44.7599754686875
 20
60.6422540811478
 42
-0.0168405422819
  0
VERTEX
  8
Layer1
 10
48.7400000874386
 20
57.4921801245742
 42
0.0
  0
VERTEX
  8
Layer1
 10
50.0849292327999
 20
59.0786164918534
 42
0.0
  0
VERTEX
  8
Layer1
 10
50.1499572645973
 20
59.1503322633292
 42
0.0
  0
VERTEX
  8
Layer1
 10
50.3544013513972
 20
59.3565932143763
 42
0.0
  0
VERTEX
  8
Layer1
 10
50.7115332302328
 20
59.6832981595278
 42
0.0
  0
VERTEX
  8
Layer1
 10
51.233546774312
 20
60.1153729946367
 42
0.0
  0
VERTEX
  8
Layer1
 10
51.9314948052078
 20
60.6368440106395
 42
0.0
  0
VERTEX
  8
Layer1
 10
52.8152305790371
 20
61.2309150461216
 42
0.0
  0
VERTEX
  8
Layer1
 10
53.8933541700854
 20
61.8800481927935
 42
0.0
  0
VERTEX
  8
Layer1
 10
55.1731639583454
 20
62.5660477553679
 42
0.0
  0
VERTEX
  8
Layer1
 10
55.745234313216
 20
62.8368431046997
 42
-0.0111967302195
  0
VERTEX
  8
Layer1
 10
58.502550024264
 20
60.2781190869331
 42
0.0
  0
VERTEX
  8
Layer1
 10
58.502550024264
 20
60.2781190869331
 42
0.0
  0
VERTEX
  8
Layer1
 10
58.2751916238772
 20
59.6874391652199
 42
0.0
  0
VERTEX
  8
Layer1
 10
57.686590731017
 20
58.3600140325279
 42
0.0
  0
VERTEX
  8
Layer1
 10
57.1197056868473
 20
57.2364635590823
 42
0.0
  0
VERTEX
  8
Layer1
 10
56.5932260037192
 20
56.3108672883477
 42
0.0
  0
VERTEX
  8
Layer1
 10
56.1252823598247
 20
55.5759576200884
 42
0.0
  0
VERTEX
  8
Layer1
 10
55.7333592538175
 20
55.0231619233666
 42
0.0
  0
VERTEX
  8
Layer1
 10
55.4342105239611
 20
54.6426499820396
 42
0.0
  0
VERTEX
  8
Layer1
 10
55.2437780448862
 20
54.4233865891359
 42
0.0
  0
VERTEX
  8
Layer1
 10
55.1771139037236
 20
54.3531890886044
 42
0.0
  0
VERTEX
  8
Layer1
 10
53.6954444717651
 20
52.8936444856996
 42
-0.0168405422819
  0
SEQEND
  0
CIRCLE
  8
Layer1
 10
-10.0
 20
17.3205080756888
 30
0.0
 40
3.5
  0
POLYLINE
  8
Layer1
 66
     1
 10
0.0
 20
0.0
 30
0.0
 70
     1
  0
VERTEX
  8
Layer1
 10
-14.9348626492163
 20
18.0790590919175
 42
0.474262250252
  0
VERTEX
  8
Layer1
 10
-14.0632294115336
 20
12.7291258184189
 42
0.3058379806448
  0
VERTEX
  8
Layer1
 10
-10.1573318932026
 20
13.0030230643235
 42
-0.0348999319503
  0
VERTEX
  8
Layer1
 10
-8.25
 20
14.2894191624432
 42
-0.0349416104368
  0
VERTEX
  8
Layer1
 10
-6.1797349806088
 20
15.2990481916177
 42
0.3056233923943
  0
VERTEX
  8
Layer1
 10
-3.9921316209524
 20
18.543676838846
 42
0.474262250252
  0
VERTEX
  8
Layer1
 10
-8.0358983848622
 20
21.9185842870421
 42
0.0136113063474
  0
VERTEX
  8
Layer1
 10
-9.3730470653452
 20
21.4953131801056
 42
0.0281087532132
  0
VERTEX
  8
Layer1
 10
-11.725
 20
20.3082957187451
 42
0.0281087532132
  0
VERTEX
  8
Layer1
 10
-13.9289637436013
 20
18.864953459509
 42
0.0109398117858
  0
VERTEX
  8
Layer1
 10
-14.0632294115336
 20
18.79130364491
 42
0.0809285363283
  0
SEQEND
  0
CIRCLE
  8
Layer1
 10
0.0
 20
0.0
 30
0.0
 40
10.0
  0
CIRCLE
  8
Layer1
 10
0.0
 20
0.0
 30
0.0
 40
10.0
  0
CIRCLE
  8
Layer1
 10
-10.0
 20
-17.3205080756888
 30
0.0
 40
3.5
  0
CIRCLE
  8
Layer1
 10
20.0
 20
0.0
 30
0.0
 40
3.5
  0
POLYLINE
  8
Layer1
 66
     1
 10
0.0
 20
0.0
 30
0.0
 70
     1
  0
VERTEX
  8
Layer1
 10
23.1243557747287
 20
3.8944409102939
 42
0.474262250252
  0
VERTEX
  8
Layer1
 10
18.055361032486
 20
5.8145510204271
 42
0.3058379806448
  0
VERTEX
  8
Layer1
 10
16.3396142463004
 20
2.2949959220215
 42
-0.0348999319503
  0
VERTEX
  8
Layer1
 10
16.5
 20
0.0
 42
-0.0349416104368
  0
VERTEX
  8
Layer1
 10
16.3392318779677
 20
-2.2977166139463
 42
0.3056233923943
  0
VERTEX
  8
Layer1
 10
18.055361032486
 20
-5.8145510204271
 42
0.474262250252
  0
VERTEX
  8
Layer1
 10
23.0
 20
-4.0
 42
0.0136113063474
  0
VERTEX
  8
Layer1
 10
23.3020108089466
 20
-2.6303597205967
 42
0.0281087532132
  0
VERTEX
  8
Layer1
 10
23.45
 20
0.0
 42
0.0281087532132
  0
VERTEX
  8
Layer1
 10
23.3020108089466
 20
2.6303597205966
 42
0.0109398117858
  0
VERTEX
  8
Layer1
 10
23.305361032486
 20
2.7834621071816
 42
0.0809285363283
  0
SEQEND
  0
POLYLINE
  8
Layer1
 66
     1
 10
0.0
 20
0.0
 30
0.0
 70
     1
  0
VERTEX
  8
Layer1
 10
-8.1894931255124
 20
-21.9735000022114
 42
0.474262250252
  0
VERTEX
  8
Layer1
 10
-3.9921316209524
 20
-18.543676838846
 42
0.3058379806448
  0
VERTEX
  8
Layer1
 10
-6.1822823530979
 20
-15.2980189863451
 42
-0.0348999319503
  0
VERTEX
  8
Layer1
 10
-8.25
 20
-14.2894191624432
 42
-0.0349416104368
  0
VERTEX
  8
Layer1
 10
-10.1594968973589
 20
-13.0013315776714
 42
0.3056233923943
  0
VERTEX
  8
Layer1
 10
-14.0632294115336
 20
-12.7291258184189
 42
0.474262250252
  0
VERTEX
  8
Layer1
 10
-14.9641016151378
 20
-17.9185842870421
 42
0.0136113063474
  0
VERTEX
  8
Layer1
 10
-13.9289637436014
 20
-18.864953459509
 42
0.0281087532132
  0
VERTEX
  8
Layer1
 10
-11.725
 20
-20.3082957187451
 42
0.0281087532132
  0
VERTEX
  8
Layer1
 10
-9.3730470653453
 20
-21.4953131801056
 42
0.0109398117858
  0
VERTEX
  8
Layer1
 10
-9.2421316209524
 20
-21.5747657520915
 42
0.0809285363283
  0
SEQEND
  0
POLYLINE
  8
Layer1
 66
     1
 10
0.0
 20
0.0
 30
0.0
 70
     1
  0
VERTEX
  8
Layer1
 10
16.2044728138544
 20
-25.0669618444128
 42
0.0
  0
VERTEX
  8
Layer1
 10
7.0381595355693
 20
-9.1904466912511
 42
-0.329954891238
  0
VERTEX
  8
Layer1
 10
7.3085085019381
 20
-6.8253720394641
 42
0.1900468377397
  0
VERTEX
  8
Layer1
 10
10.0
 20
0.0
 42
0.5773502691896
  0
VERTEX
  8
Layer1
 10
-5.0
 20
8.6602540378444
 42
0.5773502691896
  0
VERTEX
  8
Layer1
 10
-5.0
 20
-8.6602540378444
 42
0.1900469106888
  0
VERTEX
  8
Layer1
 10
2.256694069087
 20
-9.7420394106444
 42
-0.329954891238
  0
VERTEX
  8
Layer1
 10
4.4400835496608
 20
-10.690447048879
 42
0.0
  0
VERTEX
  8
Layer1
 10
13.6063968279459
 20
-26.5669622020407
 42
-0.4488738668506
  0
VERTEX
  8
Layer1
 10
12.6655572500519
 20
-29.4038034877404
 42
-0.2368680056775
  0
VERTEX
  8
Layer1
 10
-16.0078105935821
 20
-27.7263412660235
 42
-0.5773502691896
  0
VERTEX
  8
Layer1
 10
-16.0078105935821
 20
27.7263412660235
 42
-0.5773502691896
  0
VERTEX
  8
Layer1
 10
32.0156211871642
 20
0.0
 42
-0.236867931321
  0
VERTEX
  8
Layer1
 10
19.1316693927189
 20
-25.6705906875495
 42
-0.4488738668506
  0
SEQEND
  0
ENDSEC
  0
EOF
