  0
SECTION
  2
HEADER
  9
$ACADVER
  1
AC1009
  9
$EXTMAX
 10
32.0156211853027
 20
32.0156211853027
 30
0.0
  9
$EXTMIN
 10
-32.0156211853027
 20
-32.0124702453613
 30
0.0
  9
$INSUNITS
 70
     4
  9
$LUNITS
 70
     2
  9
$LUPREC
 70
     4
  9
$MEASUREMENT
 70
     1
  0
ENDSEC
  0
SECTION
  2
TABLES
  0
TABLE
  2
LAYER
 70
     1
  0
LAYER
  2
0
 70
     0
 62
     7
  6
Continuous
  0
LAYER
  2
Default
 70
     0
 62
    70
  6
Continuous
  0
ENDTAB
  0
TABLE
  2
APPID
 70
     1
  0
APPID
  2
ACAD
 70
     0
  0
ENDTAB
  0
ENDSEC
  0
SECTION
  2
ENTITIES
  0
POLYLINE
  8
Default
 66
     1
 10
0.0
 20
0.0
 30
0.0
 70
     1
  0
VERTEX
  8
Default
 10
-9.9498743604005
 20
1.0000001061219
 42
0.0
  0
VERTEX
  8
Default
 10
-21.8174242244073
 20
1.0000001061219
 42
0.0229054385701
  0
VERTEX
  8
Default
 10
-21.8174242341355
 20
-0.9999998938781
 42
0.0
  0
VERTEX
  8
Default
 10
-9.9498743817319
 20
-0.9999998938781
 42
0.2412827715228
  0
VERTEX
  8
Default
 10
-5.0
 20
-8.6602540378444
 42
0.1900469106888
  0
VERTEX
  8
Default
 10
2.256694069087
 20
-9.7420394106444
 42
-0.329954891238
  0
VERTEX
  8
Default
 10
4.4400835496608
 20
-10.690447048879
 42
0.0
  0
VERTEX
  8
Default
 10
9.5953439491552
 20
-19.6196170833533
 42
0.0
  0
VERTEX
  8
Default
 10
13.6063968279459
 20
-26.5669622020407
 42
-0.4488738668506
  0
VERTEX
  8
Default
 10
12.6655572500519
 20
-29.4038034877404
 42
-0.2368680056775
  0
VERTEX
  8
Default
 10
-16.0078105935821
 20
-27.7263412660235
 42
-0.5773502691896
  0
VERTEX
  8
Default
 10
-16.0078105935821
 20
27.7263412660235
 42
-0.5773502691896
  0
VERTEX
  8
Default
 10
32.0156211871642
 20
0.0
 42
-0.236867931321
  0
VERTEX
  8
Default
 10
19.1316693927189
 20
-25.6705906875495
 42
-0.4488738668506
  0
VERTEX
  8
Default
 10
16.2044728138544
 20
-25.0669618444128
 42
0.0
  0
VERTEX
  8
Default
 10
12.1934199350637
 20
-18.1196167257255
 42
0.0
  0
VERTEX
  8
Default
 10
7.0381595355693
 20
-9.1904466912511
 42
-0.329954891238
  0
VERTEX
  8
Default
 10
7.3085085019381
 20
-6.8253720394641
 42
0.1900468377397
  0
VERTEX
  8
Default
 10
10.0
 20
0.0
 42
0.2412827807391
  0
VERTEX
  8
Default
 10
5.8409622199794
 20
8.1168442355865
 42
0.0
  0
VERTEX
  8
Default
 10
11.7747366580365
 20
18.394444178444
 42
0.0229054391034
  0
VERTEX
  8
Default
 10
10.0426857623456
 20
19.3944441188393
 42
0.0
  0
VERTEX
  8
Default
 10
4.1089113242885
 20
9.1168441759819
 42
0.2412827554265
  0
VERTEX
  8
Default
 10
-5.0
 20
8.6602540378444
 42
0.2412827658795
  0
SEQEND
  0
POLYLINE
  8
Default
 66
     1
 10
0.0
 20
0.0
 30
0.0
 70
     1
  0
VERTEX
  8
Default
 10
-8.1894931255124
 20
-21.9735000022114
 42
0.474262250252
  0
VERTEX
  8
Default
 10
-3.9921316209524
 20
-18.543676838846
 42
0.3058379806448
  0
VERTEX
  8
Default
 10
-6.1822823530979
 20
-15.2980189863451
 42
-0.0348999319503
  0
VERTEX
  8
Default
 10
-8.25
 20
-14.2894191624432
 42
-0.0349416104368
  0
VERTEX
  8
Default
 10
-10.1594968973589
 20
-13.0013315776714
 42
0.3056233923943
  0
VERTEX
  8
Default
 10
-14.0632294115336
 20
-12.7291258184189
 42
0.474262250252
  0
VERTEX
  8
Default
 10
-14.9641016151378
 20
-17.9185842870421
 42
0.0136113063474
  0
VERTEX
  8
Default
 10
-13.9289637436014
 20
-18.864953459509
 42
0.0281087532132
  0
VERTEX
  8
Default
 10
-11.725
 20
-20.3082957187451
 42
0.0281087532132
  0
VERTEX
  8
Default
 10
-9.3730470653453
 20
-21.4953131801056
 42
0.0109398117858
  0
VERTEX
  8
Default
 10
-9.2421316209524
 20
-21.5747657520915
 42
0.0809285363283
  0
SEQEND
  0
POLYLINE
  8
Default
 66
     1
 10
0.0
 20
0.0
 30
0.0
 70
     1
  0
VERTEX
  8
Default
 10
23.1243557747287
 20
3.8944409102939
 42
0.474262250252
  0
VERTEX
  8
Default
 10
18.055361032486
 20
5.8145510204271
 42
0.3058379806448
  0
VERTEX
  8
Default
 10
16.3396142463004
 20
2.2949959220215
 42
-0.0348999319503
  0
VERTEX
  8
Default
 10
16.5
 20
0.0
 42
-0.0349416104368
  0
VERTEX
  8
Default
 10
16.3392318779677
 20
-2.2977166139463
 42
0.3056233923943
  0
VERTEX
  8
Default
 10
18.055361032486
 20
-5.8145510204271
 42
0.474262250252
  0
VERTEX
  8
Default
 10
23.0
 20
-4.0
 42
0.0136113063474
  0
VERTEX
  8
Default
 10
23.3020108089466
 20
-2.6303597205967
 42
0.0281087532132
  0
VERTEX
  8
Default
 10
23.45
 20
0.0
 42
0.0281087532132
  0
VERTEX
  8
Default
 10
23.3020108089466
 20
2.6303597205966
 42
0.0109398117858
  0
VERTEX
  8
Default
 10
23.305361032486
 20
2.7834621071816
 42
0.0809285363283
  0
SEQEND
  0
POLYLINE
  8
Default
 66
     1
 10
0.0
 20
0.0
 30
0.0
 70
     1
  0
VERTEX
  8
Default
 10
-14.9348626492163
 20
18.0790590919175
 42
0.474262250252
  0
VERTEX
  8
Default
 10
-14.0632294115336
 20
12.7291258184189
 42
0.3058379806448
  0
VERTEX
  8
Default
 10
-10.1573318932026
 20
13.0030230643235
 42
-0.0348999319503
  0
VERTEX
  8
Default
 10
-8.25
 20
14.2894191624432
 42
-0.0349416104368
  0
VERTEX
  8
Default
 10
-6.1797349806088
 20
15.2990481916177
 42
0.3056233923943
  0
VERTEX
  8
Default
 10
-3.9921316209524
 20
18.543676838846
 42
0.474262250252
  0
VERTEX
  8
Default
 10
-8.0358983848622
 20
21.9185842870421
 42
0.0136113063474
  0
VERTEX
  8
Default
 10
-9.3730470653452
 20
21.4953131801056
 42
0.0281087532132
  0
VERTEX
  8
Default
 10
-11.725
 20
20.3082957187451
 42
0.0281087532132
  0
VERTEX
  8
Default
 10
-13.9289637436013
 20
18.864953459509
 42
0.0109398117858
  0
VERTEX
  8
Default
 10
-14.0632294115336
 20
18.79130364491
 42
0.0809285363283
  0
SEQEND
  0
ENDSEC
  0
EOF
