  0
SECTION
  2
HEADER
  9
$ACADVER
  1
AC1009
  9
$EXTMAX
 10
190.0
 20
190.0
 30
0.0
  9
$EXTMIN
 10
-190.0
 20
-190.0
 30
0.0
  9
$INSUNITS
 70
     4
  9
$LUNITS
 70
     2
  9
$LUPREC
 70
     4
  9
$MEASUREMENT
 70
     1
  0
ENDSEC
  0
SECTION
  2
TABLES
  0
TABLE
  2
LAYER
 70
     1
  0
LAYER
  2
0
 70
     0
 62
     7
  6
Continuous
  0
LAYER
  2
Default
 70
     0
 62
    70
  6
Continuous
  0
ENDTAB
  0
TABLE
  2
APPID
 70
     1
  0
APPID
  2
ACAD
 70
     0
  0
ENDTAB
  0
ENDSEC
  0
SECTION
  2
ENTITIES
  0
CIRCLE
  8
Default
 10
1.0
 20
-135.0
 30
0.0
 40
20.0
  0
CIRCLE
  8
Default
 10
80.1600260538588
 20
-108.629508988325
 30
0.0
 40
20.0
  0
CIRCLE
  8
Default
 10
128.701646694221
 20
-40.7662377243228
 30
0.0
 40
20.0
  0
CIRCLE
  8
Default
 10
-1.0
 20
135.0
 30
0.0
 40
20.0
  0
CIRCLE
  8
Default
 10
-80.1600260538588
 20
108.629508988325
 30
0.0
 40
20.0
  0
CIRCLE
  8
Default
 10
0.0
 20
0.0
 30
0.0
 40
190.0
  0
CIRCLE
  8
Default
 10
-127.279220613579
 20
127.279220613579
 30
0.0
 40
3.0
  0
CIRCLE
  8
Default
 10
-68.8830178257162
 20
166.298315852032
 30
0.0
 40
3.0
  0
CIRCLE
  8
Default
 10
0.0
 20
180.0
 30
0.0
 40
3.0
  0
CIRCLE
  8
Default
 10
-45.0
 20
0.0
 30
0.0
 40
4.0
  0
CIRCLE
  8
Default
 10
0.0
 20
45.0
 30
0.0
 40
4.0
  0
CIRCLE
  8
Default
 10
45.0
 20
0.0
 30
0.0
 40
4.0
  0
CIRCLE
  8
Default
 10
0.0
 20
-45.0
 30
0.0
 40
4.0
  0
CIRCLE
  8
Default
 10
0.0
 20
45.0
 30
0.0
 40
4.0
  0
CIRCLE
  8
Default
 10
-166.298315852032
 20
68.8830178257162
 30
0.0
 40
3.0
  0
CIRCLE
  8
Default
 10
-180.0
 20
0.0
 30
0.0
 40
3.0
  0
CIRCLE
  8
Default
 10
-166.298315852032
 20
-68.8830178257162
 30
0.0
 40
3.0
  0
CIRCLE
  8
Default
 10
-127.279220613579
 20
-127.279220613579
 30
0.0
 40
3.0
  0
CIRCLE
  8
Default
 10
-68.8830178257162
 20
-166.298315852032
 30
0.0
 40
3.0
  0
CIRCLE
  8
Default
 10
0.0
 20
-180.0
 30
0.0
 40
3.0
  0
CIRCLE
  8
Default
 10
68.8830178257161
 20
-166.298315852032
 30
0.0
 40
3.0
  0
CIRCLE
  8
Default
 10
127.279220613579
 20
-127.279220613579
 30
0.0
 40
3.0
  0
CIRCLE
  8
Default
 10
166.298315852032
 20
-68.8830178257163
 30
0.0
 40
3.0
  0
CIRCLE
  8
Default
 10
180.0
 20
0.0
 30
0.0
 40
3.0
  0
CIRCLE
  8
Default
 10
166.298315852032
 20
68.8830178257162
 30
0.0
 40
3.0
  0
CIRCLE
  8
Default
 10
127.279220613579
 20
127.279220613579
 30
0.0
 40
3.0
  0
CIRCLE
  8
Default
 10
68.8830178257163
 20
166.298315852032
 30
0.0
 40
3.0
  0
CIRCLE
  8
Default
 10
-47.8318371777728
 20
64.1335742977033
 30
0.0
 40
15.0
  0
CIRCLE
  8
Default
 10
-76.3935382979872
 20
23.7703030337007
 30
0.0
 40
15.0
  0
CIRCLE
  8
Default
 10
-75.7755043092373
 20
-25.6724160662909
 30
0.0
 40
15.0
  0
CIRCLE
  8
Default
 10
-46.2138031890229
 20
-65.3091448022883
 30
0.0
 40
15.0
  0
CIRCLE
  8
Default
 10
1.0
 20
-80.0
 30
0.0
 40
15.0
  0
CIRCLE
  8
Default
 10
47.8318371777728
 20
-64.1335742977033
 30
0.0
 40
15.0
  0
CIRCLE
  8
Default
 10
-1.0
 20
80.0
 30
0.0
 40
15.0
  0
CIRCLE
  8
Default
 10
76.3935382979872
 20
-23.7703030337006
 30
0.0
 40
15.0
  0
CIRCLE
  8
Default
 10
0.0
 20
0.0
 30
0.0
 40
10.0
  0
CIRCLE
  8
Default
 10
-78.541992065109
 20
-109.80507949291
 30
0.0
 40
20.0
  0
CIRCLE
  8
Default
 10
-128.083612705471
 20
-42.668350756913
 30
0.0
 40
20.0
  0
CIRCLE
  8
Default
 10
-128.701646694221
 20
40.7662377243228
 30
0.0
 40
20.0
  0
CIRCLE
  8
Default
 10
-29.6984843015671
 20
-29.6984843015671
 30
0.0
 40
3.0
  0
CIRCLE
  8
Default
 10
-29.6984843015671
 20
29.6984843015671
 30
0.0
 40
3.0
  0
CIRCLE
  8
Default
 10
29.6984843015671
 20
29.6984843015671
 30
0.0
 40
3.0
  0
CIRCLE
  8
Default
 10
29.6984843015671
 20
-29.6984843015671
 30
0.0
 40
3.0
  0
POLYLINE
  8
Default
 66
     1
 10
0.0
 20
0.0
 30
0.0
 70
     1
  0
VERTEX
  8
Default
 10
102.820284475393
 20
-3.6385574613185
 42
0.0
  0
VERTEX
  8
Default
 10
168.147147823522
 20
56.804812109668
 42
0.4142135623731
  0
VERTEX
  8
Default
 10
168.311759973313
 20
61.0442581631214
 42
0.0
  0
VERTEX
  8
Default
 10
73.9114412051432
 20
163.071606538289
 42
0.4142135623731
  0
VERTEX
  8
Default
 10
69.6719951516899
 20
163.236218688081
 42
0.0
  0
VERTEX
  8
Default
 10
4.3451318035607
 20
102.792849117094
 42
0.4142135623731
  0
VERTEX
  8
Default
 10
4.1805196537694
 20
98.5534030636408
 42
0.0
  0
VERTEX
  8
Default
 10
98.5808384219394
 20
-3.4739453115272
 42
0.4142135623731
  0
SEQEND
  0
ENDSEC
  0
EOF
